<svg width="247" height="30" viewBox="0 0 247 30" fill="none" xmlns="http://www.w3.org/2000/svg">
<path d="M184.772 0.278931H183.098V2.23153C183.098 2.73363 183.289 3.3473 184.15 3.3473H185.824V1.3947C185.824 0.948394 185.68 0.278931 184.772 0.278931Z" fill="#F5F5F5"/>
<path d="M184.628 6.58301H183.29V22.7059C183.29 23.3754 183.672 23.8217 184.198 23.8775V23.9333H185.728V7.75457C185.68 7.02932 185.346 6.58301 184.628 6.58301Z" fill="#F5F5F5"/>
<path d="M103.623 19.1913C103.05 18.5218 102.332 18.6892 101.902 19.1355C100.133 20.8649 98.5068 21.5344 96.4028 21.5344C92.1947 21.5344 88.8474 17.406 88.8474 12.1061C88.8474 6.80621 92.0991 2.73364 96.4028 2.73364C98.459 2.73364 100.18 3.45889 101.806 5.07676C102.189 5.46728 102.858 5.63465 103.336 5.02097C103.767 4.51888 104.197 3.96099 104.197 3.96099L104.293 3.84941L104.197 3.73784C102.476 1.78524 100.324 0 96.4028 0C90.7123 0 86.313 5.35571 86.313 12.1619C86.313 19.0239 90.6167 24.2123 96.3549 24.2123C99.5588 24.2123 101.902 22.9849 104.293 20.0839L104.341 19.9723L104.293 19.8607C104.293 19.9723 104.149 19.7492 103.623 19.1913Z" fill="#F5F5F5"/>
<path d="M139.966 6.19251C137.862 6.19251 136.188 7.25249 134.897 9.37246C134.323 8.03353 132.984 6.08093 130.211 6.08093C127.82 6.08093 126.529 7.53144 125.572 8.98194V7.75459C125.572 6.91776 125.142 6.41566 124.472 6.41566H123.133V23.7659H124.472C125.142 23.7659 125.524 23.5428 125.524 22.5944V13.9471C125.524 10.9345 127.198 8.703 129.446 8.703C131.741 8.703 133.08 10.544 133.08 13.6682V22.5944C133.08 23.4312 133.462 23.8217 134.132 23.8217H135.471V13.8913C135.471 10.3209 137.431 8.75879 139.392 8.75879C141.735 8.75879 143.074 10.5998 143.074 13.724V22.427C143.074 23.1522 143.217 23.8217 144.174 23.8217H145.465V13.1661C145.513 8.87036 143.409 6.19251 139.966 6.19251Z" fill="#F5F5F5"/>
<path d="M157.228 6.24835C155.029 6.24835 153.211 7.36412 151.729 9.76303V7.9778C151.729 7.08518 151.299 6.63887 150.534 6.63887H149.338V27.9501C149.338 28.7869 149.673 29.1775 150.39 29.1775H151.729V20.9208C153.211 23.1523 154.981 24.2681 157.228 24.2681C160.671 24.2681 164.305 21.0881 164.305 15.2303C164.305 9.37251 160.671 6.24835 157.228 6.24835ZM161.819 15.2303C161.819 19.0239 159.763 21.646 156.798 21.646C154.263 21.646 151.633 19.1913 151.633 15.1745C151.633 11.1577 154.263 8.70305 156.798 8.70305C159.284 8.75884 161.819 10.9904 161.819 15.2303Z" fill="#F5F5F5"/>
<path d="M201.461 7.81038V9.26088C200.456 7.75459 198.687 6.08093 195.866 6.08093C194.097 6.08093 192.327 6.86197 191.036 8.25669C189.649 9.76298 188.884 11.9387 188.884 14.2819C188.884 19.5818 192.471 22.427 195.866 22.427C198.065 22.427 199.93 21.367 201.508 19.1355V20.8091C201.508 24.6028 199.596 26.7785 196.344 26.7785C194.766 26.7785 193.236 26.3322 191.801 25.3838C191.419 25.1048 191.132 24.9933 190.893 24.9933C190.606 24.9933 190.319 25.1606 190.128 25.5512C189.745 26.2764 189.602 26.6111 189.602 26.6111L189.554 26.7227L189.649 26.7785C191.61 28.3964 193.857 29.1774 196.344 29.1774C201.126 29.1774 203.899 26.109 203.899 20.7533V6.52724H202.56C202.13 6.52724 201.461 6.97355 201.461 7.81038ZM201.604 14.4492C201.604 18.0197 198.926 20.1397 196.344 20.1397C193.523 20.1397 191.419 17.685 191.419 14.4492C191.419 11.1577 193.523 8.81457 196.344 8.81457C198.878 8.75879 201.604 10.7114 201.604 14.4492Z" fill="#F5F5F5"/>
<path d="M215.185 6.24835C213.081 6.24835 211.455 7.25255 210.307 9.26094V7.81043C210.307 6.9736 209.733 6.63887 209.159 6.63887H207.821V23.9891H210.259L210.211 14.0588C210.211 10.9904 211.981 8.87042 214.515 8.87042C217.002 8.87042 218.436 10.7114 218.436 13.8914V22.8176C218.436 23.6544 218.771 23.9891 219.393 23.9891H220.827V13.1661C220.875 8.9262 218.675 6.24835 215.185 6.24835Z" fill="#F5F5F5"/>
<path d="M173.295 6.30414C171.43 6.30414 169.757 6.75045 167.94 7.69885L167.844 7.75464L167.892 7.86622C167.892 7.86622 168.131 8.64726 168.322 9.20515C168.514 9.76303 169.087 9.81882 169.518 9.59567C170.761 9.03778 171.861 8.75884 173.104 8.75884C175.83 8.75884 177.312 10.3767 177.312 13.2777V17.4619C177.312 20.0839 175.304 21.9249 172.53 21.9249C170.809 21.9249 168.944 20.9208 168.944 18.6892C168.944 16.5692 170.426 15.3977 173.104 15.3977H174.3C175.017 15.3977 175.352 15.0072 175.352 14.2261V13.2777H172.865C168.8 13.2777 166.505 15.2861 166.505 18.745C166.505 21.3671 168.227 24.2681 172.1 24.2681C174.204 24.2681 175.973 23.3197 177.264 21.5344V22.706C177.264 23.487 177.599 23.8218 178.316 23.8218H179.655V13.2219C179.607 8.81463 177.36 6.30414 173.295 6.30414Z" fill="#F5F5F5"/>
<path d="M113.091 6.30414C110.796 6.30414 109.17 6.9736 107.736 7.69885L107.64 7.81043L107.688 7.92201C107.688 7.92201 107.927 8.70305 108.118 9.26093C108.31 9.81882 108.883 9.87461 109.314 9.65145C110.557 9.09357 111.657 8.81463 112.9 8.81463C115.626 8.81463 117.156 10.4325 117.156 13.3335V17.4619C117.156 20.0839 115.148 21.9249 112.374 21.9249C110.653 21.9249 108.836 20.9208 108.836 18.6892C108.836 16.5692 110.318 15.3977 112.948 15.3977H114.143C114.861 15.3977 115.195 15.0072 115.195 14.2261V13.2777H112.757C108.692 13.2777 106.349 15.2861 106.349 18.745C106.349 21.3671 108.07 24.2681 111.896 24.2681C114 24.2681 115.769 23.3197 117.108 21.5344V22.706C117.108 23.487 117.443 23.8218 118.112 23.8218H119.451V13.2219C119.404 8.81463 117.156 6.30414 113.091 6.30414Z" fill="#F5F5F5"/>
<path d="M245.454 12.7756C245.119 12.4408 231.491 1.33889 230.869 0.892586L230.678 0.72522V3.45886C230.678 4.35148 231.061 4.63042 231.539 5.07673L231.634 5.13252C232.304 5.69041 242.011 13.5566 243.302 14.6166C242.011 15.6766 232.16 23.6543 231.539 24.1006C230.774 24.6585 230.726 25.0491 230.726 25.8301V28.4522C230.726 28.4522 245.215 16.6808 245.502 16.4018C246.171 15.8439 246.315 15.1187 246.315 14.6724V14.3376C246.315 13.7798 246.028 13.2219 245.454 12.7756Z" fill="#F5F5F5"/>
<path d="M236.942 15.8439C237.325 15.8439 237.707 15.6766 238.09 15.3418C238.568 14.9513 238.998 14.6166 238.998 14.6166L239.142 14.505L238.998 14.3934C238.951 14.3376 232.591 9.20507 231.921 8.70298C231.634 8.42403 231.252 8.36824 231.013 8.53561C230.774 8.70298 230.582 8.98192 230.582 9.42823V11.1577L230.63 11.2135C230.678 11.2693 235.029 14.7839 235.89 15.4534C236.273 15.7323 236.607 15.8439 236.942 15.8439Z" fill="#F5F5F5"/>
<path d="M34.1426 19.9166C33.6166 19.3029 32.9471 19.6934 32.6602 19.9724C31.5604 21.1439 30.3171 21.7018 28.9782 21.7018C26.0612 21.7018 23.7659 18.8566 23.7659 15.1745C23.7659 11.5483 26.0134 8.70306 28.8347 8.70306C30.4606 8.70306 31.5126 9.53989 32.3733 10.3209C32.995 10.9346 33.521 10.9904 33.9513 10.4325C34.3339 9.98619 34.7643 9.42831 34.7643 9.42831L34.8599 9.31673L34.7643 9.20515C33.0906 7.08519 31.2257 6.13678 28.8347 6.13678C24.5789 6.13678 21.1837 10.0978 21.1837 15.1745C21.1837 20.1397 24.6267 24.2123 28.8347 24.2123C31.9429 24.2123 33.7122 22.3713 34.8599 20.8092H34.9555L34.8599 20.6976C34.8599 20.6976 34.6208 20.4745 34.1426 19.9166Z" fill="#F5F5F5"/>
<path d="M50.0184 0.278931H48.3448V2.23153C48.3448 2.73363 48.5361 3.3473 49.3968 3.3473H51.0705V1.61786C51.1183 0.836817 50.6879 0.278931 50.0184 0.278931Z" fill="#F5F5F5"/>
<path d="M49.8272 6.58301H48.4404V22.7059C48.4404 23.3754 48.823 23.8217 49.349 23.8775V23.9333H50.8792V7.75457C50.927 7.02932 50.5445 6.58301 49.8272 6.58301Z" fill="#F5F5F5"/>
<path d="M65.5596 7.53142C65.3683 8.14509 61.7341 18.4102 61.0168 20.307C60.3473 18.3544 56.7131 8.0893 56.5218 7.53142C56.2827 6.86196 55.8046 6.47144 55.1829 6.47144H53.4614L53.5571 6.6388C53.6049 6.86196 59.391 22.427 59.6301 23.0407C59.8691 23.7659 60.2517 23.9333 60.8733 23.9333H61.1603C61.7341 23.9333 62.1166 23.6543 62.3557 23.0407C62.5948 22.427 68.3809 6.97353 68.4287 6.80617L68.5244 6.58301H66.8507C66.229 6.58301 65.7987 6.86196 65.5596 7.53142Z" fill="#F5F5F5"/>
<path d="M80.5269 14.2261H74.8364C74.2148 14.2261 73.8322 14.6724 73.8322 15.3977V16.5135H73.9757C76.7014 16.4577 79.8574 16.4577 81.1485 16.4577C81.9136 16.4577 82.4874 16.2345 82.9178 15.7324C83.3003 15.2303 83.4916 14.4493 83.4438 13.5567C83.0134 9.09357 80.2878 6.19257 76.5579 6.19257C72.4933 6.19257 69.3851 10.0978 69.3851 15.2303C69.3851 20.4187 72.5889 24.2681 76.8448 24.2681C79.3314 24.2681 81.1963 23.2639 82.9656 21.0323L83.0613 20.9208L82.9656 20.8092C82.9656 20.8092 82.6309 20.4744 82.2483 20.0839C81.6745 19.526 81.1485 19.7492 80.8616 20.0839C79.8096 21.1997 78.5185 21.7576 76.9404 21.7576C74.2148 21.7576 72.2064 19.4703 71.8716 16.0671C71.8716 16.0671 71.8238 15.6766 71.8238 15.1745C71.8238 14.6166 71.8716 14.2261 71.8716 14.2261C72.1586 10.8788 74.0713 8.53569 76.5101 8.53569C78.9488 8.53569 80.7181 10.4325 80.9572 13.3335C81.005 13.6124 80.9572 13.8356 80.9094 13.9472C80.7659 14.1703 80.6703 14.2261 80.5269 14.2261Z" fill="#F5F5F5"/>
<path d="M11.7634 1.17155C11.4765 0.502085 11.1418 0.278931 10.5201 0.278931H9.94631C9.46812 0.278931 9.03775 0.613662 8.79866 1.11576C8.60738 1.61786 0.191275 23.487 0.0956376 23.7101L0 23.9333H1.57802C2.24748 23.9333 2.67785 23.5986 3.01258 22.8175C3.2995 22.1481 4.68624 18.466 4.92534 17.8523H11.094C11.8591 17.8523 12.3373 17.2945 12.3373 16.4576V15.2303H5.88171L10.2332 3.8494C11.1418 6.19252 17.2148 22.3712 17.5017 23.0407C17.8842 23.9333 18.7928 23.9333 19.0797 23.9333H20.5143L20.4186 23.7101C20.4186 23.487 12.0503 1.8968 11.7634 1.17155Z" fill="#F5F5F5"/>
<path d="M44.9019 21.4229C44.6628 21.2555 44.3281 21.1997 43.9933 21.3113C43.4673 21.4787 43.0848 21.5902 42.6066 21.5902C41.0764 21.5902 40.2635 20.6976 40.2635 18.8566V9.09359H44.9019V7.92203C44.9019 7.02941 44.2324 6.5831 43.6586 6.5831H40.2156V1.6737C40.2156 0.892664 39.7375 0.334778 39.0202 0.334778H37.8247V19.2471C37.8247 22.4271 39.3071 24.2123 42.0806 24.2123C43.1326 24.2123 44.3281 23.9334 45.0932 23.487L45.141 23.4313V23.3755C45.141 23.3755 45.1888 22.8734 45.1888 22.2597C45.2366 21.8134 45.0453 21.5902 44.9019 21.4229Z" fill="#F5F5F5"/>
</svg>
