<svg width="136" height="17" viewBox="0 0 136 17" fill="none" xmlns="http://www.w3.org/2000/svg">
<path d="M102.02 0.153992H101.096V1.2321C101.096 1.50933 101.201 1.84816 101.677 1.84816H102.601V0.770053C102.601 0.523629 102.521 0.153992 102.02 0.153992Z" fill="#0007A8"/>
<path d="M101.941 3.63474H101.201V12.5368C101.201 12.9065 101.413 13.1529 101.703 13.1837V13.2145H102.548V4.2816C102.521 3.88116 102.337 3.63474 101.941 3.63474Z" fill="#0007A8"/>
<path d="M57.2146 10.5963C56.8977 10.2266 56.5017 10.319 56.2641 10.5655C55.2872 11.5203 54.3895 11.89 53.2278 11.89C50.9043 11.89 49.0561 9.61056 49.0561 6.68427C49.0561 3.75797 50.8515 1.50935 53.2278 1.50935C54.3631 1.50935 55.3136 1.90979 56.2113 2.80308C56.4225 3.0187 56.7921 3.11111 57.0561 2.77228C57.2938 2.49505 57.5314 2.18702 57.5314 2.18702L57.5842 2.12541L57.5314 2.06381C56.5809 0.985698 55.3928 0 53.2278 0C50.0858 0 47.6568 2.95709 47.6568 6.71507C47.6568 10.5038 50.033 13.3685 53.2014 13.3685C54.9703 13.3685 56.2641 12.6909 57.5842 11.0891L57.6106 11.0275L57.5842 10.9659C57.5842 11.0275 57.505 10.9043 57.2146 10.5963Z" fill="#0007A8"/>
<path d="M77.2805 3.41912C76.1188 3.41912 75.1947 4.00438 74.4819 5.17489C74.165 4.43562 73.4258 3.35751 71.8944 3.35751C70.5743 3.35751 69.8614 4.15839 69.3334 4.95927V4.28161C69.3334 3.81956 69.0957 3.54233 68.7261 3.54233H67.9868V13.1221H68.7261C69.0957 13.1221 69.3069 12.9989 69.3069 12.4752V7.70075C69.3069 6.03738 70.231 4.80526 71.472 4.80526C72.7393 4.80526 73.4786 5.82176 73.4786 7.54673V12.4752C73.4786 12.9373 73.6898 13.1529 74.0594 13.1529H74.7987V7.66994C74.7987 5.69855 75.8812 4.83606 76.9637 4.83606C78.2574 4.83606 78.9967 5.85256 78.9967 7.57753V12.3828C78.9967 12.7833 79.0759 13.1529 79.604 13.1529H80.3169V7.2695C80.3433 4.89767 79.1815 3.41912 77.2805 3.41912Z" fill="#0007A8"/>
<path d="M86.8119 3.44995C85.5974 3.44995 84.5941 4.06601 83.7756 5.39055V4.40485C83.7756 3.912 83.538 3.66557 83.1155 3.66557H82.4554V15.4323C82.4554 15.8944 82.6403 16.11 83.0363 16.11H83.7756V11.5512C84.5941 12.7833 85.571 13.3993 86.8119 13.3993C88.7129 13.3993 90.7195 11.6436 90.7195 8.40925C90.7195 5.17492 88.7129 3.44995 86.8119 3.44995ZM89.3465 8.40925C89.3465 10.5039 88.2112 11.9516 86.5742 11.9516C85.1749 11.9516 83.7228 10.5963 83.7228 8.37844C83.7228 6.16062 85.1749 4.80529 86.5742 4.80529C87.9472 4.83609 89.3465 6.06821 89.3465 8.40925Z" fill="#0007A8"/>
<path d="M111.234 4.31241V5.11329C110.68 4.28161 109.703 3.35751 108.145 3.35751C107.168 3.35751 106.191 3.78876 105.479 4.55883C104.713 5.39052 104.29 6.59184 104.29 7.88556C104.29 10.8119 106.271 12.3828 108.145 12.3828C109.36 12.3828 110.389 11.7976 111.261 10.5654V11.4895C111.261 13.5841 110.205 14.7855 108.409 14.7855C107.538 14.7855 106.693 14.539 105.901 14.0154C105.69 13.8614 105.531 13.7998 105.399 13.7998C105.241 13.7998 105.082 13.8922 104.977 14.1078C104.766 14.5082 104.686 14.693 104.686 14.693L104.66 14.7547L104.713 14.7855C105.795 15.6787 107.036 16.11 108.409 16.11C111.049 16.11 112.581 14.4158 112.581 11.4587V3.60394H111.842C111.604 3.60394 111.234 3.85036 111.234 4.31241ZM111.314 7.97797C111.314 9.94937 109.835 11.1199 108.409 11.1199C106.851 11.1199 105.69 9.76455 105.69 7.97797C105.69 6.16059 106.851 4.86686 108.409 4.86686C109.809 4.83606 111.314 5.91417 111.314 7.97797Z" fill="#0007A8"/>
<path d="M118.812 3.44995C117.65 3.44995 116.752 4.00441 116.119 5.11332V4.31244C116.119 3.85039 115.802 3.66557 115.485 3.66557H114.746V13.2453H116.092L116.066 7.76238C116.066 6.06821 117.043 4.8977 118.442 4.8977C119.815 4.8977 120.607 5.9142 120.607 7.66997V12.5985C120.607 13.0605 120.792 13.2453 121.135 13.2453H121.927V7.26953C121.954 4.9285 120.739 3.44995 118.812 3.44995Z" fill="#0007A8"/>
<path d="M95.6832 3.48074C94.6535 3.48074 93.7294 3.72717 92.7261 4.25082L92.6733 4.28162L92.6997 4.34323C92.6997 4.34323 92.8317 4.77447 92.9373 5.0825C93.0429 5.39053 93.3598 5.42134 93.5974 5.29812C94.2839 4.99009 94.8911 4.83608 95.5776 4.83608C97.0825 4.83608 97.901 5.72937 97.901 7.33113V9.64136C97.901 11.0891 96.7921 12.1056 95.2608 12.1056C94.3103 12.1056 93.2806 11.5511 93.2806 10.319C93.2806 9.14851 94.099 8.50164 95.5776 8.50164H96.2376C96.6337 8.50164 96.8185 8.28602 96.8185 7.85478V7.33113H95.4456C93.2013 7.33113 91.934 8.44004 91.934 10.3498C91.934 11.7976 92.8845 13.3993 95.0231 13.3993C96.1848 13.3993 97.1617 12.8757 97.8746 11.89V12.5368C97.8746 12.9681 98.0594 13.1529 98.4555 13.1529H99.1947V7.30032C99.1683 4.86688 97.9274 3.48074 95.6832 3.48074Z" fill="#0007A8"/>
<path d="M62.4422 3.48074C61.1749 3.48074 60.2772 3.85038 59.4851 4.25082L59.4323 4.31243L59.4587 4.37403C59.4587 4.37403 59.5907 4.80528 59.6963 5.11331C59.8019 5.42134 60.1188 5.45214 60.3564 5.32893C61.0429 5.0209 61.6501 4.86688 62.3366 4.86688C63.8415 4.86688 64.6864 5.76017 64.6864 7.36193V9.64136C64.6864 11.0891 63.5775 12.1056 62.0462 12.1056C61.0957 12.1056 60.0924 11.5511 60.0924 10.319C60.0924 9.14851 60.9108 8.50164 62.363 8.50164H63.0231C63.4191 8.50164 63.6039 8.28602 63.6039 7.85478V7.33113H62.2574C60.0131 7.33113 58.7194 8.44004 58.7194 10.3498C58.7194 11.7976 59.6699 13.3993 61.7821 13.3993C62.9438 13.3993 63.9207 12.8757 64.66 11.89V12.5368C64.66 12.9681 64.8448 13.1529 65.2145 13.1529H65.9537V7.30032C65.9273 4.86688 64.6864 3.48074 62.4422 3.48074Z" fill="#0007A8"/>
<path d="M135.525 7.05389C135.34 6.86907 127.815 0.739255 127.472 0.49283L127.366 0.400421V1.90977C127.366 2.40262 127.578 2.55664 127.842 2.80306L127.894 2.83386C128.264 3.14189 133.624 7.48513 134.337 8.07039C133.624 8.65565 128.185 13.0605 127.842 13.3069C127.419 13.6149 127.393 13.8306 127.393 14.2618V15.7095C127.393 15.7095 135.393 9.2101 135.551 9.05609C135.921 8.74805 136 8.34761 136 8.10119V7.91637C136 7.60834 135.842 7.30031 135.525 7.05389Z" fill="#0007A8"/>
<path d="M130.825 8.74804C131.036 8.74804 131.247 8.65563 131.459 8.47081C131.723 8.25519 131.96 8.07037 131.96 8.07037L132.04 8.00877L131.96 7.94716C131.934 7.91636 128.422 5.08248 128.053 4.80525C127.894 4.65123 127.683 4.62043 127.551 4.71284C127.419 4.80525 127.313 4.95926 127.313 5.20569V6.16058L127.34 6.19139C127.366 6.22219 129.769 8.16278 130.244 8.53242C130.455 8.68643 130.64 8.74804 130.825 8.74804Z" fill="#0007A8"/>
<path d="M18.8515 10.9967C18.561 10.6579 18.1914 10.8735 18.033 11.0275C17.4257 11.6744 16.7393 11.9824 16 11.9824C14.3894 11.9824 13.1221 10.4115 13.1221 8.37846C13.1221 6.37626 14.363 4.80531 15.9208 4.80531C16.8185 4.80531 17.3993 5.26735 17.8746 5.6986C18.2178 6.03743 18.5082 6.06823 18.7459 5.7602C18.9571 5.51378 19.1947 5.20575 19.1947 5.20575L19.2475 5.14414L19.1947 5.08254C18.2706 3.91202 17.2409 3.38837 15.9208 3.38837C13.5709 3.38837 11.6964 5.57538 11.6964 8.37846C11.6964 11.1199 13.5973 13.3686 15.9208 13.3686C17.6369 13.3686 18.6138 12.3521 19.2475 11.4896H19.3003L19.2475 11.428C19.2475 11.428 19.1155 11.3048 18.8515 10.9967Z" fill="#0007A8"/>
<path d="M27.6171 0.153992H26.6931V1.2321C26.6931 1.50933 26.7987 1.84816 27.2739 1.84816H28.198V0.893265C28.2244 0.462022 27.9868 0.153992 27.6171 0.153992Z" fill="#0007A8"/>
<path d="M27.5115 3.63474H26.7458V12.5368C26.7458 12.9065 26.9571 13.1529 27.2475 13.1837V13.2145H28.0924V4.2816C28.1188 3.88116 27.9076 3.63474 27.5115 3.63474Z" fill="#0007A8"/>
<path d="M36.198 4.15841C36.0924 4.49724 34.0858 10.165 33.6897 11.2123C33.3201 10.1342 31.3135 4.46644 31.2079 4.15841C31.0759 3.78877 30.8119 3.57315 30.4686 3.57315H29.5181L29.5709 3.66556C29.5973 3.78877 32.7921 12.3828 32.9241 12.7217C33.0561 13.1221 33.2673 13.2145 33.6105 13.2145H33.769C34.0858 13.2145 34.297 13.0605 34.429 12.7217C34.561 12.3828 37.7558 3.85038 37.7822 3.75797L37.835 3.63476H36.9109C36.5676 3.63476 36.33 3.78877 36.198 4.15841Z" fill="#0007A8"/>
<path d="M44.4621 7.8548H41.3201C40.9769 7.8548 40.7657 8.10123 40.7657 8.50167V9.11773H40.8449C42.3498 9.08692 44.0924 9.08692 44.8053 9.08692C45.2277 9.08692 45.5446 8.96371 45.7822 8.68648C45.9934 8.40926 46.099 7.97801 46.0726 7.48516C45.835 5.02092 44.33 3.41916 42.2706 3.41916C40.0264 3.41916 38.3102 5.57537 38.3102 8.40926C38.3102 11.2739 40.0792 13.3994 42.4291 13.3994C43.802 13.3994 44.8317 12.8449 45.8086 11.6128L45.8614 11.5512L45.8086 11.4896C45.8086 11.4896 45.6238 11.3047 45.4125 11.0891C45.0957 10.7811 44.8053 10.9043 44.6469 11.0891C44.066 11.7052 43.3531 12.0132 42.4819 12.0132C40.9769 12.0132 39.868 10.7503 39.6832 8.8713C39.6832 8.8713 39.6568 8.65568 39.6568 8.37845C39.6568 8.07042 39.6832 7.8548 39.6832 7.8548C39.8416 6.00662 40.8977 4.71289 42.2442 4.71289C43.5908 4.71289 44.5677 5.76019 44.6997 7.36195C44.7261 7.51597 44.6997 7.63918 44.6733 7.70079C44.5941 7.824 44.5413 7.8548 44.4621 7.8548Z" fill="#0007A8"/>
<path d="M6.49505 0.646841C6.33663 0.277204 6.15181 0.153992 5.80858 0.153992H5.49175C5.22772 0.153992 4.9901 0.33881 4.85808 0.616038C4.75247 0.893266 0.105611 12.9681 0.0528053 13.0913L0 13.2145H0.871287C1.24092 13.2145 1.47855 13.0297 1.66337 12.5984C1.82178 12.2288 2.58746 10.1958 2.71947 9.85696H6.12541C6.54785 9.85696 6.81188 9.54893 6.81188 9.08688V8.40922H3.24752L5.65016 2.12539C6.15181 3.41912 9.50495 12.352 9.66336 12.7216C9.87458 13.2145 10.3762 13.2145 10.5347 13.2145H11.3267L11.2739 13.0913C11.2739 12.9681 6.65346 1.04728 6.49505 0.646841Z" fill="#0007A8"/>
<path d="M24.7921 11.8284C24.66 11.736 24.4752 11.7052 24.2904 11.7668C24 11.8592 23.7887 11.9208 23.5247 11.9208C22.6798 11.9208 22.231 11.428 22.231 10.4115V5.02093H24.7921V4.37406C24.7921 3.88121 24.4224 3.63479 24.1056 3.63479H22.2046V0.924119C22.2046 0.492876 21.9406 0.184845 21.5445 0.184845H20.8845V10.6271C20.8845 12.3829 21.7029 13.3686 23.2343 13.3686C23.8152 13.3686 24.4752 13.2145 24.8977 12.9681L24.9241 12.9373V12.9065C24.9241 12.9065 24.9505 12.6293 24.9505 12.2905C24.9769 12.044 24.8713 11.9208 24.7921 11.8284Z" fill="#0007A8"/>
</svg>
