<svg width="20" height="21" viewBox="0 0 20 21" fill="none" xmlns="http://www.w3.org/2000/svg">
<path d="M16.7216 11.0973C16.7109 9.37671 17.593 8.07803 19.3783 7.12161C18.3794 5.86044 16.8703 5.16656 14.8778 5.0306C12.9915 4.89933 10.9299 6.00109 10.1753 6.00109C9.37832 6.00109 7.55048 5.07749 6.11583 5.07749C3.1509 5.11968 0 7.1638 0 11.3224C0 12.5507 0.255048 13.8197 0.765143 15.1293C1.44527 16.8499 3.90011 21.0695 6.46121 20.9991C7.80021 20.971 8.74601 20.1599 10.4888 20.1599C12.1785 20.1599 13.0553 20.9991 14.5484 20.9991C17.1307 20.9663 19.3518 17.1312 20 15.4059C16.5356 13.9666 16.7216 11.1864 16.7216 11.0973ZM13.7141 3.39906C15.1647 1.88003 15.0319 0.496965 14.9894 0C13.7088 0.0656369 12.2264 0.76889 11.3815 1.63624C10.4516 2.56453 9.90436 3.71318 10.0213 5.00716C11.4081 5.10093 12.6727 4.47269 13.7141 3.39906Z" fill="#8E9096"/>
</svg>
