<svg width="195" height="204" viewBox="0 0 195 204" fill="none" xmlns="http://www.w3.org/2000/svg">
<path d="M29.8533 72.4342C28.2917 72.382 26.7637 72.1191 25.3047 71.6678L22.2909 74.7042L16.2932 70.9474L17.7046 66.9074C16.6611 65.7915 15.7568 64.5312 15.027 63.1476L10.7515 63.1626L9.16581 56.2611L13.0169 54.4041C13.0684 52.8408 13.3321 51.3112 13.7835 49.8515L10.7491 46.8351L14.5027 40.8328L18.5402 42.2452C19.655 41.2012 20.9147 40.2965 22.2975 39.5664L22.2824 35.288L29.1787 33.699L31.0342 37.5542C32.5961 37.6055 34.1242 37.8689 35.5831 38.321L38.5976 35.2839L44.596 39.0407L43.1832 43.0813C44.2264 44.1969 45.1304 45.4575 45.8605 46.8407L50.1354 46.8265L51.7223 53.7273L47.8706 55.5842C47.8194 57.1473 47.5557 58.6775 47.104 60.1369L50.139 63.1533L46.3849 69.1556L42.3477 67.7428C41.2329 68.7868 39.9732 69.6916 38.5903 70.4223L38.6051 74.7003L31.7094 76.2881L29.8533 72.4342ZM31.8328 62.4692C35.918 61.5286 38.4685 57.4514 37.5284 53.3622C36.5885 49.274 32.5139 46.7224 28.4287 47.663C24.3425 48.604 21.7927 52.6811 22.7328 56.7697C23.6733 60.8586 27.7467 63.4102 31.8328 62.4692Z" fill="#003342"/>
<path d="M30.6462 20.3308C30.6744 19.4655 30.8196 18.6187 31.068 17.8101L29.3871 16.1415L31.463 12.8169L33.6985 13.5969C34.3151 13.0183 35.0122 12.5169 35.7774 12.1122L35.7674 9.74294L39.5846 8.8616L40.6138 10.9945C41.4788 11.0225 42.3247 11.1675 43.133 11.4171L44.8003 9.7343L48.1222 11.8115L47.3428 14.0494C47.921 14.6665 48.4217 15.3644 48.8264 16.1299L51.1936 16.1196L52.075 19.9403L49.9434 20.97C49.9159 21.8353 49.7706 22.6821 49.5212 23.4904L51.2028 25.1596L49.1269 28.4842L46.8908 27.7035C46.2745 28.2818 45.5774 28.7832 44.8122 29.1886L44.8222 31.5572L41.005 32.4392L39.9761 30.3059C39.1111 30.278 38.2642 30.1326 37.4566 29.883L35.7896 31.5662L32.4674 29.4893L33.2471 27.2511C32.6689 26.634 32.1679 25.9364 31.7632 25.1709L29.3963 25.1809L28.5148 21.3608L30.6462 20.3308ZM36.1597 21.4228C36.6818 23.6858 38.939 25.0974 41.2006 24.5747C43.4625 24.0522 44.872 21.7937 44.3496 19.5304C43.8272 17.2671 41.5706 15.8561 39.3091 16.3789C37.0475 16.9016 35.6376 19.1592 36.1597 21.4228Z" fill="black"/>
<path d="M119.899 81.4961C118.128 79.8823 117.995 77.1412 119.602 75.3748C121.209 73.6082 123.947 73.4839 125.719 75.0977C127.49 76.7116 127.623 79.4524 126.016 81.219C124.41 82.9854 121.671 83.1099 119.899 81.4961Z" fill="black"/>
<path d="M128.394 72.2186C126.507 70.4995 126.365 67.5801 128.076 65.6982C129.788 63.8163 132.705 63.6843 134.592 65.4033C136.479 67.1224 136.621 70.0419 134.909 71.9238C133.198 73.8056 130.28 73.9376 128.394 72.2186Z" fill="black"/>
<path d="M140.894 70.6524C138.891 68.8275 138.74 65.7287 140.557 63.7309C142.374 61.7335 145.471 61.5927 147.473 63.4177C149.476 65.2426 149.627 68.3417 147.81 70.3392C145.993 72.337 142.897 72.4774 140.894 70.6524Z" fill="black"/>
<path d="M151.353 77.8137C149.261 75.9077 149.104 72.6708 151.001 70.5845C152.899 68.4979 156.133 68.3516 158.225 70.2577C160.316 72.1634 160.474 75.3997 158.576 77.4862C156.678 79.5725 153.444 79.7195 151.353 77.8137Z" fill="black"/>
<path d="M155.105 89.9843C152.943 88.0144 152.781 84.6696 154.742 82.5132C156.703 80.3568 160.045 80.2056 162.207 82.1754C164.369 84.1452 164.532 87.4901 162.571 89.6465C160.61 91.8029 157.267 91.9541 155.105 89.9843Z" fill="black"/>
<path d="M149.857 102.148C147.5 100.001 147.323 96.3559 149.46 94.0056C151.598 91.6556 155.24 91.4906 157.597 93.6376C159.953 95.7844 160.13 99.4303 157.993 101.78C155.856 104.131 152.213 104.295 149.857 102.148Z" fill="black"/>
<path d="M119.638 94.0189C117.927 92.4602 117.798 89.8131 119.35 88.1068C120.902 86.4004 123.547 86.2808 125.258 87.8395C126.968 89.3982 127.097 92.0453 125.545 93.7516C123.994 95.458 121.348 95.5777 119.638 94.0189Z" fill="black"/>
<path d="M127.607 103.955C126.019 102.508 125.899 100.052 127.34 98.4675C128.78 96.8839 131.235 96.7728 132.823 98.2194C134.411 99.6661 134.53 102.123 133.09 103.707C131.649 105.291 129.194 105.402 127.607 103.955Z" fill="black"/>
<path d="M140.293 106.371C138.843 105.049 138.733 102.805 140.049 101.359C141.365 99.9116 143.608 99.8101 145.058 101.132C146.509 102.454 146.618 104.698 145.302 106.145C143.986 107.591 141.744 107.693 140.293 106.371Z" fill="black"/>
<path d="M127.71 1.37063L114.225 1.30821C112.417 1.30041 110.944 2.8275 110.937 4.71904L110.925 7.16734C110.918 9.05935 109.445 10.5864 107.637 10.5782L81.3515 10.4556C79.543 10.4478 78.0836 8.90741 78.0914 7.01542L78.1019 4.56757C78.1097 2.67557 76.6498 1.13517 74.8413 1.12691L70.0988 1.10441L58.2963 1.05025C52.4346 1.02363 47.6614 5.75776 47.6366 11.6238L46.9175 181.949C46.8922 187.812 51.6205 192.586 57.4789 192.613L126.893 192.934C132.754 192.961 137.527 188.226 137.552 182.36L138.272 12.0346C138.296 6.17178 133.568 1.39817 127.71 1.37063Z" fill="white"/>
<path d="M127.71 1.37098C127.71 1.37098 127.832 1.37374 128.073 1.38475C128.313 1.40908 128.678 1.38291 129.148 1.47425C130.088 1.58992 131.516 1.90204 133.12 2.86824C133.931 3.32999 134.753 3.99324 135.531 4.84102C136.305 5.68971 137.024 6.74954 137.536 8.0173C138.056 9.28139 138.333 10.7557 138.311 12.3287C138.307 13.8966 138.301 15.566 138.296 17.3341C138.245 31.4832 138.172 51.9537 138.08 77.2483C137.981 102.544 137.862 132.663 137.731 166.107C137.714 170.288 137.696 174.52 137.679 178.802C137.675 179.872 137.671 180.945 137.666 182.021C137.65 183.099 137.576 184.205 137.248 185.251C136.938 186.298 136.501 187.318 135.884 188.231C135.269 189.143 134.523 189.967 133.669 190.67C131.943 192.045 129.784 192.918 127.549 193.019C126.989 193.056 126.436 193.049 125.883 193.045L124.22 193.037C123.11 193.032 121.997 193.027 120.881 193.022C116.419 193.002 111.913 192.981 107.367 192.961C98.2754 192.92 89.0234 192.878 79.6338 192.835C74.9385 192.813 70.2093 192.791 65.4485 192.769C63.0685 192.758 60.6803 192.747 58.2847 192.737C55.8818 192.849 53.3991 192.206 51.3989 190.804C49.39 189.413 47.9117 187.314 47.2274 184.99C46.8591 183.831 46.7954 182.597 46.8 181.404C46.8055 180.209 46.8105 179.015 46.8151 177.824C46.8357 173.058 46.8559 168.324 46.8756 163.624C46.916 154.224 46.9559 144.963 46.9949 135.862C47.0742 117.66 47.1504 100.104 47.2238 83.3796C47.2981 66.655 47.3692 50.7626 47.4352 35.8892C47.4687 28.4524 47.5017 21.2705 47.5329 14.3666C47.537 13.5042 47.5407 12.6454 47.5448 11.7912C47.5522 11.3634 47.5847 10.9324 47.6095 10.5055C47.6856 10.0842 47.72 9.65547 47.831 9.24375C48.225 7.58584 48.9983 6.03625 50.0757 4.76207C51.1613 3.49523 52.5208 2.49323 54.0146 1.84008C55.508 1.17269 57.145 0.941812 58.7264 0.967516C61.8861 0.983583 64.9701 0.999187 67.9761 1.01434C69.4791 1.02214 70.9624 1.02949 72.426 1.03729C73.1575 1.04096 73.8845 1.04463 74.606 1.0483C75.3339 1.01571 76.0865 1.21721 76.6814 1.6372C77.2763 2.05719 77.7326 2.66077 77.9656 3.33917C78.2335 4.01803 78.1665 4.75013 78.172 5.43083C78.1702 5.77646 78.1684 6.12117 78.167 6.4645C78.1665 6.80875 78.1528 7.15025 78.1959 7.47935C78.2784 8.14031 78.555 8.77419 78.9857 9.26945C79.4081 9.7716 79.9879 10.1319 80.6125 10.2889C80.9272 10.3692 81.2427 10.3926 81.5725 10.3876C81.8995 10.389 82.2261 10.3908 82.5504 10.3926C83.8484 10.3995 85.1253 10.4064 86.3801 10.4128C91.4001 10.4394 96.072 10.4647 100.372 10.4872C102.522 10.4991 104.579 10.5101 106.541 10.5211C107.028 10.5143 107.522 10.5473 107.987 10.5083C108.456 10.4564 108.904 10.2967 109.294 10.0539C110.078 9.5701 110.611 8.76409 110.794 7.91264C110.893 7.48623 110.878 7.05156 110.883 6.62102C110.885 6.19139 110.887 5.7682 110.89 5.35097C110.897 4.93603 110.873 4.51972 110.95 4.11442C111.021 3.71142 111.159 3.32724 111.353 2.98161C111.737 2.28622 112.358 1.76205 113.048 1.49399C113.744 1.19472 114.482 1.28881 115.152 1.27734C117.872 1.29433 120.174 1.30901 122.035 1.32095C123.895 1.33426 125.312 1.34482 126.268 1.35216C127.222 1.36042 127.71 1.37098 127.71 1.37098C127.71 1.37098 127.222 1.37694 126.268 1.37649C125.312 1.37465 123.895 1.37236 122.035 1.36914C120.174 1.36317 117.872 1.35675 115.152 1.34849C114.476 1.36134 113.75 1.27138 113.076 1.56513C112.404 1.82906 111.798 2.34176 111.425 3.022C111.236 3.35983 111.102 3.73529 111.034 4.12865C110.959 4.52155 110.982 4.93328 110.977 5.35097C110.976 5.76866 110.975 6.19186 110.973 6.62148C110.97 7.04789 110.986 7.49312 110.885 7.93238C110.699 8.80724 110.153 9.63711 109.345 10.1379C108.944 10.3885 108.482 10.5547 107.998 10.6084C107.51 10.6497 107.033 10.6171 106.54 10.6244C104.579 10.6171 102.522 10.6093 100.372 10.601C96.0715 10.5845 91.3997 10.5661 86.3797 10.5464C85.1248 10.5413 83.8479 10.5363 82.5499 10.5312C82.2252 10.5299 81.8995 10.5285 81.572 10.5271C81.2478 10.5326 80.9029 10.5088 80.5781 10.4257C79.9246 10.2618 79.3182 9.88589 78.8774 9.36263C78.4275 8.84671 78.1385 8.18621 78.0519 7.49771C78.0065 7.15025 78.0207 6.80508 78.0207 6.46358C78.0221 6.12071 78.0225 5.776 78.0239 5.43038C78.0179 4.7382 78.0821 4.03593 77.8248 3.38875C77.601 2.7388 77.1625 2.16275 76.5947 1.76205C76.0209 1.3618 75.321 1.17086 74.6055 1.20253C73.8836 1.19977 73.1571 1.19702 72.4251 1.1938C70.9615 1.18783 69.4787 1.18141 67.9752 1.17498C64.9696 1.16259 61.8852 1.14974 58.7259 1.13643C57.155 1.11302 55.5548 1.34114 54.0834 1.99889C52.6143 2.64287 51.2778 3.62972 50.211 4.87636C49.152 6.13035 48.3933 7.65469 48.0071 9.2846C47.898 9.68944 47.8654 10.1113 47.7897 10.5253C47.7664 10.9462 47.7347 11.3657 47.7274 11.7921C47.7237 12.6459 47.7205 13.5046 47.7173 14.3676C47.6902 21.2714 47.6622 28.4534 47.6333 35.8901C47.5737 50.7635 47.5104 66.6559 47.4435 83.3805C47.3751 100.105 47.3031 117.661 47.2288 135.863C47.1912 144.963 47.1527 154.226 47.1132 163.625C47.0935 168.325 47.0738 173.06 47.0536 177.825C47.049 179.016 47.044 180.21 47.0389 181.405C47.0348 182.596 47.0963 183.785 47.4568 184.923C48.1259 187.196 49.5712 189.248 51.5356 190.608C53.5 191.979 55.8997 192.608 58.2856 192.498C60.6812 192.509 63.0694 192.52 65.4498 192.531C70.2107 192.553 74.9399 192.575 79.6347 192.597C89.0247 192.641 98.2768 192.685 107.368 192.727C111.914 192.748 116.42 192.769 120.883 192.791C121.998 192.796 123.111 192.801 124.222 192.806L125.885 192.814C126.439 192.819 126.993 192.825 127.536 192.789C129.724 192.691 131.836 191.837 133.526 190.492C134.362 189.803 135.093 188.998 135.694 188.106C136.299 187.212 136.727 186.214 137.03 185.189C137.352 184.162 137.423 183.09 137.44 182.021C137.445 180.945 137.45 179.871 137.454 178.801C137.473 174.519 137.492 170.287 137.511 166.106C137.662 132.662 137.797 102.543 137.911 77.2474C138.034 51.9532 138.134 31.4828 138.203 17.3336C138.212 15.5656 138.221 13.8962 138.229 12.3282C138.254 10.763 137.983 9.30204 137.47 8.04438C136.965 6.78351 136.254 5.72781 135.487 4.88095C134.716 4.03593 133.9 3.37222 133.095 2.90955C131.503 1.94106 130.081 1.62159 129.145 1.49812C128.676 1.40311 128.312 1.4256 128.073 1.39714C127.832 1.38154 127.71 1.37098 127.71 1.37098Z" fill="black"/>
<path d="M97.2261 82.581C96.2585 82.8829 95.2635 83.0485 94.2681 83.0845L93.115 85.5869L88.5894 84.5705L88.5343 81.7957C87.6417 81.3361 86.8016 80.7585 86.0403 80.0676L83.4272 80.9912L80.8863 77.1064L82.8203 75.1468C82.496 74.1794 82.3092 73.1869 82.2539 72.1968L79.7099 71L80.6412 66.5244L83.4334 66.525C83.8781 65.6481 84.443 64.8253 85.1232 64.0825L84.1403 61.4677L87.9992 59.0213L90.0117 60.9836C90.979 60.681 91.9745 60.5157 92.9694 60.4805L94.1236 57.9771L98.6488 58.9943L98.7036 61.7685C99.596 62.2284 100.436 62.8065 101.198 63.4965L103.81 62.5742L106.352 66.458L104.417 68.4177C104.742 69.3851 104.929 70.3776 104.984 71.3676L107.528 72.5646L106.597 77.0403L103.804 77.039C103.36 77.9161 102.795 78.7393 102.115 79.4821L103.097 82.0973L99.2394 84.5426L97.2261 82.581ZM96.1697 76.0601C98.4553 74.6109 99.0889 71.5704 97.583 69.2692C96.0771 66.9679 93.0033 66.278 90.7175 67.7266C88.4313 69.1761 87.7987 72.2165 89.3044 74.5171C90.8103 76.8184 93.8835 77.5095 96.1697 76.0601Z" fill="#004BFF"/>
<path d="M96.4009 67.7259C94.1002 66.2865 91.0685 66.9851 89.6297 69.2879C88.1909 71.5907 88.8904 74.6242 91.1905 76.0641C93.4916 77.504 96.5233 76.8045 97.9617 74.5021C99.4005 72.1993 98.7019 69.1658 96.4009 67.7259Z" fill="white"/>
<path d="M78.6925 117.551V114.609H79.2351V117.529C79.2351 118.747 79.8066 119.305 80.8037 119.305C81.8082 119.305 82.3806 118.747 82.3806 117.529V114.609H82.9085V117.551C82.9085 119.026 82.1164 119.79 80.8037 119.79C79.4915 119.79 78.6925 119.026 78.6925 117.551Z" fill="black"/>
<path d="M88.5596 116.37C88.5596 117.464 87.7675 118.124 86.4622 118.124H85.0835V119.746H84.5409V114.609H86.4622C87.7675 114.609 88.5596 115.269 88.5596 116.37ZM88.017 116.37C88.017 115.548 87.474 115.079 86.4475 115.079H85.0835V117.647H86.4475C87.474 117.647 88.017 117.178 88.017 116.37Z" fill="black"/>
<path d="M89.7301 114.609H91.8197C93.4626 114.609 94.5708 115.666 94.5708 117.178C94.5708 118.689 93.4626 119.745 91.8197 119.745H89.7301V114.609ZM91.7913 119.276C93.1553 119.276 94.035 118.41 94.035 117.178C94.035 115.944 93.1553 115.078 91.7913 115.078H90.2736V119.276H91.7913Z" fill="black"/>
<path d="M98.9298 118.374H96.0701L95.4541 119.745H94.89L97.2364 114.609H97.7712L100.118 119.745H99.5458L98.9298 118.374ZM98.7321 117.933L97.5002 115.174L96.2682 117.933H98.7321Z" fill="black"/>
<path d="M101.707 115.078H99.9026V114.609H104.053V115.078H102.25V119.746H101.707V115.078Z" fill="black"/>
<path d="M108.546 119.276V119.745H104.916V114.609H108.436V115.078H105.46V116.906H108.114V117.368H105.46V119.276H108.546Z" fill="black"/>
<path d="M131.733 17.896C131.733 17.9443 129.874 17.9994 127.581 18.0187C125.287 18.0375 123.428 18.0136 123.428 17.9649C123.428 17.9167 125.286 17.8616 127.58 17.8427C129.873 17.8234 131.732 17.8473 131.733 17.896Z" fill="black"/>
<path d="M131.751 20.0225C131.751 20.0708 129.892 20.1259 127.599 20.1452C125.306 20.164 123.447 20.1401 123.446 20.0914C123.446 20.0432 125.304 19.9881 127.598 19.9692C129.891 19.9499 131.75 19.9743 131.751 20.0225Z" fill="black"/>
<path d="M131.768 22.1491C131.769 22.1973 129.91 22.2525 127.617 22.2713C125.323 22.2902 123.464 22.2663 123.464 22.218C123.463 22.1693 125.321 22.1146 127.615 22.0958C129.908 22.077 131.768 22.1009 131.768 22.1491Z" fill="black"/>
<path d="M56.1992 24.5762C56.2025 24.573 56.2616 24.5693 56.3717 24.5647C56.5079 24.5601 56.6657 24.5551 56.8524 24.5487C57.3055 24.5381 57.8981 24.5239 58.6255 24.5064L58.5765 24.5565C58.57 24.1631 58.5632 23.7335 58.5554 23.2694C58.5581 23.0303 58.5352 22.8049 58.5586 22.5291C58.6063 22.2532 58.8516 22.0099 59.1534 21.9819C59.4392 21.976 59.6905 21.9631 60.0006 21.9773C60.3198 22.0163 60.5918 22.3243 60.5822 22.6631C60.5886 23.263 60.5955 23.8895 60.6028 24.5395L60.5207 24.4587C61.239 24.4513 61.9866 24.4435 62.7576 24.4357L62.6727 24.5225C62.6649 23.621 62.6567 22.6883 62.6479 21.7331C62.6461 21.4949 62.6438 21.2581 62.642 21.0226C62.6411 20.8037 62.5076 20.6572 62.3273 20.4938C61.9967 20.1675 61.6696 19.8457 61.349 19.5295C61.0289 19.2132 60.7147 18.9025 60.406 18.5977C60.2519 18.4458 60.0997 18.2948 59.9492 18.1456C59.7919 17.9941 59.6685 17.8376 59.4864 17.8004C59.3098 17.7527 59.1149 17.7903 58.9727 17.8982C58.837 18.0129 58.6934 18.175 58.5567 18.3081C58.2815 18.5862 58.0132 18.8566 57.7541 19.1182C57.2491 19.6433 56.7235 20.1225 56.3414 20.576C56.18 20.8262 56.2405 21.1323 56.2286 21.4114C56.2281 21.6886 56.2272 21.9516 56.2268 22.1999C56.2235 22.6837 56.2213 23.1074 56.219 23.4705C56.2158 23.7954 56.2125 24.0635 56.2098 24.2829C56.207 24.4711 56.2034 24.5716 56.1992 24.5762C56.1951 24.5803 56.1896 24.4881 56.1832 24.3072C56.1772 24.0906 56.1703 23.8266 56.1612 23.5067C56.1534 23.1409 56.1428 22.7136 56.1318 22.2261C56.1277 21.9732 56.1222 21.7047 56.1171 21.4219C56.1148 21.2787 56.1135 21.1319 56.1112 20.9818C56.1098 20.8229 56.1506 20.6586 56.2346 20.5131C56.6483 20.0055 57.1422 19.5566 57.6509 19.0163C57.9082 18.7524 58.1733 18.4802 58.4467 18.1998C58.5902 18.0588 58.7081 17.9189 58.8787 17.772C59.0576 17.6343 59.3034 17.5852 59.5272 17.6439C59.7653 17.6967 59.9199 17.8918 60.0639 18.0286C60.2152 18.1768 60.3689 18.3269 60.5234 18.4784C60.833 18.7818 61.1481 19.0916 61.4697 19.4069C61.7907 19.7227 62.1177 20.0436 62.4493 20.3695C62.5278 20.453 62.6227 20.5232 62.6993 20.6403C62.7718 20.7518 62.8131 20.884 62.8167 21.018C62.819 21.2544 62.8209 21.4922 62.8227 21.7318C62.83 22.6869 62.8369 23.6196 62.8438 24.5211L62.8447 24.6069L62.7594 24.6079C61.9884 24.6125 61.2408 24.6175 60.5225 24.6221L60.4404 24.6226L60.4395 24.5408C60.4363 23.8909 60.4326 23.2644 60.4299 22.664C60.4391 22.3936 60.2294 22.155 59.9781 22.1205C59.7208 22.1072 59.4172 22.116 59.1663 22.1182C58.926 22.138 58.7255 22.3312 58.6842 22.5534C58.6627 22.7783 58.6797 23.0408 58.6751 23.2685C58.6751 23.7325 58.6746 24.1622 58.6751 24.5555V24.606L58.6264 24.6056C57.8866 24.6005 57.284 24.5959 56.8235 24.5932C56.6409 24.59 56.4864 24.5872 56.3533 24.5849C56.2483 24.5822 56.196 24.5794 56.1992 24.5762Z" fill="black"/>
<path d="M111.169 22.7615C111.169 22.8276 104.18 22.8814 95.561 22.8814C86.9383 22.8814 79.9502 22.8276 79.9502 22.7615C79.9502 22.6953 86.9383 22.6425 95.561 22.6425C104.18 22.6425 111.169 22.6953 111.169 22.7615Z" fill="black"/>
<path d="M110.359 167.829H77.5853C73.3991 167.829 70.0065 164.434 70.0065 160.245C70.0065 156.055 73.3991 152.659 77.5853 152.659H110.359C114.545 152.659 117.938 156.055 117.938 160.245C117.938 164.434 114.545 167.829 110.359 167.829Z" fill="white"/>
<path d="M87.7189 161.354L87.9927 160.747C88.2862 160.961 88.7238 161.11 89.1421 161.11C89.62 161.11 89.8136 160.951 89.8136 160.737C89.8136 160.084 87.7886 160.532 87.7886 159.238C87.7886 158.646 88.266 158.152 89.2567 158.152C89.6943 158.152 90.142 158.257 90.4653 158.461L90.2167 159.073C89.8934 158.889 89.5604 158.8 89.2517 158.8C88.7738 158.8 88.5894 158.979 88.5894 159.198C88.5894 159.84 90.6148 159.397 90.6148 160.677C90.6148 161.26 90.1323 161.758 89.137 161.758C88.5848 161.758 88.0275 161.593 87.7189 161.354Z" fill="white"/>
<path d="M92.8375 161.568C92.6779 161.683 92.4444 161.738 92.2054 161.738C91.5734 161.738 91.2051 161.414 91.2051 160.777V159.676H90.7919V159.078H91.2051V158.426H91.9812V159.078H92.6485V159.676H91.9812V160.767C91.9812 160.996 92.1055 161.12 92.3141 161.12C92.4288 161.12 92.543 161.086 92.6279 161.021L92.8375 161.568Z" fill="white"/>
<path d="M95.6423 160.169V161.698H94.9158V161.364C94.7717 161.608 94.4933 161.738 94.0998 161.738C93.4728 161.738 93.0995 161.389 93.0995 160.926C93.0995 160.453 93.4329 160.124 94.2489 160.124H94.8662C94.8662 159.79 94.6667 159.597 94.2489 159.597C93.9654 159.597 93.6719 159.691 93.4779 159.845L93.199 159.302C93.493 159.094 93.9255 158.979 94.3539 158.979C95.1699 158.979 95.6423 159.357 95.6423 160.169ZM94.8662 160.851V160.577H94.3337C93.9705 160.577 93.8563 160.712 93.8563 160.891C93.8563 161.086 94.02 161.215 94.2938 161.215C94.5525 161.215 94.7768 161.095 94.8662 160.851Z" fill="white"/>
<path d="M98.0043 158.979V159.696C97.9396 159.691 97.8896 159.686 97.83 159.686C97.4021 159.686 97.1181 159.92 97.1181 160.433V161.698H96.3421V159.019H97.0833V159.372C97.2723 159.113 97.5915 158.979 98.0043 158.979Z" fill="white"/>
<path d="M100.287 161.568C100.127 161.683 99.8934 161.738 99.6545 161.738C99.0224 161.738 98.6541 161.414 98.6541 160.777V159.676H98.2413V159.078H98.6541V158.426H99.4306V159.078H100.098V159.676H99.4306V160.767C99.4306 160.996 99.5549 161.12 99.7636 161.12C99.8783 161.12 99.9925 161.086 100.077 161.021L100.287 161.568Z" fill="white"/>
<g opacity="0.836858">
<path d="M125.119 131.842C125.119 131.908 111.028 131.962 93.6503 131.962C76.2663 131.962 62.1787 131.908 62.1787 131.842C62.1787 131.776 76.2663 131.723 93.6503 131.723C111.028 131.723 125.119 131.776 125.119 131.842Z" fill="black"/>
</g>
<g opacity="0.896748">
<path d="M112.58 135.703C112.58 135.769 104.104 135.823 93.6497 135.823C83.1919 135.823 74.7173 135.769 74.7173 135.703C74.7173 135.637 83.1919 135.583 93.6497 135.583C104.104 135.583 112.58 135.637 112.58 135.703Z" fill="black"/>
</g>
<path d="M25.4917 192.575L22.7054 202.886L31.7615 203.713L33.6645 193.897L25.4917 192.575Z" fill="#004BFF"/>
<path d="M22.7049 202.886L31.7611 203.713L31.9074 202.956L22.9668 201.82L22.7145 202.783" fill="white"/>
<path d="M27.2043 202.427C27.1469 202.413 27.5327 200.644 28.0652 198.477C28.5981 196.308 29.0756 194.563 29.1324 194.577C29.1898 194.591 28.804 196.359 28.2715 198.528C27.739 200.695 27.2616 202.441 27.2043 202.427Z" fill="black"/>
<path d="M31.5238 202.806C31.4683 202.803 31.8123 202.066 31.5445 200.889C31.4064 200.315 31.1051 199.648 30.5529 199.095C30.0094 198.539 29.1943 198.15 28.2995 198.059C27.4028 197.973 26.5291 198.189 25.8737 198.61C25.2104 199.027 24.7545 199.594 24.4637 200.11C23.8877 201.167 23.9432 201.962 23.8918 201.949C23.8845 201.949 23.8803 201.902 23.879 201.812C23.8744 201.722 23.8817 201.59 23.8996 201.419C23.9377 201.08 24.0519 200.589 24.3307 200.039C24.6146 199.496 25.0765 198.892 25.7686 198.445C26.4539 197.991 27.3771 197.756 28.321 197.847C29.2631 197.943 30.124 198.359 30.6923 198.957C31.2684 199.55 31.566 200.256 31.6908 200.857C31.81 201.464 31.7688 201.971 31.694 202.304C31.655 202.471 31.6192 202.599 31.583 202.682C31.5509 202.766 31.5307 202.808 31.5238 202.806Z" fill="black"/>
<path d="M62.8844 189.808L62.2781 198.968C62.2781 198.968 71.3888 201.994 71.4411 203.698L53.6407 203.827L54.0003 189.515L62.8844 189.808Z" fill="#004BFF"/>
<path d="M56.8003 198.03C56.4531 198.114 56.2036 198.495 56.2729 198.845C56.3421 199.195 56.7265 199.453 57.0751 199.375C57.4236 199.298 57.7374 198.85 57.6291 198.51C57.5209 198.169 57.0535 197.891 56.7334 198.051" fill="white"/>
<path d="M53.6407 203.827L53.6769 202.384L70.8692 202.859C70.8692 202.859 71.4411 203.107 71.5319 203.827H53.6407Z" fill="white"/>
<path d="M62.5689 198.887C62.5634 198.973 62.1281 199 61.6919 199.267C61.2493 199.522 61.0173 199.891 60.9384 199.855C60.859 199.835 61.004 199.319 61.5374 199.006C62.068 198.688 62.59 198.808 62.5689 198.887Z" fill="black"/>
<path d="M64.4122 199.716C64.4297 199.801 64.0485 199.937 63.7426 200.296C63.4257 200.645 63.339 201.041 63.2528 201.035C63.1707 201.046 63.1266 200.534 63.5156 200.096C63.9008 199.654 64.4127 199.633 64.4122 199.716Z" fill="black"/>
<path d="M65.4044 201.983C65.325 201.999 65.2173 201.561 65.4544 201.092C65.6888 200.62 66.1038 200.445 66.1387 200.519C66.1855 200.591 65.9135 200.839 65.7245 201.227C65.5264 201.611 65.4906 201.977 65.4044 201.983Z" fill="black"/>
<path d="M62.4763 196.784C62.4378 196.862 62.042 196.73 61.5498 196.749C61.0577 196.757 60.6706 196.911 60.6275 196.835C60.5793 196.77 60.9623 196.459 61.542 196.446C62.1218 196.428 62.5213 196.717 62.4763 196.784Z" fill="black"/>
<path d="M62.5644 194.933C62.5644 194.969 62.2194 195.013 61.6736 194.901C61.4017 194.846 61.0824 194.747 60.7495 194.587C60.5834 194.506 60.4142 194.412 60.2463 194.3C60.166 194.245 60.0706 194.188 59.984 194.082C59.8904 193.988 59.8418 193.757 59.9574 193.619C60.0528 193.485 60.2156 193.43 60.344 193.431C60.4756 193.43 60.5811 193.461 60.677 193.488C60.8737 193.541 61.0577 193.613 61.2255 193.694C61.5608 193.859 61.8305 194.063 62.0305 194.258C62.4313 194.654 62.563 194.983 62.5327 194.999C62.4928 195.026 62.2997 194.749 61.8892 194.42C61.6847 194.256 61.4218 194.085 61.1081 193.947C60.9508 193.879 60.7816 193.82 60.6018 193.775C60.4146 193.719 60.2546 193.713 60.2037 193.795C60.1853 193.827 60.1826 193.839 60.2202 193.896C60.2596 193.948 60.3344 194 60.4133 194.055C60.5674 194.162 60.7229 194.256 60.8756 194.338C61.181 194.502 61.4746 194.616 61.7268 194.694C62.2323 194.852 62.5671 194.886 62.5644 194.933Z" fill="black"/>
<path d="M62.4473 195.054C62.4161 195.067 62.2533 194.75 62.2382 194.186C62.2317 193.906 62.2712 193.569 62.3895 193.214C62.4496 193.037 62.5294 192.856 62.6326 192.679C62.7422 192.506 62.8766 192.275 63.2146 192.246C63.3908 192.245 63.5329 192.387 63.5793 192.506C63.6343 192.628 63.643 192.732 63.6609 192.836C63.6875 193.045 63.6774 193.248 63.643 193.436C63.5756 193.814 63.4114 194.124 63.2348 194.346C62.8734 194.796 62.5074 194.89 62.5014 194.86C62.4734 194.815 62.7817 194.657 63.061 194.222C63.1986 194.007 63.3238 193.722 63.3678 193.392C63.3908 193.228 63.3935 193.053 63.3674 192.876C63.3453 192.686 63.2788 192.532 63.2073 192.549C63.1192 192.545 62.9642 192.683 62.8867 192.831C62.7908 192.988 62.7133 193.15 62.6519 193.308C62.5308 193.626 62.4725 193.933 62.4523 194.192C62.412 194.714 62.495 195.043 62.4473 195.054Z" fill="black"/>
<path d="M62.8849 110.225L35.7628 110.021L22.6567 196.166L33.913 197.595L48.3387 126.763L52.6564 197.847L52.6679 198.059L64.8411 197.846L62.8849 110.225Z" fill="black"/>
<path d="M50.5485 117.207C50.5402 117.198 50.7352 117.186 51.1094 117.17C51.5153 117.155 52.0616 117.135 52.7404 117.11C54.1939 117.069 56.2101 117.011 58.602 116.944L58.7135 116.941L58.7139 117.054C58.7181 118.756 58.7227 120.66 58.7277 122.68V122.734L58.6878 122.771C58.3622 123.07 58.0163 123.389 57.6668 123.711C56.6225 124.669 55.6121 125.595 54.6571 126.471L54.5773 126.544L54.4971 126.472C53.0055 125.142 51.6447 123.928 50.4847 122.894L50.4517 122.864L50.4522 122.821C50.4733 121.11 50.4907 119.704 50.5031 118.693C50.5132 118.233 50.5214 117.863 50.5274 117.581C50.5347 117.329 50.5416 117.199 50.5485 117.207C50.5554 117.213 50.5623 117.355 50.5696 117.618C50.576 117.906 50.5843 118.283 50.5944 118.752C50.6063 119.749 50.6242 121.135 50.6448 122.821L50.6127 122.749C51.7814 123.773 53.1523 124.976 54.6553 126.293L54.4957 126.295C55.4483 125.417 56.4564 124.488 57.4985 123.527C57.8489 123.206 58.1947 122.888 58.5204 122.589L58.4805 122.68C58.4855 120.66 58.4901 118.756 58.4943 117.054L58.6062 117.163C56.2418 117.186 54.2489 117.205 52.8129 117.218C52.1231 117.219 51.5685 117.22 51.1558 117.22C50.9783 117.218 50.8324 117.217 50.7104 117.216C50.6077 117.214 50.5526 117.211 50.5485 117.207Z" fill="#455964"/>
<path d="M37.7841 116.833C37.7767 116.824 37.9506 116.834 38.2845 116.859C38.6509 116.889 39.139 116.928 39.7435 116.978C41.0506 117.096 42.8605 117.261 45.018 117.456L45.1276 117.466L45.1143 117.577C44.9157 119.242 44.6892 121.139 44.4474 123.163L44.4419 123.213L44.402 123.245C44.0287 123.544 43.6333 123.859 43.2329 124.179C42.2349 124.974 41.2676 125.744 40.3484 126.477L40.2539 126.551L40.1796 126.457C39.0142 124.983 37.9455 123.631 37.0264 122.468L37.0002 122.435L37.0053 122.395C37.2332 120.706 37.4213 119.313 37.5566 118.307C37.6226 117.852 37.6763 117.485 37.7171 117.203C37.7552 116.953 37.7777 116.825 37.7841 116.833C37.79 116.841 37.78 116.984 37.7557 117.246C37.7268 117.535 37.6887 117.912 37.6419 118.378C37.5337 119.373 37.3828 120.749 37.2002 122.418L37.1796 122.345C38.1088 123.5 39.189 124.844 40.3672 126.308L40.1985 126.289C41.1162 125.555 42.0817 124.782 43.0779 123.985C43.4788 123.666 43.8746 123.35 44.2479 123.052L44.2025 123.134C44.4552 121.11 44.6928 119.214 44.9006 117.55L44.9969 117.671C42.871 117.434 41.0878 117.235 39.8008 117.091C39.188 117.017 38.6945 116.958 38.323 116.913C37.979 116.87 37.7914 116.842 37.7841 116.833Z" fill="#455964"/>
<path d="M54.3778 129.909C54.3599 129.939 53.8948 129.701 53.1481 129.311C52.4014 128.92 51.3704 128.381 50.2214 127.807C49.0716 127.233 48.0213 126.733 47.2599 126.371C46.499 126.009 46.0293 125.781 46.0435 125.748C46.0559 125.717 46.5503 125.889 47.331 126.211C48.1121 126.533 49.1784 127.009 50.3324 127.585C51.4855 128.161 52.5069 128.727 53.2334 129.157C53.9604 129.588 54.3943 129.88 54.3778 129.909Z" fill="#455964"/>
<path d="M54.0292 132C54.0191 132.027 53.6517 131.927 53.1036 131.651C52.5565 131.379 51.8396 130.909 51.1695 130.251C50.5017 129.59 50.0219 128.879 49.7408 128.336C49.4578 127.792 49.3518 127.426 49.3789 127.416C49.4505 127.377 50.0261 128.792 51.3433 130.074C52.6441 131.372 54.0673 131.928 54.0292 132Z" fill="#455964"/>
<path d="M61.6856 156.892C61.6998 156.897 61.664 157.059 61.5627 157.342C61.4622 157.625 61.282 158.024 60.9971 158.482C60.4389 159.394 59.3675 160.535 57.8319 161.186C56.2945 161.833 54.7291 161.804 53.6871 161.568C53.1605 161.454 52.7491 161.304 52.4762 161.179C52.2033 161.054 52.0625 160.966 52.0689 160.953C52.0868 160.908 52.6812 161.214 53.7201 161.396C54.7466 161.583 56.2555 161.58 57.7352 160.956C59.2134 160.331 60.2679 159.251 60.8504 158.385C61.4452 157.514 61.6406 156.874 61.6856 156.892Z" fill="#455964"/>
<path d="M59.9023 156.158C59.9142 156.183 59.5349 156.4 58.8657 156.615C58.1993 156.834 57.2375 157.023 56.1674 157.061C55.0974 157.106 54.1315 157.006 53.4421 156.901C52.7523 156.791 52.3349 156.677 52.3409 156.646C52.3523 156.561 54.0521 156.891 56.1583 156.813C57.2091 156.776 58.1511 156.618 58.8176 156.447C59.4858 156.278 59.8862 156.121 59.9023 156.158Z" fill="#455964"/>
<path d="M39.737 156.67C39.7563 156.69 39.4238 157.05 38.7936 157.525C38.1657 158.001 37.2218 158.57 36.0903 158.993C34.9578 159.414 33.8722 159.601 33.0865 159.652C32.299 159.705 31.8128 159.65 31.8142 159.623C31.8142 159.582 32.2981 159.574 33.0686 159.477C33.8392 159.383 34.895 159.172 36.0045 158.761C37.1117 158.346 38.0473 157.814 38.6922 157.382C39.338 156.95 39.71 156.64 39.737 156.67Z" fill="#455964"/>
<path d="M37.3598 156.566C37.375 156.627 36.2627 156.886 34.8726 156.771C33.4815 156.664 32.4247 156.231 32.449 156.174C32.471 156.102 33.537 156.42 34.8923 156.523C36.2458 156.636 37.3493 156.492 37.3598 156.566Z" fill="#455964"/>
<path d="M48.1775 127.358C48.1894 127.385 47.734 127.623 46.9575 127.911C46.1819 128.2 45.0784 128.522 43.829 128.724C42.5783 128.923 41.4284 128.961 40.6014 128.929C39.774 128.897 39.2681 128.815 39.2709 128.785C39.2736 128.747 39.7832 128.767 40.6033 128.754C41.4234 128.741 42.5553 128.675 43.7896 128.478C45.0229 128.279 46.1182 127.988 46.9011 127.745C47.6845 127.501 48.1624 127.322 48.1775 127.358Z" fill="#455964"/>
<path d="M47.4376 124.577C47.506 124.577 47.5649 124.789 47.5685 125.052C47.5717 125.315 47.5194 125.53 47.4504 125.531C47.382 125.532 47.3232 125.32 47.3199 125.056C47.3163 124.792 47.3691 124.578 47.4376 124.577Z" fill="#455964"/>
<path d="M47.4399 122.669C47.5083 122.67 47.563 122.884 47.5616 123.147C47.5598 123.41 47.5028 123.623 47.4344 123.623C47.3654 123.623 47.3112 123.409 47.3126 123.146C47.3144 122.882 47.3714 122.668 47.4399 122.669Z" fill="#455964"/>
<path d="M47.4794 120.761C47.5478 120.763 47.5984 120.978 47.5915 121.241C47.5846 121.504 47.5235 121.716 47.4545 121.715C47.3861 121.713 47.3355 121.498 47.3424 121.235C47.3493 120.971 47.4109 120.759 47.4794 120.761Z" fill="#455964"/>
<path d="M47.5555 118.854C47.624 118.858 47.6704 119.074 47.6584 119.336C47.6465 119.599 47.5808 119.81 47.5123 119.807C47.4439 119.805 47.3975 119.589 47.4094 119.325C47.4214 119.061 47.4871 118.851 47.5555 118.854Z" fill="#455964"/>
<path d="M47.6685 116.949C47.7369 116.954 47.7787 117.17 47.7622 117.433C47.7452 117.696 47.6758 117.905 47.6073 117.901C47.5389 117.897 47.4966 117.681 47.5141 117.417C47.5306 117.154 47.6 116.944 47.6685 116.949Z" fill="#455964"/>
<path d="M47.8183 115.047C47.8868 115.052 47.9245 115.27 47.9024 115.533C47.8804 115.795 47.8068 116.003 47.7379 115.998C47.6695 115.992 47.6322 115.775 47.6543 115.512C47.6759 115.249 47.7499 115.04 47.8183 115.047Z" fill="#455964"/>
<path d="M47.9688 113.489C48.0372 113.496 48.0786 113.638 48.0616 113.805C48.0446 113.973 47.9747 114.104 47.9063 114.097C47.8383 114.091 47.7964 113.949 47.8139 113.78C47.8309 113.612 47.9007 113.481 47.9688 113.489Z" fill="#455964"/>
<path d="M32.6361 195.706C32.7036 195.719 32.716 195.94 32.6646 196.198C32.6127 196.457 32.5162 196.655 32.4486 196.642C32.3815 196.629 32.3687 196.408 32.4206 196.15C32.4725 195.891 32.569 195.693 32.6361 195.706Z" fill="#455964"/>
<path d="M33.0103 193.835C33.0774 193.848 33.0903 194.069 33.0384 194.327C32.9869 194.585 32.8904 194.784 32.8229 194.77C32.7553 194.757 32.7429 194.537 32.7944 194.278C32.8463 194.02 32.9428 193.821 33.0103 193.835Z" fill="#455964"/>
<path d="M33.3841 191.964C33.4517 191.977 33.4641 192.198 33.4126 192.456C33.3607 192.714 33.2642 192.913 33.1967 192.899C33.1296 192.886 33.1167 192.665 33.1686 192.407C33.2206 192.149 33.3171 191.951 33.3841 191.964Z" fill="#455964"/>
<path d="M33.7584 190.092C33.8255 190.105 33.8384 190.327 33.7869 190.585C33.735 190.844 33.6385 191.042 33.5709 191.028C33.5039 191.015 33.491 190.794 33.5429 190.536C33.5944 190.278 33.6913 190.079 33.7584 190.092Z" fill="#455964"/>
<path d="M34.1322 188.222C34.1993 188.235 34.2121 188.456 34.1607 188.714C34.1088 188.972 34.0123 189.17 33.9447 189.157C33.8776 189.144 33.8648 188.923 33.9167 188.665C33.9682 188.407 34.0651 188.208 34.1322 188.222Z" fill="#455964"/>
<path d="M34.506 186.35C34.5731 186.364 34.586 186.584 34.5345 186.842C34.4826 187.101 34.3861 187.299 34.3186 187.286C34.2515 187.272 34.2386 187.052 34.2905 186.794C34.3425 186.535 34.4389 186.337 34.506 186.35Z" fill="#455964"/>
<path d="M34.8802 184.479C34.9473 184.492 34.9602 184.713 34.9087 184.971C34.8568 185.23 34.7603 185.429 34.6928 185.415C34.6257 185.402 34.6128 185.181 34.6647 184.923C34.7167 184.664 34.8132 184.466 34.8802 184.479Z" fill="#455964"/>
<path d="M35.2541 182.608C35.3212 182.621 35.3341 182.842 35.2826 183.1C35.2307 183.359 35.1342 183.557 35.0667 183.544C34.9996 183.53 34.9867 183.31 35.0386 183.052C35.0906 182.793 35.1871 182.595 35.2541 182.608Z" fill="#455964"/>
<path d="M35.6284 180.737C35.6955 180.751 35.7083 180.971 35.6564 181.229C35.605 181.488 35.5085 181.686 35.4409 181.673C35.3734 181.659 35.361 181.439 35.4124 181.181C35.4644 180.922 35.5608 180.724 35.6284 180.737Z" fill="#455964"/>
<path d="M36.0022 178.866C36.0698 178.879 36.0822 179.1 36.0307 179.358C35.9788 179.617 35.8823 179.815 35.8152 179.801C35.7477 179.788 35.7348 179.568 35.7867 179.309C35.8386 179.051 35.9351 178.853 36.0022 178.866Z" fill="#455964"/>
<path d="M36.3764 176.995C36.4435 177.008 36.4563 177.229 36.4049 177.487C36.353 177.745 36.2565 177.944 36.1889 177.93C36.1218 177.917 36.109 177.697 36.1609 177.438C36.2124 177.18 36.3093 176.982 36.3764 176.995Z" fill="#455964"/>
<path d="M36.7502 175.124C36.8173 175.137 36.8302 175.357 36.7787 175.615C36.7268 175.874 36.6303 176.072 36.5628 176.059C36.4957 176.046 36.4828 175.825 36.5347 175.567C36.5862 175.308 36.6831 175.11 36.7502 175.124Z" fill="#455964"/>
<path d="M37.1244 173.252C37.1915 173.266 37.2044 173.486 37.1529 173.744C37.101 174.003 37.0045 174.201 36.937 174.188C36.8699 174.174 36.857 173.954 36.9089 173.696C36.9609 173.437 37.0574 173.239 37.1244 173.252Z" fill="#455964"/>
<path d="M37.4983 171.381C37.5654 171.395 37.5782 171.615 37.5268 171.873C37.4748 172.132 37.3784 172.33 37.3108 172.317C37.2437 172.304 37.2309 172.083 37.2828 171.825C37.3347 171.566 37.4312 171.368 37.4983 171.381Z" fill="#455964"/>
<path d="M37.8725 169.51C37.9396 169.523 37.9524 169.744 37.901 170.002C37.8491 170.261 37.7526 170.459 37.685 170.446C37.6179 170.433 37.6051 170.212 37.657 169.954C37.7089 169.695 37.8054 169.496 37.8725 169.51Z" fill="#455964"/>
<path d="M38.2464 167.639C38.3139 167.652 38.3263 167.873 38.2749 168.131C38.223 168.39 38.1265 168.588 38.0589 168.575C37.9918 168.561 37.979 168.341 38.0309 168.083C38.0828 167.824 38.1793 167.626 38.2464 167.639Z" fill="#455964"/>
<path d="M38.6206 165.768C38.6881 165.782 38.7005 166.002 38.6491 166.26C38.5972 166.519 38.5007 166.717 38.4331 166.704C38.366 166.69 38.3532 166.47 38.4051 166.212C38.457 165.953 38.5535 165.755 38.6206 165.768Z" fill="#455964"/>
<path d="M38.9944 163.897C39.062 163.91 39.0744 164.131 39.0229 164.389C38.971 164.647 38.8745 164.846 38.807 164.832C38.7399 164.819 38.727 164.598 38.7789 164.34C38.8309 164.081 38.9273 163.884 38.9944 163.897Z" fill="#455964"/>
<path d="M39.3686 162.026C39.4357 162.039 39.4486 162.26 39.3971 162.518C39.3452 162.776 39.2487 162.974 39.1812 162.961C39.1141 162.948 39.1012 162.727 39.1531 162.469C39.2046 162.211 39.3016 162.012 39.3686 162.026Z" fill="#455964"/>
<path d="M39.7426 160.155C39.8097 160.168 39.8226 160.388 39.7711 160.647C39.7192 160.905 39.6227 161.103 39.5551 161.09C39.488 161.077 39.4752 160.856 39.5271 160.598C39.5786 160.34 39.6755 160.141 39.7426 160.155Z" fill="#455964"/>
<path d="M40.1168 158.283C40.1839 158.296 40.1968 158.517 40.1453 158.775C40.0934 159.034 39.9969 159.233 39.9293 159.219C39.8623 159.206 39.8494 158.985 39.9013 158.727C39.9532 158.468 40.0497 158.27 40.1168 158.283Z" fill="#455964"/>
<path d="M40.4906 156.412C40.5577 156.426 40.5705 156.647 40.5191 156.905C40.4672 157.163 40.3707 157.361 40.3031 157.348C40.236 157.335 40.2232 157.114 40.2751 156.856C40.327 156.597 40.4235 156.399 40.4906 156.412Z" fill="#455964"/>
<path d="M40.8649 154.542C40.9319 154.555 40.9448 154.775 40.8933 155.034C40.8414 155.292 40.7449 155.49 40.6774 155.477C40.6103 155.464 40.5974 155.243 40.6494 154.985C40.7013 154.727 40.7978 154.528 40.8649 154.542Z" fill="#455964"/>
<path d="M41.2386 152.67C41.3062 152.683 41.3186 152.904 41.2671 153.162C41.2152 153.421 41.1187 153.619 41.0512 153.606C40.9841 153.592 40.9712 153.372 41.0231 153.114C41.0751 152.855 41.1715 152.656 41.2386 152.67Z" fill="#455964"/>
<path d="M41.6129 150.799C41.6804 150.812 41.6929 151.033 41.6414 151.291C41.5895 151.549 41.493 151.748 41.4254 151.734C41.3583 151.721 41.3455 151.501 41.3974 151.242C41.4493 150.984 41.5458 150.786 41.6129 150.799Z" fill="#455964"/>
<path d="M41.9867 148.928C42.0538 148.941 42.0666 149.162 42.0152 149.42C41.9632 149.679 41.8668 149.877 41.7992 149.864C41.7321 149.85 41.7193 149.629 41.7712 149.371C41.8226 149.113 41.9196 148.915 41.9867 148.928Z" fill="#455964"/>
<path d="M42.3609 147.056C42.428 147.07 42.4409 147.291 42.3894 147.549C42.3375 147.808 42.241 148.006 42.1735 147.992C42.1064 147.979 42.0935 147.759 42.1454 147.5C42.1969 147.242 42.2939 147.043 42.3609 147.056Z" fill="#455964"/>
<path d="M42.7347 145.186C42.8018 145.199 42.8147 145.42 42.7632 145.678C42.7113 145.936 42.6148 146.135 42.5473 146.121C42.4802 146.108 42.4673 145.888 42.5192 145.629C42.5712 145.371 42.6676 145.173 42.7347 145.186Z" fill="#455964"/>
<path d="M43.109 143.315C43.1761 143.328 43.1889 143.549 43.1375 143.807C43.0856 144.065 42.9891 144.264 42.9215 144.25C42.8544 144.237 42.8416 144.016 42.8935 143.758C42.9454 143.499 43.0419 143.302 43.109 143.315Z" fill="#455964"/>
<path d="M43.4828 141.443C43.5499 141.456 43.5628 141.677 43.5113 141.935C43.4594 142.194 43.3629 142.392 43.2954 142.379C43.2283 142.365 43.2154 142.145 43.2673 141.887C43.3193 141.628 43.4158 141.43 43.4828 141.443Z" fill="#455964"/>
<path d="M43.8571 139.572C43.9242 139.586 43.9371 139.806 43.8856 140.064C43.8337 140.323 43.7372 140.521 43.6696 140.508C43.6025 140.494 43.5897 140.274 43.6416 140.016C43.6935 139.757 43.79 139.559 43.8571 139.572Z" fill="#455964"/>
<path d="M44.2309 137.701C44.298 137.715 44.3108 137.935 44.2594 138.193C44.2074 138.452 44.111 138.65 44.0434 138.637C43.9763 138.624 43.9635 138.403 44.0154 138.145C44.0673 137.886 44.1638 137.688 44.2309 137.701Z" fill="#455964"/>
<path d="M44.6048 135.83C44.6723 135.843 44.6847 136.064 44.6333 136.322C44.5814 136.581 44.4849 136.779 44.4173 136.765C44.3502 136.752 44.3374 136.532 44.3893 136.273C44.4412 136.015 44.5377 135.817 44.6048 135.83Z" fill="#455964"/>
<path d="M44.9789 133.959C45.046 133.972 45.0589 134.193 45.0074 134.451C44.9555 134.71 44.859 134.908 44.7915 134.895C44.7244 134.881 44.7115 134.661 44.7634 134.403C44.8149 134.144 44.9114 133.946 44.9789 133.959Z" fill="#455964"/>
<path d="M45.3532 132.087C45.4203 132.101 45.4332 132.321 45.3817 132.579C45.3298 132.838 45.2333 133.037 45.1657 133.023C45.0982 133.01 45.0858 132.789 45.1377 132.531C45.1892 132.272 45.2861 132.074 45.3532 132.087Z" fill="#455964"/>
<path d="M45.727 130.216C45.7941 130.23 45.807 130.451 45.7555 130.709C45.7036 130.967 45.6071 131.165 45.5396 131.152C45.4725 131.139 45.4596 130.918 45.5115 130.66C45.563 130.401 45.66 130.203 45.727 130.216Z" fill="#455964"/>
<path d="M46.1013 128.346C46.1684 128.359 46.1813 128.579 46.1298 128.838C46.0779 129.096 45.9814 129.294 45.9138 129.281C45.8467 129.268 45.8339 129.047 45.8858 128.789C45.9377 128.531 46.0342 128.332 46.1013 128.346Z" fill="#455964"/>
<path d="M46.4678 43.2823L46.3976 66.1391L56.1963 66.6064L56.4798 61.047C56.4798 61.047 59.96 61.7387 60.8576 58.5046C61.4314 56.4382 61.2883 40.47 61.2883 40.47L46.4678 43.2823Z" fill="#FFBE9D"/>
<path d="M62.5776 42.0788C61.0342 42.5208 60.6985 45.0453 60.6985 45.0453L58.2777 50.3959C57.0444 49.4297 55.3891 49.4852 55.0758 51.654C54.8493 53.221 56.7958 53.5377 56.7958 53.5377C55.6624 55.4683 54.8937 57.0298 53.243 58.8653C51.457 60.8528 50.4567 61.0529 48.5193 61.0855H46.3834C46.3834 61.0855 45.3381 57.6889 43.4021 49.1947C41.2538 39.7709 52.3886 40.985 54.453 38.5794C57.8149 34.6618 67.4426 40.6848 62.5776 42.0788Z" fill="black"/>
<path d="M43.6053 50.0833C41.8001 48.8697 41.6372 45.4749 42.6903 43.4393C43.7434 41.4031 45.9596 40.0238 48.2497 39.9793C48.5561 39.9733 48.8721 39.988 49.1578 39.8774C49.5816 39.714 49.8559 39.3119 50.1329 38.9516C51.746 36.8526 53.3316 34.7903 56.3381 34.7908C56.8265 34.7908 57.3664 34.7908 58.2282 35.2599C58.6575 35.4935 59.2625 36.2857 59.3638 36.7636C59.9289 36.4955 60.5045 36.2247 61.1228 36.1311C61.741 36.037 62.4199 36.1453 62.8868 36.5616C63.3541 36.9774 63.5266 37.7435 63.1638 38.253C64.177 38.1887 65.1374 39.0283 65.297 40.0316C65.4566 41.0355 64.0201 41.7405 63.8706 41.8185C63.8706 41.8185 64.6586 43.4709 62.7781 44.4614C62.0204 44.8603 61.0365 44.3797 60.9246 44.3219" fill="black"/>
<path d="M50.7599 52.281C50.8232 52.2746 50.9205 53.0673 50.7035 54.0165C50.493 54.9671 50.0655 55.6418 50.0114 55.6088C49.9458 55.5757 50.26 54.8753 50.4618 53.9619C50.6705 53.0503 50.6865 52.2829 50.7599 52.281Z" fill="#455964"/>
<path d="M51.9446 51.1592C52.0107 51.162 52.0249 51.9179 51.8534 52.83C51.685 53.7429 51.3993 54.4424 51.3365 54.4213C51.2686 54.4002 51.4438 53.6796 51.6094 52.7845C51.7772 51.8904 51.874 51.1551 51.9446 51.1592Z" fill="#455964"/>
<path d="M55.3386 47.3871C55.362 47.4197 55.0845 47.6221 54.7323 48.0357C54.3768 48.4442 53.9723 49.0841 53.6765 49.8593C53.3797 50.6355 53.2169 51.3786 53.0908 51.9147C52.9678 52.4527 52.883 52.7854 52.8481 52.7795C52.8156 52.7735 52.839 52.4316 52.9183 51.8821C53.0009 51.335 53.1385 50.5721 53.4448 49.7698C53.7508 48.967 54.1998 48.3097 54.6034 47.9164C55.0047 47.517 55.3244 47.3628 55.3386 47.3871Z" fill="#455964"/>
<path d="M56.7104 44.8186C56.7389 44.8107 56.8393 45.0402 56.9008 45.4377C56.9627 45.8329 56.9645 46.3989 56.8155 46.9974C56.6646 47.596 56.3958 48.0944 56.155 48.4139C55.9138 48.7357 55.717 48.8903 55.6959 48.8701C55.6344 48.8229 56.2976 48.0853 56.5747 46.9378C56.871 45.7953 56.6343 44.8309 56.7104 44.8186Z" fill="#455964"/>
<path d="M45.0161 50.5283C44.9826 50.5881 44.6827 50.4842 44.346 50.2958C44.0094 50.107 43.7635 49.9057 43.797 49.846C43.8305 49.7858 44.1304 49.8901 44.4671 50.0785C44.8037 50.2669 45.0496 50.4686 45.0161 50.5283Z" fill="#455964"/>
<path d="M49.7499 48.0871C49.8146 48.0967 49.7747 48.581 49.4701 49.0813C49.1688 49.5843 48.7592 49.8451 48.7207 49.7918C48.6743 49.7372 48.9821 49.415 49.2577 48.9528C49.5384 48.4942 49.6802 48.0715 49.7499 48.0871Z" fill="#455964"/>
<path d="M51.2062 47.3045C51.2695 47.3187 51.1668 47.8989 50.7701 48.4924C50.3775 49.0891 49.8835 49.409 49.8459 49.3562C49.7995 49.3007 50.1958 48.9156 50.5637 48.3551C50.9366 47.7988 51.137 47.2834 51.2062 47.3045Z" fill="#455964"/>
<path d="M58.441 37.7325C58.424 37.7523 58.2575 37.5925 57.9039 37.3915C57.5503 37.1973 56.9862 36.9848 56.2624 36.9669C55.5455 36.9444 54.6644 37.1152 53.8531 37.6146C53.0413 38.113 52.3235 38.925 51.802 39.9018C51.4217 40.6109 51.1594 41.3499 50.969 42.0448L50.9301 42.1885L50.798 42.1192C50.0701 41.7368 49.3005 41.5688 48.612 41.5597C47.9213 41.5404 47.3131 41.6675 46.832 41.8286C45.8637 42.1596 45.4046 42.5952 45.3789 42.5557C45.3716 42.547 45.4812 42.4377 45.7073 42.2652C45.9353 42.0953 46.2926 41.8755 46.7824 41.6877C47.2709 41.5018 47.8956 41.3517 48.6143 41.3559C49.3298 41.3504 50.1393 41.5124 50.9103 41.909L50.7393 41.9838C50.9264 41.2733 51.191 40.515 51.5827 39.7838C52.1207 38.7768 52.8734 37.9322 53.7347 37.4186C54.5979 36.9036 55.5221 36.7457 56.2697 36.7916C57.0247 36.8333 57.6044 37.0821 57.9535 37.3084C58.1255 37.4291 58.2539 37.5264 58.3291 37.6077C58.4084 37.6839 58.447 37.7261 58.441 37.7325Z" fill="#455964"/>
<path d="M63.5935 38.9764C63.5761 38.9718 63.8664 38.903 64.1558 39.2311C64.2884 39.3895 64.4099 39.6392 64.3815 39.9472C64.3516 40.2547 64.1393 40.5719 63.8118 40.7615C63.4894 40.9588 63.0481 41.0249 62.6216 40.9253C62.1923 40.8317 61.7795 40.604 61.3933 40.3295C61.0039 40.0569 60.6297 39.7397 60.1921 39.5056C59.7555 39.2683 59.2638 39.0953 58.7446 38.9961C57.7016 38.802 56.6655 38.919 55.7904 39.199C54.9102 39.4813 54.1796 39.9054 53.6067 40.3098C52.4628 41.1328 51.8982 41.8217 51.8634 41.7859C51.8519 41.7763 51.9826 41.5982 52.2509 41.3031C52.5215 41.0111 52.9307 40.5994 53.5031 40.168C54.0736 39.7379 54.8134 39.2858 55.7197 38.9814C56.6224 38.6794 57.6988 38.5491 58.7904 38.7524C59.334 38.8557 59.8509 39.0393 60.3091 39.2922C60.7723 39.5451 61.1507 39.8737 61.5259 40.1432C61.8983 40.4154 62.2799 40.6311 62.6675 40.7243C63.0532 40.822 63.433 40.7734 63.7247 40.6091C64.0173 40.4521 64.2067 40.184 64.2434 39.9302C64.281 39.6718 64.1879 39.4409 64.0801 39.2913C63.8471 38.9792 63.5806 39.0039 63.5935 38.9764Z" fill="#455964"/>
<path d="M36.0361 68.5323L27.2849 83.2401C26.3057 84.9554 25.3994 86.7849 24.5344 88.6806C23.8367 90.4969 24.2404 92.8676 25.4581 94.375L25.2109 94.0188C26.1814 95.22 27.6422 95.9181 29.1861 95.9181H29.4126C31.4468 95.9181 33.2878 94.711 34.0996 92.8438L36.9112 88.5746L36.0361 68.5323Z" fill="#004BFF"/>
<path d="M62.4419 65.7223C60.0927 64.5216 57.7728 64.2499 55.2419 64.1764C52.2951 64.0906 48.1406 63.678 44.9648 64.0158C44.9648 64.0158 35.9169 64.6864 35.2886 70.8921L36.5242 100.039L34.4525 112.387L63.4496 113.265L63.2418 98.6946C63.6 91.1142 62.8355 80.381 62.8355 80.381C63.2817 76.306 65.5099 74.4713 65.8264 71.822C66.1061 69.4793 64.5412 66.7955 62.4419 65.7223Z" fill="#004BFF"/>
<path d="M54.2687 100.458C54.2783 100.468 54.1325 100.619 53.8421 100.862C53.5523 101.105 53.1078 101.43 52.5198 101.769C51.3548 102.449 49.539 103.132 47.4508 103.169C45.3616 103.206 43.5233 102.588 42.3344 101.949C41.735 101.631 41.2795 101.322 40.9814 101.089C40.6828 100.857 40.5319 100.712 40.5411 100.7C40.57 100.66 41.2117 101.204 42.4138 101.792C43.6045 102.381 45.4074 102.956 47.4462 102.92C49.4844 102.884 51.2663 102.246 52.435 101.615C53.6156 100.985 54.2389 100.419 54.2687 100.458Z" fill="black"/>
<path d="M35.2441 71.2249C35.2528 71.2249 35.2638 71.3226 35.2776 71.509C35.2909 71.722 35.3069 71.9914 35.3271 72.3232C35.3615 73.0641 35.4078 74.0798 35.4656 75.3201C35.5729 77.8804 35.7188 81.3614 35.8798 85.2074C36.0541 89.0543 36.2114 92.5344 36.327 95.0938C36.3903 96.334 36.4421 97.3493 36.4797 98.0892C36.4939 98.4211 36.5054 98.691 36.5146 98.9044C36.5196 99.0907 36.5182 99.1894 36.5095 99.1904C36.5008 99.1908 36.4852 99.094 36.4641 98.9085C36.4425 98.696 36.4164 98.4266 36.3829 98.0961C36.315 97.3906 36.2398 96.3689 36.1518 95.1048C35.9802 92.5771 35.794 89.0813 35.6312 85.2179C35.4679 81.3564 35.3551 77.8588 35.2904 75.326C35.2652 74.0844 35.2445 73.0677 35.2299 72.3265C35.2289 71.9941 35.228 71.7238 35.2271 71.5104C35.2294 71.3235 35.2354 71.2249 35.2441 71.2249Z" fill="black"/>
<path d="M33.4282 72.768C33.4355 72.7721 33.4011 72.8506 33.3282 72.9957C33.2401 73.1641 33.1314 73.3711 32.9993 73.6231C32.7067 74.1638 32.2719 74.9404 31.7137 75.8878C30.6129 77.7918 28.9576 80.3415 27.2849 83.2401C26.4493 84.6882 25.7397 86.1221 25.1256 87.4317C24.5169 88.7394 24.2028 90.0232 24.2826 91.1096C24.3445 92.1952 24.666 93.0388 24.954 93.5708C25.2416 94.1092 25.4787 94.3589 25.4581 94.375C25.4517 94.3805 25.3916 94.3203 25.2824 94.1992C25.1774 94.0752 25.0288 93.8852 24.8701 93.6185C24.5504 93.0907 24.194 92.236 24.1078 91.1202C24.001 90.0035 24.3115 88.665 24.9169 87.338C25.5251 86.012 26.2282 84.5749 27.0694 83.1171C28.749 80.207 30.4253 77.6761 31.5633 75.7974C32.1196 74.8826 32.5774 74.1312 32.9159 73.5749C33.064 73.3326 33.1855 73.1329 33.2846 72.9704C33.3713 72.8336 33.4204 72.7639 33.4282 72.768Z" fill="black"/>
<path d="M79.7157 87.0645C79.6763 87.0677 79.6442 86.7239 79.4772 86.2048C79.3103 85.6893 78.9787 84.9976 78.404 84.4041C77.8385 83.8033 77.1514 83.4379 76.6198 83.4269C76.0841 83.3998 75.7869 83.6142 75.769 83.577C75.7438 83.5632 76.0254 83.2717 76.6217 83.2511C77.2179 83.2157 77.9912 83.5995 78.5829 84.232C79.192 84.8613 79.5171 85.6085 79.646 86.1566C79.7754 86.7106 79.7442 87.0645 79.7157 87.0645Z" fill="black"/>
<path d="M59.6839 66.8189C59.6894 66.8253 59.6335 66.8896 59.5225 67.0052C59.461 67.0686 59.3932 67.1384 59.317 67.2168C59.239 67.3105 59.1537 67.4138 59.0602 67.5267C58.6877 67.9985 58.1979 68.7444 57.8975 69.784C57.5778 70.8127 57.4512 72.1208 57.6429 73.5331C57.7411 74.2391 57.9145 74.9721 58.2199 75.6813C58.5167 76.3982 58.9093 77.1092 59.3042 77.8372C60.9471 80.7234 62.6377 83.2213 63.8609 85.0238C64.4668 85.8954 64.9649 86.6119 65.3341 87.143C65.6845 87.6419 65.8822 87.915 65.8671 87.9269C65.8602 87.9324 65.8029 87.8705 65.6988 87.7479C65.5951 87.6254 65.4433 87.4427 65.2566 87.2008C64.8791 86.7211 64.3521 86.012 63.7169 85.1243C62.4547 83.3443 60.7398 80.8602 59.0877 77.9588C58.69 77.2249 58.2961 76.5107 57.9952 75.7754C57.6824 75.0405 57.5099 74.2859 57.4164 73.5634C57.2324 72.1158 57.3815 70.7782 57.7305 69.7322C58.0598 68.6742 58.5845 67.9246 58.9859 67.4647C59.0872 67.3555 59.179 67.2559 59.2629 67.1654C59.3468 67.0929 59.4216 67.0282 59.489 66.9694C59.6119 66.8643 59.6784 66.8125 59.6839 66.8189Z" fill="black"/>
<path d="M59.7013 109.013C59.704 109.021 59.6329 109.051 59.4963 109.102C59.3307 109.159 59.1326 109.228 58.8936 109.31C58.6317 109.401 58.3088 109.505 57.9286 109.606C57.5488 109.711 57.1195 109.841 56.6347 109.946C55.672 110.183 54.5098 110.4 53.2095 110.575C51.9078 110.736 50.4681 110.846 48.9531 110.856C47.4382 110.855 45.9971 110.753 44.6945 110.599C43.3933 110.431 42.2292 110.221 41.2652 109.989C40.7799 109.888 40.3497 109.759 39.9695 109.657C39.5883 109.558 39.265 109.456 39.0026 109.367C38.7636 109.286 38.5646 109.218 38.3986 109.162C38.2614 109.112 38.1912 109.082 38.1935 109.074C38.1963 109.066 38.272 109.08 38.4137 109.114C38.5829 109.158 38.7857 109.211 39.0301 109.274C39.2957 109.348 39.6218 109.437 40.0048 109.523C40.3864 109.611 40.8175 109.728 41.3028 109.818C42.2669 110.026 43.4268 110.217 44.7207 110.372C46.0168 110.512 47.4478 110.607 48.9522 110.607C50.4562 110.598 51.8862 110.495 53.181 110.348C54.474 110.186 55.6326 109.989 56.5953 109.774C57.0805 109.682 57.5112 109.563 57.8928 109.472C58.2749 109.384 58.6001 109.294 58.8656 109.218C59.1092 109.153 59.3123 109.099 59.4816 109.054C59.6229 109.019 59.6985 109.005 59.7013 109.013Z" fill="black"/>
<path d="M34.7202 91.9019L36.0301 89.8681L35.3467 73.8513L34.7202 91.9019Z" fill="black"/>
<path d="M57.337 72.768C57.337 72.768 57.3796 78.6051 58.7276 80.9171C60.0756 83.229 63.2298 88.2257 63.2188 87.9274C63.2082 87.629 63.0399 83.8078 63.0399 83.8078C63.0399 83.8078 57.3645 76.0347 57.337 72.768Z" fill="black"/>
<path d="M57.4443 73.7342C57.4388 73.7576 57.1292 73.6745 56.5596 73.6277C55.9908 73.5818 55.1547 73.6015 54.1617 73.8466C53.1683 74.083 52.0299 74.5361 50.8356 75.1777C49.6339 75.8061 48.362 76.6048 46.9218 77.2639C45.4858 77.9363 43.9832 78.2769 42.6141 78.3618C41.2405 78.4389 40.0016 78.2774 38.9972 78.024C37.9895 77.7761 37.2139 77.4411 36.6993 77.179C36.4379 77.056 36.248 76.9348 36.1168 76.8581C35.9866 76.7797 35.921 76.7351 35.9251 76.7278C35.9361 76.7076 36.215 76.8632 36.7397 77.095C37.2621 77.3291 38.0368 77.6357 39.0357 77.8597C40.0315 78.0887 41.2515 78.2292 42.5995 78.142C43.9452 78.0456 45.4078 77.7087 46.8232 77.0463C48.2428 76.3968 49.5178 75.6051 50.7337 74.9827C51.9432 74.3465 53.1082 73.9003 54.1241 73.6814C55.14 73.4533 55.9941 73.4602 56.5683 73.535C56.8559 73.5731 57.0769 73.6176 57.2233 73.6612C57.37 73.7016 57.4462 73.7259 57.4443 73.7342Z" fill="white"/>
<path d="M63.0816 89.6147C63.0839 89.6225 62.9931 89.6528 62.817 89.7028C62.64 89.7464 62.384 89.8396 62.0405 89.8961C61.3612 90.0462 60.3526 90.1595 59.1074 90.1292C57.8612 90.104 56.3876 89.8883 54.7864 89.5215C53.1843 89.1543 51.4575 88.6288 49.6458 88.0954C47.8345 87.5666 46.0829 87.154 44.4653 86.9442C42.849 86.7413 41.3707 86.7257 40.153 86.9093C38.9352 87.0865 37.978 87.3959 37.3506 87.6809C36.7204 87.9591 36.3883 88.1537 36.3759 88.1317C36.3718 88.1243 36.4516 88.0724 36.6089 87.9788C36.7699 87.8934 36.9915 87.7319 37.3125 87.5965C37.9335 87.2825 38.8967 86.9429 40.1282 86.7423C41.3602 86.5343 42.8586 86.532 44.4928 86.7253C46.1279 86.9249 47.8946 87.3348 49.7127 87.8659C51.5272 88.4002 53.2471 88.9299 54.8364 89.3067C56.4252 89.6826 57.8814 89.9135 59.1138 89.9599C60.3448 90.0117 61.3447 89.9254 62.024 89.8047C62.7037 89.689 63.0757 89.5917 63.0816 89.6147Z" fill="white"/>
<path d="M63.2418 98.6951C63.2202 98.7717 61.8823 97.907 59.4262 97.6665C58.208 97.5338 56.7412 97.6054 55.1327 97.8147C53.5233 98.0341 51.7717 98.4027 49.9215 98.7502C48.0726 99.0962 46.3004 99.4006 44.6703 99.5428C43.0416 99.6893 41.5588 99.6792 40.3296 99.5139C39.1004 99.3547 38.1281 99.0838 37.4836 98.8314C37.1557 98.7217 36.9181 98.59 36.7512 98.5197C36.5865 98.4431 36.5021 98.399 36.5058 98.3917C36.515 98.3701 36.8649 98.5234 37.5144 98.7433C38.1629 98.9673 39.1316 99.2101 40.3493 99.3464C41.5675 99.4882 43.0343 99.4809 44.6501 99.3234C46.2674 99.1706 48.03 98.8608 49.8779 98.5151C51.7235 98.1686 53.4816 97.8051 55.1038 97.5962C56.7256 97.397 58.2112 97.3419 59.4441 97.4985C60.6765 97.6463 61.6484 97.9368 62.2823 98.215C62.6074 98.3338 62.8372 98.4793 63.0019 98.556C63.1629 98.6404 63.2454 98.6877 63.2418 98.6951Z" fill="white"/>
<path d="M48.3336 110.398C48.3235 110.411 48.1607 110.307 47.8758 110.109C47.5924 109.909 47.1778 109.625 46.6613 109.283C45.6293 108.598 44.1639 107.71 42.466 106.881C40.7657 106.056 39.1632 105.451 37.9872 105.061C37.3997 104.865 36.9208 104.714 36.5888 104.614C36.2567 104.513 36.0746 104.449 36.0787 104.433C36.0829 104.417 36.2723 104.45 36.6126 104.524C36.9529 104.596 37.4405 104.724 38.0381 104.899C39.2325 105.25 40.8579 105.835 42.5706 106.667C44.2809 107.501 45.744 108.419 46.7567 109.144C47.264 109.505 47.6648 109.811 47.9318 110.035C48.2001 110.256 48.3437 110.385 48.3336 110.398Z" fill="white"/>
<path d="M62.4529 110.242C62.4653 110.264 62.1186 110.495 61.4893 110.726C60.8632 110.958 59.9422 111.156 58.9153 111.127C57.8884 111.093 56.9816 110.838 56.3707 110.568C55.757 110.299 55.4249 110.047 55.4392 110.025C55.4589 109.99 55.818 110.188 56.4331 110.411C57.0458 110.635 57.9278 110.855 58.9227 110.887C59.9175 110.916 60.8114 110.751 61.437 110.565C62.0644 110.381 62.435 110.206 62.4529 110.242Z" fill="white"/>
<path d="M58.0269 64.1769C58.0328 64.192 57.7962 64.2981 57.3614 64.4762C56.9284 64.6593 56.2876 64.8893 55.4855 65.1399C54.6837 65.3942 53.7128 65.6434 52.623 65.8665C51.5309 66.0776 50.3192 66.2552 49.0386 66.3535C47.7571 66.4434 46.5316 66.4443 45.4207 66.3952C44.3099 66.3342 43.3127 66.2295 42.483 66.0946C41.6529 65.9638 40.9851 65.8302 40.5301 65.7122C40.0742 65.5993 39.8247 65.5296 39.8288 65.5135C39.8325 65.4974 40.0888 65.5364 40.5493 65.6214C41.0084 65.7109 41.6776 65.8187 42.5064 65.9271C43.3348 66.04 44.3268 66.1267 45.4303 66.1754C46.5339 66.2121 47.7498 66.2043 49.0212 66.1152C50.2921 66.0175 51.4947 65.8476 52.5813 65.6498C53.6655 65.4405 54.6347 65.2101 55.4373 64.9778C56.2413 64.7493 56.8876 64.5445 57.3293 64.3889C57.7723 64.2379 58.0209 64.1613 58.0269 64.1769Z" fill="white"/>
<path d="M58.291 109.375C58.7703 109.158 58.9124 108.504 58.612 108.125C58.3116 107.747 57.7736 107.663 57.2906 107.672C54.9217 107.719 52.8541 109.306 50.5232 109.732C48.75 110.056 46.9223 109.69 45.1977 109.167C43.4727 108.643 41.7894 107.96 40.0186 107.625C39.648 107.555 39.2618 107.501 38.8981 107.6C38.5344 107.698 38.1973 107.985 38.1514 108.359C38.1055 108.734 38.194 109.011 38.7513 109.202C38.7513 109.202 44.6175 110.833 48.8647 110.77C53.37 110.703 58.291 109.375 58.291 109.375Z" fill="black"/>
<path d="M148.519 181.152H180.516V176.753H148.519V181.152Z" fill="black"/>
<path d="M180.57 181.207H148.465V176.698H180.57V181.207ZM148.574 181.098H180.46V176.807H148.574V181.098Z" fill="black"/>
<path d="M151.486 179.688L156.092 202.425H173.132L177.584 181.152L151.486 179.688Z" fill="black"/>
<path d="M151.486 200.275L153.942 203.655H174.655L177.584 200.275H151.486Z" fill="#455964"/>
<path d="M163.317 180.352C163.253 180.352 163.173 169.818 163.136 156.827C163.099 143.831 163.121 133.298 163.184 133.298C163.247 133.298 163.327 143.83 163.364 156.826C163.401 169.817 163.38 180.352 163.317 180.352Z" fill="black"/>
<path d="M170.443 153.991C170.451 153.994 170.42 154.078 170.357 154.236C170.282 154.414 170.188 154.64 170.071 154.918C170.008 155.068 169.938 155.231 169.863 155.409C169.797 155.594 169.727 155.794 169.65 156.007C169.573 156.222 169.49 156.451 169.403 156.692C169.318 156.936 169.25 157.201 169.167 157.475C168.817 158.566 168.54 159.905 168.273 161.395C168.04 162.892 167.864 164.55 167.776 166.297C167.621 169.796 167.819 172.968 168.03 175.253C168.133 176.396 168.236 177.32 168.312 177.958C168.345 178.257 168.371 178.5 168.392 178.693C168.408 178.862 168.413 178.951 168.406 178.953C168.397 178.954 168.378 178.867 168.348 178.701C168.315 178.509 168.274 178.267 168.224 177.97C168.121 177.335 167.992 176.413 167.869 175.269C167.616 172.984 167.393 169.802 167.549 166.286C167.637 164.531 167.819 162.864 168.065 161.36C168.346 159.863 168.641 158.52 169.012 157.427C169.102 157.153 169.175 156.888 169.267 156.645C169.36 156.404 169.448 156.176 169.531 155.961C169.613 155.75 169.691 155.551 169.763 155.367C169.842 155.188 169.922 155.028 169.991 154.882C170.123 154.611 170.231 154.391 170.316 154.216C170.393 154.065 170.437 153.987 170.443 153.991Z" fill="black"/>
<path d="M169.625 145.471C169.633 145.474 169.597 145.594 169.523 145.819C169.44 146.062 169.329 146.388 169.19 146.798C169.116 147.012 169.034 147.248 168.945 147.504C168.866 147.767 168.78 148.05 168.688 148.355C168.501 148.964 168.284 149.657 168.091 150.436C167.989 150.825 167.882 151.231 167.77 151.654C167.674 152.081 167.574 152.526 167.47 152.986C167.246 153.903 167.086 154.899 166.879 155.939C166.526 158.031 166.216 160.344 166.002 162.784C165.8 165.225 165.712 167.558 165.681 169.681C165.675 171.803 165.701 173.716 165.788 175.32C165.816 176.122 165.868 176.846 165.909 177.483C165.946 178.12 165.986 178.668 166.026 179.115C166.06 179.547 166.085 179.891 166.105 180.147C166.12 180.384 166.124 180.508 166.117 180.509C166.109 180.51 166.089 180.387 166.059 180.152C166.029 179.896 165.988 179.554 165.938 179.124C165.884 178.678 165.831 178.129 165.782 177.493C165.728 176.856 165.666 176.132 165.628 175.328C165.52 173.723 165.476 171.807 165.47 169.679C165.49 167.552 165.572 165.212 165.774 162.764C165.989 160.318 166.307 157.999 166.672 155.903C166.885 154.86 167.054 153.862 167.286 152.944C167.395 152.484 167.498 152.04 167.599 151.611C167.716 151.188 167.828 150.782 167.935 150.394C168.139 149.615 168.368 148.923 168.566 148.316C168.665 148.013 168.757 147.731 168.842 147.469C168.938 147.215 169.027 146.981 169.107 146.768C169.263 146.364 169.388 146.043 169.481 145.802C169.568 145.582 169.618 145.469 169.625 145.471Z" fill="black"/>
<path d="M161.292 182.215C161.288 182.216 161.282 182.174 161.274 182.092C161.266 181.997 161.256 181.878 161.244 181.73C161.221 181.394 161.19 180.927 161.15 180.335C161.073 179.106 160.963 177.357 160.828 175.204C160.551 170.872 160.149 164.888 159.421 158.307C159.049 155.017 158.617 151.892 158.168 149.058C157.93 147.644 157.714 146.298 157.468 145.046C157.243 143.791 157.001 142.628 156.777 141.566C156.567 140.502 156.332 139.549 156.144 138.708C155.959 137.867 155.779 137.146 155.63 136.558C155.489 135.981 155.377 135.528 155.298 135.201C155.264 135.056 155.237 134.939 155.216 134.846C155.199 134.766 155.193 134.724 155.197 134.723C155.2 134.722 155.214 134.761 155.239 134.84C155.265 134.931 155.3 135.046 155.341 135.189C155.432 135.513 155.556 135.964 155.716 136.536C155.878 137.121 156.071 137.839 156.268 138.678C156.468 139.518 156.715 140.469 156.935 141.532C157.169 142.593 157.42 143.756 157.653 145.011C157.907 146.263 158.131 147.609 158.376 149.024C158.837 151.86 159.275 154.988 159.647 158.282C160.376 164.87 160.752 170.86 160.99 175.194C161.107 177.362 161.189 179.117 161.238 180.33C161.26 180.924 161.277 181.391 161.289 181.728C161.292 181.876 161.295 181.996 161.297 182.091C161.297 182.173 161.296 182.215 161.292 182.215Z" fill="black"/>
<path d="M180.568 181.134C180.568 181.197 173.382 181.247 164.518 181.247C155.652 181.247 148.467 181.197 148.467 181.134C148.467 181.071 155.652 181.02 164.518 181.02C173.382 181.02 180.568 181.071 180.568 181.134Z" fill="#455964"/>
<path d="M175.569 190.389C175.569 190.452 170.726 190.503 164.754 190.503C158.78 190.503 153.939 190.452 153.939 190.389C153.939 190.326 158.78 190.275 164.754 190.275C170.726 190.275 175.569 190.326 175.569 190.389Z" fill="#455964"/>
<path d="M175.758 191.713C175.758 191.776 170.915 191.827 164.943 191.827C158.969 191.827 154.127 191.776 154.127 191.713C154.127 191.65 158.969 191.599 164.943 191.599C170.915 191.599 175.758 191.65 175.758 191.713Z" fill="#455964"/>
<path d="M175.757 189.298C175.757 189.362 170.748 189.413 164.571 189.413C158.392 189.413 153.384 189.362 153.384 189.298C153.384 189.235 158.392 189.184 164.571 189.184C170.748 189.184 175.757 189.235 175.757 189.298Z" fill="#455964"/>
<path d="M170.97 155.293C169.357 154.741 167.298 156.173 166.854 157.793C166.409 159.414 166.925 161.145 167.556 162.717C168.957 166.196 170.987 169.477 173.776 172.017C176.565 174.556 180.15 176.316 183.909 176.58C183.42 173.338 184.513 170.073 184.335 166.804C184.18 163.95 183.023 161.148 181.107 158.99C179.192 156.833 176.532 155.334 173.691 154.812C172.651 154.621 171.449 154.368 170.97 155.293Z" fill="#003342"/>
<path d="M183.904 176.58C183.9 176.587 183.822 176.544 183.677 176.455C183.534 176.364 183.328 176.218 183.089 176C182.598 175.574 182.056 174.782 181.606 173.73C181.376 173.207 181.119 172.638 180.872 172.012C180.634 171.384 180.381 170.715 180.114 170.012C179.844 169.31 179.545 168.58 179.161 167.861C178.78 167.143 178.316 166.433 177.796 165.737C176.756 164.344 175.623 163.122 174.646 161.962C173.665 160.806 172.847 159.702 172.269 158.709C171.684 157.719 171.348 156.846 171.164 156.235C171.077 155.927 171.016 155.687 170.989 155.521C170.958 155.356 170.946 155.268 170.954 155.267C170.976 155.263 171.047 155.608 171.249 156.209C171.458 156.807 171.812 157.659 172.408 158.629C172.998 159.601 173.82 160.684 174.807 161.828C175.788 162.976 176.929 164.197 177.979 165.603C178.505 166.306 178.973 167.027 179.359 167.761C179.747 168.494 180.045 169.233 180.31 169.939C180.57 170.645 180.817 171.316 181.049 171.946C181.286 172.57 181.536 173.143 181.754 173.668C182.184 174.721 182.689 175.499 183.151 175.938C183.604 176.383 183.919 176.559 183.904 176.58Z" fill="black"/>
<path d="M175.56 173.324C175.531 173.316 175.61 172.899 175.783 172.237C175.955 171.574 176.227 170.667 176.579 169.683C176.931 168.699 177.296 167.824 177.581 167.203C177.868 166.58 178.07 166.208 178.099 166.22C178.129 166.234 177.979 166.63 177.732 167.266C177.486 167.902 177.147 168.781 176.796 169.761C176.447 170.74 176.152 171.635 175.94 172.283C175.727 172.932 175.592 173.333 175.56 173.324Z" fill="black"/>
<path d="M184.246 166.011C184.234 166.041 183.802 165.899 183.109 165.668C182.416 165.436 181.458 165.118 180.39 164.801C179.321 164.483 178.345 164.225 177.638 164.04C176.93 163.856 176.493 163.739 176.499 163.708C176.505 163.678 176.955 163.741 177.674 163.886C178.392 164.032 179.379 164.266 180.453 164.586C181.527 164.905 182.482 165.248 183.164 165.518C183.846 165.789 184.257 165.983 184.246 166.011Z" fill="black"/>
<path d="M169.877 167.319C169.847 167.311 169.942 166.83 170.138 166.061C170.333 165.293 170.634 164.238 171.019 163.09C171.404 161.942 171.801 160.92 172.109 160.189C172.416 159.458 172.632 159.016 172.66 159.028C172.691 159.041 172.53 159.504 172.262 160.248C171.993 160.993 171.623 162.02 171.239 163.164C170.855 164.308 170.531 165.35 170.295 166.106C170.06 166.862 169.908 167.328 169.877 167.319Z" fill="black"/>
<path d="M180.96 158.887C180.949 158.949 178.918 158.644 176.423 158.207C173.928 157.77 171.913 157.365 171.924 157.304C171.934 157.242 173.965 157.547 176.461 157.984C178.956 158.421 180.97 158.826 180.96 158.887Z" fill="black"/>
<path d="M168.309 150.177L170.037 150.28C171.265 150.354 172.489 150.168 173.625 149.731C174.186 149.515 174.75 149.306 175.336 149.164C177.557 148.63 179.899 149.114 182.191 149.325C185.931 149.669 189.725 149.267 193.276 148.149C193.481 148.084 193.669 147.968 193.796 147.798C194.227 147.218 193.645 146.565 193.126 146.145C190.463 143.991 187.75 141.806 184.589 140.475C181.428 139.144 177.697 138.765 174.669 140.255C171.115 142.006 169.349 146.387 168.309 150.177Z" fill="#003342"/>
<path d="M193.844 147.597C193.84 147.604 193.745 147.544 193.571 147.424C193.379 147.289 193.127 147.112 192.812 146.892C192.154 146.429 191.21 145.749 190.006 144.965C188.801 144.188 187.335 143.296 185.591 142.555C183.856 141.81 181.815 141.26 179.643 141.227C177.48 141.202 175.417 141.74 173.876 142.767C172.326 143.788 171.289 145.138 170.53 146.303C169.77 147.479 169.266 148.499 168.904 149.194C168.733 149.529 168.596 149.795 168.493 149.999C168.397 150.183 168.344 150.278 168.337 150.275C168.329 150.271 168.369 150.17 168.451 149.98C168.546 149.771 168.669 149.497 168.823 149.155C169.16 148.446 169.644 147.413 170.392 146.216C171.14 145.031 172.177 143.648 173.756 142.593C175.329 141.531 177.44 140.976 179.642 141.002C181.85 141.035 183.924 141.601 185.672 142.364C187.43 143.124 188.896 144.036 190.094 144.833C191.291 145.637 192.223 146.337 192.865 146.821C193.169 147.056 193.412 147.244 193.598 147.387C193.764 147.519 193.849 147.591 193.844 147.597Z" fill="black"/>
<path d="M189.475 149.16C189.433 149.207 187.372 147.461 184.871 145.263C182.37 143.064 180.376 141.245 180.418 141.198C180.459 141.152 182.521 142.897 185.022 145.096C187.522 147.294 189.516 149.115 189.475 149.16Z" fill="black"/>
<path d="M188.197 142.028C188.201 142.09 187.404 142.189 186.415 142.147C185.425 142.108 184.634 141.943 184.642 141.882C184.65 141.817 185.444 141.877 186.421 141.916C187.398 141.958 188.193 141.963 188.197 142.028Z" fill="black"/>
<path d="M178.463 138.897C178.513 138.936 178.098 139.54 177.536 140.244C176.973 140.949 176.477 141.488 176.426 141.449C176.376 141.41 176.791 140.806 177.353 140.102C177.915 139.397 178.413 138.858 178.463 138.897Z" fill="black"/>
<path d="M179.155 149.09C179.136 149.113 178.748 148.839 178.148 148.36C177.549 147.882 176.745 147.19 175.895 146.389C175.044 145.588 174.3 144.84 173.766 144.293C173.232 143.746 172.911 143.397 172.934 143.375C172.955 143.353 173.315 143.662 173.878 144.18C174.49 144.756 175.232 145.455 176.051 146.228C176.9 147.026 177.682 147.732 178.252 148.24C178.823 148.748 179.175 149.064 179.155 149.09Z" fill="black"/>
<path d="M161.812 144.857C162.017 143.379 160.77 141.912 159.277 141.521C157.784 141.13 156.182 141.649 154.994 142.565C153.805 143.481 152.966 144.754 152.221 146.043C150.403 149.189 149 152.622 148.594 156.243C148.187 159.863 148.834 163.691 150.846 166.826C151.173 167.336 151.625 167.877 152.234 167.903C152.567 167.918 152.878 167.77 153.17 167.619C159.349 164.433 163.898 158.476 165.286 151.757C165.564 150.412 165.715 148.976 165.216 147.671C164.718 146.366 163.219 144.737 161.812 144.857Z" fill="#003342"/>
<path d="M151.258 168.071C151.25 168.069 151.262 167.98 151.292 167.812C151.329 167.62 151.376 167.377 151.435 167.079C151.56 166.442 151.776 165.528 152.077 164.407C152.373 163.284 152.781 161.962 153.283 160.51C153.798 159.063 154.415 157.488 155.144 155.868C155.882 154.251 156.66 152.743 157.411 151.396C158.173 150.054 158.902 148.869 159.553 147.897C160.201 146.925 160.749 146.151 161.148 145.631C161.335 145.388 161.487 145.19 161.608 145.033C161.715 144.898 161.775 144.829 161.781 144.833C161.789 144.838 161.742 144.916 161.647 145.06C161.537 145.223 161.397 145.428 161.225 145.682C160.85 146.217 160.325 147.002 159.698 147.984C159.067 148.964 158.355 150.154 157.607 151.498C156.868 152.846 156.099 154.35 155.365 155.961C154.639 157.576 154.017 159.142 153.493 160.581C152.98 162.024 152.557 163.337 152.24 164.451C151.92 165.564 151.679 166.47 151.526 167.099C151.45 167.394 151.388 167.633 151.339 167.822C151.294 167.987 151.267 168.072 151.258 168.071Z" fill="black"/>
<path d="M155.434 155.742C155.45 155.769 155.093 156.006 154.496 156.356C153.899 156.706 153.06 157.167 152.115 157.642C151.169 158.117 150.296 158.516 149.657 158.787C149.017 159.058 148.612 159.204 148.598 159.177C148.584 159.147 148.964 158.949 149.584 158.641C150.276 158.298 151.098 157.89 152.005 157.44C152.909 156.98 153.726 156.565 154.414 156.215C155.031 155.901 155.417 155.714 155.434 155.742Z" fill="black"/>
<path d="M160.207 161.915C160.176 161.925 159.975 161.431 159.66 160.63C159.317 159.765 158.89 158.692 158.42 157.504C157.931 156.323 157.489 155.255 157.134 154.395C156.802 153.6 156.604 153.106 156.633 153.093C156.662 153.081 156.915 153.554 157.285 154.334C157.656 155.115 158.141 156.206 158.636 157.426C159.13 158.646 159.539 159.763 159.815 160.579C160.091 161.394 160.237 161.906 160.207 161.915Z" fill="black"/>
<path d="M160.784 146.363C160.805 146.423 158.536 147.225 155.715 148.154C152.894 149.083 150.589 149.788 150.568 149.728C150.546 149.668 152.816 148.867 155.637 147.938C158.458 147.009 160.762 146.304 160.784 146.363Z" fill="black"/>
<path d="M164.857 153.641C164.803 153.673 163.749 152.125 162.503 150.181C161.257 148.237 160.291 146.636 160.344 146.603C160.398 146.571 161.452 148.12 162.698 150.063C163.944 152.007 164.911 153.608 164.857 153.641Z" fill="black"/>
<path d="M156.097 136.426C154.404 135.283 152.66 135.134 150.611 135.324C148.562 135.516 146.591 136.243 144.746 137.162C141.599 138.729 138.675 140.946 136.89 143.957C135.104 146.969 134.612 150.855 136.193 153.948C136.35 154.256 136.552 154.576 136.879 154.695C137.223 154.82 137.605 154.688 137.95 154.556C141.547 153.178 145.17 151.789 148.443 149.758C151.715 147.729 154.655 144.993 156.302 141.533C156.698 140.703 157.02 139.819 157.05 138.904C157.079 137.989 156.781 137.034 156.097 136.426Z" fill="#003342"/>
<path d="M156.114 136.045C156.116 136.053 156.027 136.093 155.856 136.165C155.661 136.243 155.411 136.343 155.102 136.468C154.936 136.533 154.754 136.603 154.557 136.68C154.359 136.762 154.149 136.864 153.921 136.966C153.467 137.176 152.94 137.39 152.387 137.692C152.107 137.836 151.814 137.987 151.51 138.144C151.205 138.303 150.904 138.494 150.584 138.678C149.936 139.036 149.285 139.484 148.591 139.939C147.231 140.893 145.798 142.029 144.413 143.352C143.04 144.689 141.854 146.08 140.856 147.402C140.377 148.078 139.908 148.711 139.529 149.343C139.334 149.655 139.133 149.95 138.964 150.247C138.797 150.545 138.637 150.83 138.483 151.104C138.163 151.643 137.933 152.161 137.709 152.604C137.6 152.828 137.493 153.034 137.404 153.227C137.32 153.421 137.244 153.599 137.174 153.763C137.04 154.066 136.932 154.311 136.848 154.501C136.771 154.669 136.727 154.756 136.72 154.754C136.712 154.751 136.742 154.658 136.805 154.485C136.878 154.29 136.974 154.039 137.092 153.73C137.156 153.563 137.227 153.382 137.304 153.185C137.387 152.988 137.489 152.779 137.593 152.552C137.808 152.101 138.029 151.576 138.341 151.029C138.491 150.752 138.649 150.462 138.812 150.16C138.978 149.859 139.176 149.561 139.368 149.244C139.743 148.604 140.209 147.963 140.687 147.28C141.682 145.941 142.872 144.537 144.254 143.19C145.649 141.857 147.097 140.719 148.473 139.769C149.175 139.314 149.834 138.869 150.489 138.516C150.813 138.335 151.119 138.146 151.427 137.99C151.736 137.837 152.032 137.689 152.316 137.549C152.876 137.254 153.41 137.049 153.871 136.849C154.102 136.752 154.316 136.657 154.517 136.58C154.717 136.51 154.902 136.444 155.071 136.385C155.387 136.277 155.642 136.19 155.84 136.122C156.017 136.064 156.111 136.037 156.114 136.045Z" fill="black"/>
<path d="M143.642 143.572C143.662 143.631 141.906 144.289 139.719 145.043C137.533 145.797 135.744 146.36 135.724 146.301C135.703 146.243 137.459 145.584 139.647 144.831C141.833 144.077 143.622 143.514 143.642 143.572Z" fill="black"/>
<path d="M143.876 152.359C143.843 152.361 143.784 151.889 143.728 151.124C143.671 150.358 143.619 149.299 143.6 148.128C143.581 146.957 143.599 145.897 143.632 145.129C143.664 144.362 143.708 143.889 143.741 143.889C143.775 143.89 143.791 144.365 143.802 145.131C143.813 145.972 143.825 146.993 143.84 148.123C143.862 149.253 143.881 150.275 143.897 151.116C143.91 151.882 143.91 152.357 143.876 152.359Z" fill="black"/>
<path d="M151.22 148.168C151.155 148.176 150.851 146.033 150.541 143.384C150.231 140.733 150.032 138.58 150.097 138.572C150.162 138.564 150.465 140.707 150.775 143.357C151.086 146.006 151.285 148.16 151.22 148.168Z" fill="black"/>
<path d="M141.398 138.772C141.398 138.74 141.884 138.704 142.67 138.673C143.457 138.641 144.543 138.613 145.742 138.597C146.942 138.58 148.027 138.579 148.814 138.588C149.6 138.599 150.087 138.621 150.088 138.653C150.089 138.684 149.603 138.72 148.817 138.752C148.031 138.783 146.944 138.811 145.744 138.827C144.544 138.844 143.457 138.846 142.671 138.836C141.884 138.826 141.398 138.804 141.398 138.772Z" fill="black"/>
<path d="M150.993 130.02C150.483 131.389 149.972 132.758 149.461 134.127C149.425 134.223 149.375 134.332 149.275 134.358C149.165 134.386 149.067 134.298 148.992 134.217C146.699 131.741 144.406 129.265 142.114 126.789L143.29 125.854L150.993 130.02Z" fill="#003342"/>
<path d="M150.993 130.02C150.483 131.389 149.972 132.758 149.461 134.127C149.425 134.223 149.375 134.332 149.275 134.358C149.165 134.386 149.067 134.298 148.992 134.217C146.699 131.741 144.406 129.265 142.114 126.789L143.29 125.854L150.993 130.02Z" fill="black"/>
<path d="M163.214 134.858C156.329 132.285 149.444 129.711 142.559 127.137C142.349 127.058 142.118 126.962 142.027 126.76C141.909 126.498 142.079 126.196 142.25 125.956C144.453 122.868 148.007 120.688 151.786 120.309C155.565 119.932 159.485 121.432 161.809 124.326C164.132 127.22 164.845 131.452 163.214 134.858Z" fill="#003342"/>
<path d="M144.742 123.177C144.74 123.169 144.824 123.145 144.986 123.104C145.148 123.068 145.386 122.997 145.698 122.946C146.32 122.824 147.234 122.708 148.365 122.698C149.495 122.686 150.844 122.811 152.29 123.17C153.734 123.526 155.265 124.139 156.713 125.04C158.152 125.955 159.355 127.063 160.282 128.198C161.213 129.333 161.884 130.479 162.338 131.488C162.794 132.496 163.06 133.355 163.201 133.957C163.282 134.255 163.314 134.494 163.347 134.654C163.376 134.814 163.386 134.899 163.378 134.9C163.359 134.905 163.283 134.572 163.115 133.981C162.948 133.39 162.659 132.546 162.189 131.558C161.27 129.588 159.445 127.032 156.586 125.231C153.726 123.435 150.583 122.865 148.361 122.858C147.242 122.848 146.333 122.938 145.71 123.034C145.088 123.127 144.746 123.197 144.742 123.177Z" fill="black"/>
<path d="M159.456 127.773C159.471 127.799 159.133 128.027 158.567 128.361C158.001 128.696 157.206 129.137 156.311 129.59C155.416 130.042 154.59 130.422 153.986 130.678C153.381 130.935 152.998 131.073 152.986 131.045C152.974 131.015 153.334 130.827 153.92 130.533C154.583 130.201 155.356 129.815 156.211 129.388C157.061 128.952 157.83 128.559 158.49 128.222C159.074 127.923 159.441 127.745 159.456 127.773Z" fill="black"/>
<path d="M155.149 120.32C155.214 120.305 155.508 121.22 155.727 122.38C155.947 123.539 156.007 124.495 155.941 124.502C155.874 124.511 155.705 123.573 155.486 122.422C155.269 121.27 155.082 120.336 155.149 120.32Z" fill="black"/>
<path d="M142.387 126.855C142.374 126.827 142.867 126.553 143.684 126.148C144.501 125.744 145.644 125.214 146.925 124.674C148.208 124.135 149.385 123.688 150.244 123.388C151.104 123.087 151.644 122.927 151.653 122.956C151.664 122.987 151.143 123.2 150.299 123.538C149.455 123.877 148.29 124.345 147.011 124.883C145.733 125.421 144.583 125.927 143.75 126.294C142.917 126.661 142.401 126.884 142.387 126.855Z" fill="black"/>
<path d="M81.7751 88.0749L79.4115 82.2368C79.4884 81.8763 79.9048 79.9966 80.4105 79.0774C80.5178 78.8827 81.6973 77.8366 82.6633 77.0074C83.2667 76.4896 83.787 76.0563 83.9108 75.9678C83.9539 75.9371 84.0451 75.8901 84.1706 75.8319L84.1719 75.8313C84.6201 75.6236 85.5048 75.2731 86.2095 74.9996L86.2127 74.9984L86.222 74.9949C86.253 74.9829 86.2835 74.9711 86.3137 74.9594L86.3148 74.959C86.3178 74.9579 86.3209 74.9566 86.3239 74.9554C86.4464 74.9081 86.5618 74.8637 86.6669 74.8233C86.9296 74.7226 87.1275 74.6476 87.2051 74.6185L87.2411 74.6047C87.2411 74.6047 87.2411 74.6048 87.2413 74.6049C87.2503 74.6119 87.5159 74.8284 87.3938 75.3199C87.3643 75.4385 87.2382 75.5901 87.0604 75.7549C86.9469 75.8602 86.8124 75.9709 86.6684 76.0819C86.1145 76.5087 85.4206 76.9405 85.2475 77.0875C84.9676 77.3247 84.0398 79.1162 83.9823 79.228C83.9812 79.2298 83.9803 79.2317 83.9793 79.2334L86.2077 78.2892L88.2864 76.3527L89.1398 75.5577L89.5687 75.1582C89.5687 75.1582 89.9277 74.672 90.4016 74.1909C90.609 73.9804 90.8383 73.7708 91.0691 73.6034C91.1241 73.5635 91.1792 73.526 91.2341 73.4915C91.2342 73.4914 91.2342 73.4914 91.2344 73.4914C91.4356 73.3649 91.6344 73.2778 91.8169 73.2577C92.142 73.2221 92.276 73.3955 92.3312 73.5489C92.337 73.5647 92.3417 73.5804 92.3459 73.5957C92.3501 73.6112 92.3532 73.627 92.355 73.6427C92.3587 73.6722 92.3581 73.7019 92.3537 73.7311C92.3538 73.7313 92.3537 73.7314 92.3536 73.7316C92.3464 73.78 92.3284 73.8267 92.3004 73.8689C92.3004 73.8689 92.1834 74.0677 92.026 74.3347C91.9224 74.5103 91.8013 74.7155 91.6844 74.9128C91.476 75.2642 91.2813 75.5912 91.2227 75.6832C90.906 76.1806 89.8026 77.6261 89.8026 77.6261L90.1567 78.6208C90.2128 78.7784 90.2099 78.9522 90.1486 79.1108C89.9605 79.5976 89.5521 80.6482 89.4835 80.7849C89.4488 80.7996 89.4007 81.5019 89.3302 82.0587C89.3227 82.4387 89.0819 83.2566 89.0819 83.2566C89.0199 83.4313 88.9461 83.5755 88.8581 83.67C88.4809 84.0753 84.6921 86.3465 82.8153 87.46C82.2121 87.8181 81.8064 88.0565 81.7751 88.0749Z" fill="#FFB17D"/>
<path d="M89.7449 77.6204C89.7449 77.6204 88.6085 79.1591 88.5896 79.3073C88.5706 79.4556 88.6658 79.9608 88.8503 79.9454C89.0348 79.9299 89.7449 77.6204 89.7449 77.6204Z" fill="#EFA26F"/>
<path d="M89.1162 83.244C89.1171 83.2419 89.1177 83.2398 89.1185 83.2377C89.1185 83.2377 89.3618 82.4215 89.3689 82.0423C89.4339 81.5322 89.4795 80.8999 89.5138 80.7884C89.4406 80.931 88.9343 81.9308 88.9826 82.2141C89.0249 82.4629 89.0927 83.0397 89.1162 83.244Z" fill="#EFA26F"/>
<path d="M83.965 79.2404L86.1686 78.2983C86.1686 78.2983 85.5027 79.2022 85.0384 79.4481C84.5743 79.6938 83.6936 79.7657 83.965 79.2404Z" fill="#003342"/>
<path d="M61.2912 70.9435L66.5956 93.9709C67.1642 96.4394 69.08 96.9901 70.8709 95.1998L81.9003 84.1747" stroke="#004BFF" stroke-width="20"/>
</svg>
