<svg width="250" height="181" viewBox="0 0 250 181" fill="none" xmlns="http://www.w3.org/2000/svg">
<path d="M181.543 6.27497C186.02 4.81499 190.797 4.53471 195.488 4.81081C202.224 5.20822 209.231 6.90247 214.184 11.5836C217.306 14.5119 219.376 18.415 221.89 21.9122C229.188 32.0484 240.442 39.3232 245.355 50.84C249.552 60.6959 247.975 73.0869 240.75 80.9139C233.526 88.7409 220.801 90.9539 211.855 85.2687C203.267 79.8053 199.472 68.9286 191.627 62.4068C186.02 57.7466 178.775 55.6675 172.684 51.685C166.449 47.6146 161.376 41.2267 160.231 33.7552C159.282 27.5681 161.463 20.8455 166.203 16.7751C170.836 12.7968 175.711 8.17002 181.543 6.27497Z" fill="#DBF6FF"/>
<path d="M220.481 81.9932C212.738 83.2482 205.165 81.2193 197.426 79.7677C189.996 78.3704 182.595 75.7517 176.697 70.807C173.994 68.5396 171.6 65.7243 170.536 62.3274C169.024 57.4831 170.404 52.2498 170.388 47.1628C170.388 41.1932 168.913 35.4495 164.843 31.0403C162.379 28.363 159.503 26.0203 157.544 22.9121C153.499 16.4447 156.632 7.78517 162.974 4.13731C168.753 0.836669 176.101 2.13768 182.102 5.02C188.103 7.90231 193.368 12.207 199.394 15.06C205.998 18.164 213.227 19.3814 220.509 20.08C226.083 20.6154 231.755 19.9628 236.302 23.2886C239.555 25.6647 241.851 29.2331 243.19 33.0776C245.716 40.3524 245.207 48.9031 244.04 56.4122C243.26 61.4322 241.691 66.4229 238.828 70.5978C235.312 75.7224 229.936 79.4121 224.042 81.1984C222.873 81.543 221.684 81.8085 220.481 81.9932Z" fill="#BCDFEB"/>
<path d="M208.286 178.879H28.1556C14.5563 168.304 5.10537 153.223 2.55473 135.992C1.49093 128.846 2.09471 120.338 7.82852 116.05C16.6469 109.448 29.8807 117.769 39.8409 113.159C46.2566 110.189 49.4192 102.471 49.4849 95.292C49.5506 88.1134 47.1684 81.1858 45.3776 74.2373C43.5868 67.2888 42.4203 59.7923 44.8313 53.0446C47.2423 46.2969 54.3316 40.8251 61.1579 42.6156C67.0067 44.1508 70.7197 50.1874 76.3221 52.4798C82.1586 54.8685 88.9316 52.6974 94.1109 49.0663C99.2902 45.4351 103.418 40.4653 108.257 36.395C116.755 29.2205 127.972 24.8239 138.893 26.4972C149.814 28.1705 159.906 36.784 161.611 47.8907C163.003 56.9769 159.253 67.4771 164.72 74.7937C170.881 83.0474 183.778 80.7299 192.691 85.7415C199.944 89.8202 203.817 99.2787 201.554 107.399C199.246 115.69 191.405 122.651 192.682 131.168C193.598 137.28 198.913 141.497 202.659 146.358C209.859 155.683 213.112 168.069 208.286 178.879Z" fill="#DBF6FF"/>
<path d="M199.833 178.879H45.5049C40.8103 174.52 35.5447 170.512 32.879 164.656C30.2134 158.799 30.2175 151.16 34.6041 146.479C39.8943 140.836 48.7415 141.606 56.1798 139.736C64.76 137.581 72.568 130.562 73.6647 121.63C75.0858 110.101 65.602 99.5632 66.1935 87.9586C66.6576 78.8097 74.2808 70.5894 83.2224 69.5938C89.2684 68.9203 95.5444 71.1751 101.377 69.4516C106.79 67.8326 110.692 63.1682 115.416 59.9931C120.936 56.2825 127.984 54.6677 134.346 56.5125C140.708 58.3574 146.093 63.963 146.952 70.6438C147.863 77.7555 144.076 85.8209 148.093 91.6943C151.092 96.0743 157.072 96.9193 162.309 96.7478C167.546 96.5763 173.132 95.8609 177.736 98.4211C182.016 100.793 184.562 105.7 185.039 110.641C185.515 115.581 184.164 120.538 182.164 125.065C180.418 129.022 178.167 132.762 176.857 136.887C175.547 141.012 175.271 145.751 177.411 149.504C179.662 153.449 184.028 155.503 187.589 158.289C193.865 163.15 199.361 170.826 199.833 178.879Z" fill="#BCDFEB"/>
<path d="M186.916 26.1249L195.829 49.2085L214.821 38.29L186.916 26.1249Z" fill="#FAFAFA"/>
<path d="M186.916 26.1249L204.433 44.2596L209.202 41.5195L186.916 26.1249Z" fill="#D9D9D9"/>
<path d="M209.202 41.5195L205.879 49.8904L204.433 44.2596L209.202 41.5195Z" fill="#D9D9D9"/>
<path d="M205.879 49.8903L201.78 45.7865L204.433 44.2596L205.879 49.8903Z" fill="#B0B0B0"/>
<path d="M70.3172 171.717C50.2201 166.325 32.6901 151.713 23.5226 132.716C19.7397 124.872 17.3123 116.167 17.8832 107.449C18.4542 98.7307 22.2863 90.021 29.1619 84.7919C36.0376 79.5627 46.0471 78.429 53.3129 83.0725C60.3324 87.557 63.6798 96.1622 69.7628 101.897C77.0327 108.75 88.5701 110.749 97.3352 106.052C106.1 101.354 111.021 89.9415 107.821 80.3826C104.864 71.5433 96.4932 66.0506 89.2273 60.3612C81.9615 54.6719 74.7285 46.6776 75.7676 37.399C76.663 29.4255 83.5715 23.435 90.821 20.3268C104.724 14.3698 122.653 17.0178 132.128 28.9696C142.323 41.8291 140.363 60.5913 135.767 76.4419C131.171 92.2926 124.386 108.348 126.674 124.705C128.575 138.301 136.856 150.524 147.835 158.498C158.813 166.471 172.281 170.42 185.741 171.261C199.201 172.102 213.589 169.559 223.528 160.318C233.468 151.077 236.816 133.833 228.046 123.454C223.5 118.083 216.71 115.355 210.184 112.887C203.657 110.419 196.843 107.834 192.111 102.63C187.38 97.4255 185.54 88.7326 189.996 83.2733C195.151 76.9565 208.89 76.2621 213.737 69.7026C217.203 65.0215 213.157 56.0064 209.218 51.5804" stroke="#19CCA3" stroke-width="2.54" stroke-miterlimit="10" stroke-dasharray="7.62 7.62"/>
<path d="M59.1454 147.5C50.4427 141.674 42.7331 134.439 36.321 126.081C33.6348 122.571 31.1704 118.865 29.5439 114.749C27.9174 110.632 27.1617 106.081 27.9626 101.722C28.5335 98.5926 30.2052 95.338 33.1707 94.3382C35.4872 93.5559 38.0995 94.3675 40.034 95.8902C41.9686 97.4129 43.3199 99.559 44.5151 101.722C49.1358 110.088 51.9699 119.292 55.3872 128.24C56.9871 132.549 58.8598 136.748 60.9936 140.811C62.0705 142.82 63.2566 144.767 64.5465 146.642C65.7171 148.316 67.8323 150.161 68.5881 151.993C66.9 153.357 60.7102 148.554 59.1454 147.5Z" fill="#19CCA3"/>
<path d="M34.6822 99.0821C39.0066 117.544 48.8294 134.192 62.805 146.747" stroke="#17FCC0" stroke-width="2.02" stroke-miterlimit="10"/>
<path d="M174.758 147.592C182.232 143.892 189.062 138.973 194.978 133.03C197.443 130.545 199.776 127.859 201.48 124.772C203.185 121.685 204.24 118.162 204.047 114.627C203.908 112.092 202.918 109.344 200.671 108.239C198.917 107.378 196.765 107.75 195.085 108.75C193.405 109.75 192.116 111.306 190.949 112.895C186.452 119.024 183.273 126.027 179.666 132.741C177.967 135.984 176.061 139.11 173.961 142.099C172.908 143.577 171.774 144.993 170.565 146.341C169.464 147.558 167.591 148.78 166.823 150.152C168.022 151.411 173.403 148.261 174.758 147.592Z" fill="#19CCA3"/>
<path d="M198.995 111.841C193.71 125.997 184.256 138.141 171.928 146.609" stroke="#17FCC0" stroke-width="1.61" stroke-miterlimit="10"/>
<path d="M62.8871 135.498C67.5571 112.042 62.5791 86.7496 49.3946 66.9416" stroke="#19CCA3" stroke-width="2.54" stroke-miterlimit="10"/>
<path d="M50.7787 69.2591C46.9746 67.9907 43.7436 65.3741 41.6731 61.885C39.6027 58.3959 38.8301 54.266 39.4959 50.2459C43.4923 51.3378 47.2423 53.8645 49.3535 57.4747C51.4646 61.0849 51.7152 65.1553 50.7787 69.2591Z" fill="#19CCA3"/>
<path d="M54.9805 76.8519C54.1088 73.832 54.3304 70.5937 55.6051 67.7262C56.8797 64.8587 59.1227 62.5525 61.926 61.2272C62.9898 64.2936 63.0514 67.8285 61.7247 70.7861C60.3981 73.7437 57.9542 75.6638 54.9805 76.8519Z" fill="#19CCA3"/>
<path d="M55.2475 76.5549C52.9194 74.485 49.9392 73.3347 46.8489 73.3132C43.7585 73.2917 40.7632 74.4004 38.4075 76.4378C40.6953 78.7051 43.821 80.2446 47.0124 80.2572C50.2037 80.2697 52.9433 78.8223 55.2475 76.5549Z" fill="#19CCA3"/>
<path d="M59.7245 88.8999C59.3838 85.7717 60.1566 82.6229 61.9022 80.0258C63.6479 77.4288 66.2505 75.5559 69.237 74.7477C69.7587 77.9563 69.237 81.441 67.4052 84.1267C65.5733 86.8124 62.8419 88.2682 59.7245 88.8999Z" fill="#19CCA3"/>
<path d="M60.0367 88.6865C58.0982 86.2345 55.3603 84.5722 52.3205 84.0018C49.2808 83.4314 46.141 83.9908 43.4719 85.5783C45.3366 88.218 48.1542 90.2888 51.2758 90.8661C54.3973 91.4434 57.3833 90.477 60.0367 88.6865Z" fill="#19CCA3"/>
<path d="M62.8625 100.952C62.7906 97.8065 63.8287 94.7389 65.7882 92.3064C67.7476 89.874 70.4986 88.2378 73.5415 87.6951C73.788 90.9371 72.9501 94.3884 70.917 96.8984C68.8838 99.4084 66.0375 100.592 62.8625 100.952Z" fill="#19CCA3"/>
<path d="M63.1951 100.751C61.4735 98.1368 58.8879 96.2383 55.9085 95.4008C52.9291 94.5633 49.7535 94.8423 46.9589 96.1872C48.6018 98.9817 51.2182 101.295 54.2987 102.148C57.3792 103.002 60.3775 102.316 63.1951 100.751Z" fill="#19CCA3"/>
<path d="M64.682 114.205C65.0898 111.085 66.5835 108.217 68.8915 106.123C71.1994 104.03 74.1684 102.85 77.2586 102.797C77.0081 106.039 75.6568 109.298 73.2663 111.452C70.8758 113.607 67.8693 114.36 64.682 114.205Z" fill="#19CCA3"/>
<path d="M65.0394 114.067C63.7382 111.212 61.4739 108.927 58.6585 107.629C55.843 106.331 52.6636 106.105 49.6985 106.993C50.8815 110.013 53.1282 112.711 56.0402 114.042C58.9523 115.372 62.0205 115.171 65.0394 114.067Z" fill="#19CCA3"/>
<path d="M171.632 143.584C166.58 120.212 171.144 94.8402 184 74.8063" stroke="#19CCA3" stroke-width="2.54" stroke-miterlimit="10"/>
<path d="M182.656 77.1489C186.44 75.8169 189.627 73.1459 191.64 69.622C193.653 66.098 194.356 61.9553 193.623 57.9474C189.647 59.1062 185.938 61.7124 183.872 65.3436C181.806 68.9747 181.654 73.0618 182.656 77.1489Z" fill="#19CCA3"/>
<path d="M178.578 84.8127C179.402 81.7786 179.128 78.5441 177.806 75.6985C176.484 72.8529 174.203 70.5854 171.378 69.3093C170.363 72.3924 170.359 75.9274 171.735 78.864C173.111 81.8007 175.588 83.6665 178.578 84.8127Z" fill="#19CCA3"/>
<path d="M178.307 84.5367C180.599 82.4233 183.56 81.2186 186.651 81.1418C189.741 81.0651 192.756 82.1213 195.147 84.1183C192.896 86.4275 189.807 88.0172 186.604 88.0841C183.4 88.1511 180.648 86.7455 178.307 84.5367Z" fill="#19CCA3"/>
<path d="M174.035 96.9402C174.323 93.807 173.498 90.6725 171.711 88.1058C169.923 85.5391 167.291 83.7102 164.293 82.9512C163.82 86.1682 164.42 89.6445 166.276 92.2967C168.133 94.949 170.893 96.3504 174.035 96.9402Z" fill="#19CCA3"/>
<path d="M173.739 96.7144C175.636 94.2295 178.346 92.5207 181.375 91.8988C184.405 91.2769 187.553 91.7833 190.247 93.3259C188.427 95.999 185.647 98.1158 182.513 98.7642C179.379 99.4126 176.401 98.4755 173.739 96.7144Z" fill="#19CCA3"/>
<path d="M171.09 109.047C171.112 105.898 170.023 102.846 168.022 100.446C166.02 98.0462 163.239 96.4577 160.185 95.9697C159.992 99.216 160.888 102.634 162.962 105.106C165.036 107.578 167.915 108.737 171.09 109.047Z" fill="#19CCA3"/>
<path d="M170.758 108.846C172.436 106.203 174.99 104.261 177.955 103.374C180.921 102.486 184.1 102.712 186.916 104.01C185.33 106.83 182.739 109.189 179.675 110.093C176.611 110.996 173.583 110.365 170.758 108.846Z" fill="#19CCA3"/>
<path d="M169.493 122.337C169.033 119.225 167.493 116.383 165.151 114.33C162.809 112.276 159.821 111.147 156.731 111.147C157.031 114.385 158.44 117.618 160.863 119.731C163.286 121.844 166.305 122.534 169.493 122.337Z" fill="#19CCA3"/>
<path d="M169.135 122.195C170.389 119.318 172.615 116.994 175.408 115.648C178.202 114.301 181.377 114.021 184.357 114.857C183.219 117.899 181.022 120.635 178.13 122.015C175.239 123.396 172.154 123.249 169.135 122.195Z" fill="#19CCA3"/>
<path d="M59.2603 159.326C60.5336 156.963 62.2299 154.771 63.343 152.34C60.3202 148.511 56.8747 145.05 53.0747 142.024C50.6295 140.044 48.0885 138.191 45.4516 136.464L38.198 142.333C38.6088 138.92 38.8675 135.95 39.2167 132.712C33.8437 129.744 28.2048 127.305 22.3767 125.429C21.0377 127.629 19.8917 129.963 18.0886 131.85C18.0833 129.23 17.9008 126.613 17.5423 124.019C12.1803 122.604 6.7009 121.7 1.17469 121.316C1.15812 123.585 1.28158 125.853 1.54435 128.106C2.98602 127.663 4.1032 126.433 5.62702 126.19C4.62073 128.675 3.7089 131.402 2.51367 133.925C3.83317 139.931 6.07162 145.687 9.14699 150.985C11.6853 149.462 14.0758 147.366 17.1275 146.073C16.5936 150.838 16.5853 155.825 16.1787 160.648C17.7952 162.433 19.5254 164.107 21.358 165.66C24.5893 168.391 28.1172 170.737 31.8728 172.65C32.6326 169.697 33.4171 166.756 35.3024 164.283C37.5203 168.576 39.9231 172.399 41.9357 176.641C50.3483 179.101 59.2078 179.53 67.8118 177.896C69.2288 177.62 70.4199 175.311 70.8594 173.909C71.2989 172.508 71.2167 170.981 71.0155 169.533C70.3468 164.994 68.7638 160.644 66.366 156.758C63.8647 157.36 61.3304 158.071 59.2603 159.326Z" fill="#19CCA3"/>
<path d="M61.659 173.453C41.9006 161.61 23.926 146.921 8.29266 129.842" stroke="#17FCC0" stroke-width="2.54" stroke-miterlimit="10"/>
<path d="M175.826 164.058C174.627 162.434 173.136 160.991 172.056 159.301C173.906 156.124 176.111 153.176 178.627 150.516C180.24 148.774 181.939 147.117 183.716 145.55C185.721 146.741 187.724 147.935 189.725 149.131C189.056 146.621 188.563 144.45 187.959 142.078C191.644 139.284 195.583 136.855 199.722 134.824C200.955 136.318 202.047 137.933 203.587 139.137C203.316 137.188 203.179 135.221 203.177 133.252C207.023 131.613 211.01 130.344 215.088 129.461C215.335 131.148 215.481 132.848 215.523 134.553C214.406 134.381 213.445 133.582 212.283 133.574C213.293 135.31 214.258 137.247 215.412 139.012C215.06 143.624 213.998 148.151 212.266 152.428C210.212 151.57 208.225 150.273 205.809 149.642C206.705 153.131 207.235 156.841 208.04 160.385C207.03 161.893 205.922 163.33 204.721 164.685C202.604 167.071 200.225 169.202 197.632 171.035C196.757 168.919 195.862 166.814 194.202 165.179C192.999 168.617 191.61 171.726 190.559 175.102C184.551 177.846 177.998 179.128 171.419 178.846C170.335 178.795 169.205 177.202 168.733 176.21C168.305 175.188 168.109 174.082 168.158 172.972C168.178 169.521 168.9 166.111 170.277 162.957C172.191 163.095 174.15 163.351 175.826 164.058Z" fill="#19CCA3"/>
<path d="M175.518 174.83C188.981 163.868 200.819 150.983 210.664 136.573" stroke="#17FCC0" stroke-width="1.91" stroke-miterlimit="10"/>
<path d="M174.08 95.0661H59.6464C57.1943 95.0661 55.2064 97.0907 55.2064 99.5883V174.357C55.2064 176.854 57.1943 178.879 59.6464 178.879H174.08C176.533 178.879 178.52 176.854 178.52 174.357V99.5883C178.52 97.0907 176.533 95.0661 174.08 95.0661Z" fill="#101439"/>
<path d="M176.987 137.865C177.465 135.813 176.219 133.754 174.203 133.267C172.188 132.781 170.167 134.05 169.689 136.103C169.212 138.155 170.458 140.213 172.473 140.7C174.488 141.187 176.509 139.917 176.987 137.865Z" fill="#1C2363"/>
<path d="M57.8351 151.144C57.5192 151.144 57.2162 151.016 56.9928 150.788C56.7695 150.561 56.644 150.252 56.644 149.93V123.994C56.644 123.835 56.6748 123.677 56.7347 123.53C56.7946 123.383 56.8824 123.25 56.9931 123.137C57.1038 123.025 57.2351 122.936 57.3796 122.876C57.5241 122.815 57.6789 122.784 57.8351 122.785C58.1499 122.785 58.4518 122.912 58.6745 123.139C58.8971 123.366 59.0221 123.673 59.0221 123.994V149.93C59.0221 150.251 58.8972 150.559 58.6747 150.787C58.4522 151.014 58.1503 151.142 57.8351 151.144Z" fill="#1C2363"/>
<path d="M168.141 98.1576H60.7102V175.783H168.141V98.1576Z" fill="#DCE8F4"/>
<path d="M168.141 98.1576H60.7102V103.374H168.141V98.1576Z" fill="#A6AFB8"/>
<path d="M63.8318 100.981H62.4723V102.743H63.8318V100.981Z" fill="#FC6047"/>
<path d="M65.5979 99.7556H64.2384V102.743H65.5979V99.7556Z" fill="#FC6047"/>
<path d="M67.4668 98.9064H66.1072V102.742H67.4668V98.9064Z" fill="#FC6047"/>
<path d="M159.602 99.2243V99.4753C159.603 99.5234 159.594 99.5712 159.576 99.6159C159.558 99.6605 159.532 99.7011 159.499 99.7354C159.466 99.7696 159.426 99.7968 159.382 99.8153C159.339 99.8339 159.292 99.8434 159.245 99.8434H158.834C158.787 99.8434 158.74 99.853 158.696 99.8715C158.653 99.8901 158.613 99.9173 158.58 99.9515C158.547 99.9857 158.52 100.026 158.503 100.071C158.485 100.116 158.476 100.163 158.477 100.212V101.324C158.477 101.421 158.514 101.513 158.581 101.582C158.648 101.65 158.739 101.688 158.834 101.688H159.245C159.34 101.689 159.431 101.729 159.498 101.798C159.565 101.866 159.602 101.959 159.602 102.056V102.312C159.603 102.409 159.642 102.501 159.709 102.569C159.777 102.637 159.868 102.676 159.964 102.676H165.558C165.605 102.676 165.652 102.667 165.696 102.649C165.74 102.631 165.779 102.604 165.813 102.57C165.847 102.537 165.873 102.496 165.892 102.452C165.91 102.407 165.919 102.36 165.919 102.312V99.2243C165.92 99.1758 165.911 99.1277 165.893 99.0828C165.875 99.0378 165.848 98.997 165.815 98.9627C165.781 98.9284 165.741 98.9013 165.697 98.883C165.653 98.8647 165.605 98.8556 165.558 98.8562H159.964C159.868 98.8562 159.776 98.895 159.708 98.964C159.64 99.033 159.602 99.1267 159.602 99.2243Z" fill="#DCE8F4"/>
<path d="M165.574 99.0444H164.572C164.499 99.0444 164.44 99.1044 164.44 99.1783V102.349C164.44 102.423 164.499 102.483 164.572 102.483H165.574C165.647 102.483 165.706 102.423 165.706 102.349V99.1783C165.706 99.1044 165.647 99.0444 165.574 99.0444Z" fill="#B7FC47"/>
<path d="M164.03 99.0444H163.028C162.955 99.0444 162.896 99.1044 162.896 99.1783V102.349C162.896 102.423 162.955 102.483 163.028 102.483H164.03C164.102 102.483 164.161 102.423 164.161 102.349V99.1783C164.161 99.1044 164.102 99.0444 164.03 99.0444Z" fill="#B7FC47"/>
<path d="M162.481 99.0444H161.479C161.407 99.0444 161.348 99.1044 161.348 99.1783V102.349C161.348 102.423 161.407 102.483 161.479 102.483H162.481C162.554 102.483 162.613 102.423 162.613 102.349V99.1783C162.613 99.1044 162.554 99.0444 162.481 99.0444Z" fill="#B7FC47"/>
<path d="M156.797 100.768C156.797 101.058 156.712 101.342 156.554 101.584C156.395 101.825 156.17 102.013 155.907 102.125C155.643 102.236 155.354 102.265 155.074 102.208C154.794 102.151 154.537 102.012 154.336 101.806C154.134 101.601 153.997 101.339 153.941 101.054C153.886 100.77 153.914 100.474 154.023 100.206C154.132 99.9378 154.317 99.7084 154.554 99.5471C154.791 99.3857 155.07 99.2996 155.355 99.2996C155.737 99.2996 156.104 99.4543 156.375 99.7297C156.645 100.005 156.797 100.379 156.797 100.768Z" fill="#DCE8F4"/>
<path d="M161.348 109.235H67.5037V169.801H161.348V109.235Z" fill="#C3CED9"/>
<path d="M161.348 109.235H67.5037V114.456H161.348V109.235Z" fill="#A7B1BA"/>
<path d="M159.446 117.162H98.0088V119.647H159.446V117.162Z" fill="#E0EDFA"/>
<path d="M131.915 121.894H98.0088V124.379H131.915V121.894Z" fill="#E0EDFA"/>
<path d="M116.253 126.621H98.0088V129.106H116.253V126.621Z" fill="#E0EDFA"/>
<path d="M159.446 134.82H98.0088V137.305H159.446V134.82Z" fill="#E0EDFA"/>
<path d="M131.915 139.552H98.0088V142.036H131.915V139.552Z" fill="#E0EDFA"/>
<path d="M116.253 144.279H98.0088V146.764H116.253V144.279Z" fill="#E0EDFA"/>
<path d="M159.446 152.064H98.0088V154.549H159.446V152.064Z" fill="#E0EDFA"/>
<path d="M131.915 156.795H98.0088V159.28H131.915V156.795Z" fill="#E0EDFA"/>
<path d="M116.253 161.522H98.0088V164.007H116.253V161.522Z" fill="#E0EDFA"/>
<path d="M95.0104 117.162H71.1839V130.825H95.0104V117.162Z" fill="#E0EDFA"/>
<path d="M71.1839 130.825L83.0951 123.994L95.0063 130.825H71.1839Z" fill="#CEDAE6"/>
<path d="M95.0063 117.162L83.0951 123.994L71.1839 117.162H95.0063Z" fill="#CEDAE6"/>
<path d="M95.0104 134.741H71.1839V148.404H95.0104V134.741Z" fill="#E0EDFA"/>
<path d="M71.1839 148.404L83.0951 141.572L95.0063 148.404H71.1839Z" fill="#CEDAE6"/>
<path d="M95.0063 134.741L83.0951 141.572L71.1839 134.741H95.0063Z" fill="#CEDAE6"/>
<path d="M95.0104 152.319H71.1839V165.982H95.0104V152.319Z" fill="#E0EDFA"/>
<path d="M71.1839 165.982L83.0951 159.151L95.0063 165.982H71.1839Z" fill="#CEDAE6"/>
<path d="M95.0063 152.319L83.0951 159.15L71.1839 152.319H95.0063Z" fill="#CEDAE6"/>
<g opacity="0.44">
<path d="M99.0972 98.1576L60.7102 137.259V103.09L65.5568 98.1576H99.0972Z" fill="white"/>
<path d="M122.398 98.1576L60.7102 160.987V143.509L105.238 98.1576H122.398Z" fill="white"/>
</g>
<g opacity="0.44">
<path d="M168.141 106.608V140.773L133.763 175.783H100.219L168.141 106.608Z" fill="white"/>
<path d="M168.141 147.019V164.501L157.056 175.783H139.899L168.141 147.019Z" fill="white"/>
</g>
<path d="M78.8317 96.0324L110.684 70.8948C111.662 70.1217 112.865 69.7021 114.103 69.7021C115.341 69.7021 116.544 70.1217 117.523 70.8948L149.375 96.0324V138.159H78.8317V96.0324Z" fill="#0007A8"/>
<path d="M141.214 73.7018H86.993V134.435H141.214V73.7018Z" fill="#FAFAFA"/>
<path d="M137.952 77.3581H90.2583V79.2113H137.952V77.3581Z" fill="#DBDBDB"/>
<path d="M130.789 81.0812H90.2583V82.9344H130.789V81.0812Z" fill="#DBDBDB"/>
<path d="M124.213 84.8002H90.2583V86.6534H124.213V84.8002Z" fill="#DBDBDB"/>
<path d="M124.213 91.9453H90.2583V93.7985H124.213V91.9453Z" fill="#DBDBDB"/>
<path d="M115.444 95.5179H90.2583V97.3711H115.444V95.5179Z" fill="#DBDBDB"/>
<path d="M139.291 103.006H114.105V104.859H139.291V103.006Z" fill="#DBDBDB"/>
<path d="M139.291 106.65H118.804V108.503H139.291V106.65Z" fill="#DBDBDB"/>
<path d="M114.105 117.108L78.8358 96.0576V138.159L114.105 117.108Z" fill="#0007A8"/>
<path d="M114.105 117.108L149.375 96.0576V138.159L114.105 117.108Z" fill="#0007A8"/>
<path d="M110.684 113.021L78.8317 138.159H149.375L117.523 113.021C116.544 112.248 115.341 111.828 114.103 111.828C112.865 111.828 111.662 112.248 110.684 113.021Z" fill="#004CFF"/>
<path d="M154.698 97.5689C155.513 94.5793 153.795 91.4823 150.86 90.6516C147.924 89.8208 144.884 91.5709 144.068 94.5604C143.252 97.55 144.971 100.647 147.906 101.478C150.841 102.309 153.882 100.558 154.698 97.5689Z" fill="#FC6D5F"/>
<path d="M148.134 93.2087V98.6261H146.631V94.3926H145.645V93.2087H148.134Z" fill="white"/>
<path d="M152.574 95.6476C152.753 95.8005 152.894 95.9933 152.988 96.211C153.081 96.4287 153.124 96.6653 153.113 96.9026C153.114 97.2289 153.026 97.5493 152.858 97.8271C152.668 98.1232 152.399 98.3571 152.082 98.5006C151.675 98.6799 151.235 98.7656 150.792 98.7516C150.417 98.7514 150.043 98.705 149.679 98.6136C149.345 98.5345 149.026 98.4002 148.734 98.2161L149.272 97.0657C149.489 97.2108 149.726 97.3222 149.975 97.3962C150.225 97.4739 150.485 97.5134 150.747 97.5133C150.963 97.5239 151.178 97.4717 151.367 97.3627C151.438 97.3202 151.497 97.259 151.538 97.1855C151.578 97.1119 151.599 97.0287 151.597 96.9444C151.602 96.8601 151.583 96.776 151.543 96.702C151.503 96.628 151.444 96.567 151.371 96.5261C151.113 96.4116 150.83 96.3642 150.55 96.388H149.104L149.371 93.2213H152.792V94.4051H150.648L150.582 95.1958H150.94C151.52 95.1489 152.097 95.3086 152.574 95.6476Z" fill="white"/>
<path d="M58.4471 46.1254C59.335 46.1507 60.1989 46.4242 60.9444 46.916C61.6839 47.4096 62.2718 48.1056 62.6407 48.924C62.913 49.4705 63.0697 50.069 63.1007 50.681C63.1293 51.1725 63.018 51.662 62.7803 52.0908C62.5467 52.4929 62.1966 52.8114 61.7782 53.0028C61.4572 53.1696 61.0989 53.2475 60.739 53.2287C60.4044 53.1944 60.0907 53.0471 59.8477 52.8103C59.823 53.1853 59.6941 53.5453 59.4758 53.8483C59.2576 54.1513 58.9592 54.3847 58.6155 54.5213C58.2178 54.7177 57.7729 54.7933 57.334 54.7388C56.8728 54.6856 56.4343 54.5064 56.0649 54.2201C55.6526 53.9015 55.3251 53.4831 55.112 53.0028C54.8827 52.5329 54.7699 52.0129 54.7834 51.4884C54.7957 51.0172 54.9381 50.5591 55.1941 50.1665C55.4384 49.7864 55.781 49.4825 56.184 49.288C56.4441 49.1463 56.7317 49.0647 57.0262 49.0488C57.3208 49.0329 57.6152 49.0831 57.8885 49.1959L57.6462 48.6814L59.3179 47.874L60.8088 51.0575C60.8723 51.2337 60.9944 51.3818 61.1538 51.4759C61.2175 51.5086 61.2879 51.5256 61.3592 51.5256C61.4305 51.5256 61.5009 51.5086 61.5646 51.4759C61.9972 51.2667 61.9602 50.6225 61.4537 49.5432C61.1752 48.9176 60.7315 48.3832 60.1722 47.9995C59.6231 47.6297 58.9821 47.4266 58.3239 47.4138C57.5872 47.4045 56.859 47.5752 56.2004 47.9117C55.5274 48.2208 54.9444 48.7021 54.5082 49.3089C54.0983 49.8735 53.8547 50.5453 53.8059 51.2458C53.7588 51.9677 53.9005 52.6895 54.2166 53.3374C54.513 54.0015 54.9711 54.5775 55.5474 55.0108C56.0984 55.4179 56.7529 55.6547 57.4326 55.6926C58.1685 55.7225 58.8996 55.5597 59.5561 55.2199C60.2658 54.8839 60.8909 54.3874 61.3839 53.7683L62.2834 54.7054C62.0045 55.0579 61.6814 55.3716 61.3222 55.6383C60.9382 55.9367 60.5253 56.1946 60.0901 56.408C59.1881 56.8691 58.1864 57.0906 57.178 57.0522C56.2618 57.009 55.3756 56.7062 54.6191 56.1779C53.8493 55.6288 53.2369 54.8809 52.8447 54.0109C52.4333 53.1572 52.2545 52.2065 52.3272 51.2583C52.4063 50.3237 52.7423 49.4306 53.2965 48.6814C53.9088 47.8563 54.7154 47.2016 55.6418 46.778C56.5106 46.3305 57.4737 46.1064 58.4471 46.1254ZM58.977 52.2372C59.0388 51.8924 58.9928 51.5365 58.8454 51.2198C58.6981 50.903 58.4567 50.6414 58.1555 50.4719C58.0148 50.4135 57.8633 50.387 57.7115 50.3942C57.5597 50.4014 57.4113 50.4422 57.2765 50.5137C57.1372 50.5739 57.0127 50.6648 56.9118 50.7798C56.811 50.8948 56.7364 51.031 56.6933 51.1788C56.6324 51.523 56.6788 51.878 56.8262 52.1939C56.9735 52.5098 57.2143 52.7707 57.5148 52.94C57.6547 53.0005 57.806 53.0289 57.9579 53.0231C58.1098 53.0173 58.2586 52.9775 58.3937 52.9065C58.5321 52.8437 58.6558 52.7515 58.7564 52.6361C58.857 52.5206 58.9322 52.3847 58.977 52.2372Z" fill="#BCDFEB"/>
<path d="M152.036 48.3467L151.511 50.087L153.026 50.3714L152.739 51.9695L151.026 51.6473L150.463 53.4462L148.82 53.1366L149.383 51.3378L147.892 51.0575L147.325 52.8563L145.682 52.5468L146.245 50.7479L144.717 50.4593L145.005 48.8654L146.73 49.1876L147.255 47.4473L145.728 47.1586L146.015 45.5648L147.74 45.8869L148.303 44.0881L149.946 44.3976L149.383 46.1965L150.878 46.4768L151.441 44.6779L153.084 44.9875L152.521 46.7863L154.053 47.0708L153.761 48.6688L152.036 48.3467ZM150.393 48.0371L148.903 47.7569L148.373 49.4971L149.868 49.7774L150.393 48.0371Z" fill="#BCDFEB"/>
<path d="M72.8433 155.996H52.397C49.4166 155.996 46.5583 154.79 44.4508 152.644C42.3434 150.497 41.1594 147.586 41.1594 144.551C41.1594 143.048 41.4501 141.56 42.0149 140.171C42.5797 138.783 43.4075 137.521 44.4511 136.459C45.4947 135.396 46.7335 134.554 48.0969 133.979C49.4603 133.404 50.9215 133.109 52.397 133.109H61.6098C63.0853 133.109 64.5465 133.404 65.9099 133.979C67.2733 134.554 68.5121 135.396 69.5557 136.459C70.5993 137.521 71.4271 138.783 71.9919 140.171C72.5567 141.56 72.8474 143.048 72.8474 144.551L72.8433 155.996Z" fill="#004CFF"/>
<path d="M57.0014 135.9C55.3203 135.899 53.6767 136.406 52.2786 137.356C50.8804 138.307 49.7906 139.659 49.1469 141.241C48.5032 142.822 48.3345 144.563 48.6623 146.242C48.9901 147.922 49.7995 149.464 50.9882 150.675C52.1769 151.886 53.6915 152.71 55.3404 153.044C56.9892 153.378 58.6982 153.206 60.2512 152.551C61.8042 151.895 63.1314 150.785 64.0648 149.361C64.9983 147.937 65.4961 146.263 65.4953 144.551C65.492 142.257 64.5961 140.059 63.0039 138.437C61.4117 136.815 59.2531 135.903 57.0014 135.9ZM49.6082 144.551C49.61 143.987 49.6748 143.426 49.8012 142.877C50.4798 142.568 51.1834 142.319 51.9042 142.133C51.6504 143.546 51.613 144.991 51.7933 146.416C51.1197 146.237 50.4214 146.019 49.7068 145.76C49.6382 145.36 49.6025 144.956 49.6 144.551H49.6082ZM53.0255 141.865C55.51 141.409 58.0562 141.429 60.5336 141.924C60.8764 143.564 60.9361 145.253 60.7103 146.914C58.1187 147.345 55.4703 147.27 52.9064 146.693C52.6389 145.091 52.6766 143.452 53.0173 141.865H53.0255ZM61.6878 142.175C62.5489 142.384 63.3988 142.638 64.2343 142.936C64.3496 143.466 64.4088 144.008 64.411 144.551C64.4073 144.972 64.3688 145.391 64.2959 145.806C63.5045 146.169 62.6788 146.449 61.8316 146.642C61.9891 145.153 61.9379 143.649 61.6796 142.175H61.6878ZM63.8236 141.618C63.0021 141.355 62.2053 141.137 61.4414 140.966C61.1894 139.915 60.8585 138.886 60.4515 137.887C61.9612 138.699 63.1494 140.017 63.8154 141.618H63.8236ZM58.9729 137.297C59.5127 138.396 59.9407 139.548 60.2502 140.735C57.9589 140.323 55.6165 140.297 53.3171 140.66C53.6508 139.515 54.1212 138.417 54.7177 137.389C55.4549 137.143 56.2256 137.017 57.0014 137.016C57.668 137.018 58.3314 137.112 58.9729 137.297ZM53.1076 138.154C52.7165 139.039 52.4005 139.955 52.1629 140.894C51.5178 141.043 50.8826 141.233 50.2612 141.463C50.868 140.098 51.8585 138.947 53.1076 138.154ZM50.0312 147.061C50.7076 147.281 51.3661 147.469 52.0069 147.625C52.2958 148.854 52.7609 150.032 53.3869 151.123C51.823 150.226 50.6309 148.783 50.0312 147.061ZM55.1777 151.855C54.2851 150.668 53.6128 149.326 53.1939 147.893C54.6137 148.172 56.0564 148.312 57.5024 148.311C58.495 148.313 59.4862 148.238 60.4679 148.09C60.1216 149.451 59.5175 150.73 58.6895 151.855C57.5341 152.139 56.3276 152.127 55.1777 151.821V151.855ZM60.4063 151.24C60.9794 150.193 61.3947 149.065 61.6385 147.893C62.414 147.724 63.176 147.496 63.9181 147.211C63.2718 148.946 62.0219 150.378 60.4063 151.236V151.24Z" fill="#FAFAFA"/>
<path d="M173.739 170.111H153.289V158.665C153.293 155.633 154.479 152.726 156.586 150.583C158.693 148.44 161.549 147.236 164.527 147.236H173.739C176.72 147.236 179.578 148.442 181.686 150.589C183.793 152.735 184.977 155.646 184.977 158.682C184.973 161.715 183.787 164.622 181.68 166.764C179.573 168.907 176.717 170.111 173.739 170.111Z" fill="#004CFF"/>
<path d="M177.547 155.394C177.547 152.156 172.491 149.374 169.135 152.169C165.775 149.374 160.719 152.169 160.719 155.394C160.719 155.394 159.631 161.74 169.135 166.346C178.635 161.74 177.547 155.394 177.547 155.394Z" stroke="#FAFAFA" stroke-width="3.81" stroke-linejoin="round"/>
<path d="M146.578 18.9839C146.45 18.9337 146.319 18.8919 146.188 18.8542C146.151 18.7245 146.11 18.5949 146.06 18.461C145.839 17.86 145.485 17.3189 145.025 16.8797C144.566 17.3189 144.211 17.86 143.99 18.461C143.941 18.5911 143.898 18.7238 143.863 18.8584C143.731 18.8961 143.6 18.9379 143.473 18.9881C142.881 19.2142 142.348 19.5764 141.916 20.0465C142.349 20.5144 142.881 20.875 143.473 21.1007C143.6 21.1509 143.727 21.1927 143.859 21.2304C143.894 21.3721 143.936 21.5117 143.986 21.6487C144.209 22.2501 144.564 22.7912 145.025 23.23C145.486 22.7912 145.842 22.2501 146.064 21.6487C146.114 21.5148 146.155 21.3851 146.192 21.2555C146.319 21.2178 146.45 21.176 146.578 21.1258C147.169 20.8989 147.702 20.5368 148.134 20.0674C147.705 19.5882 147.172 19.2172 146.578 18.9839Z" fill="#BCDFEB"/>
<path d="M6.78531 107.512C6.65387 107.461 6.52655 107.419 6.39511 107.382C6.35815 107.252 6.31707 107.122 6.26778 106.989C6.04645 106.388 5.6923 105.847 5.23274 105.407C4.77169 105.846 4.41611 106.387 4.19359 106.989C4.1443 107.122 4.10323 107.256 4.06626 107.407C3.93894 107.445 3.8075 107.486 3.65553 107.537C3.06506 107.763 2.53379 108.125 2.10297 108.595C2.5507 109.052 3.09614 109.397 3.6966 109.603C3.82804 109.653 3.95537 109.695 4.10734 109.733C4.14155 109.875 4.18407 110.014 4.23466 110.151C4.45352 110.754 4.80963 111.296 5.27381 111.732C5.73486 111.294 6.09044 110.753 6.31296 110.151C6.36225 110.021 6.40333 109.888 6.44029 109.758C6.56762 109.72 6.69905 109.678 6.82638 109.628C7.41685 109.402 7.94812 109.039 8.37894 108.57C7.93768 108.093 7.39143 107.731 6.78531 107.512Z" fill="#BCDFEB"/>
<path d="M157.31 81.8719C157.183 81.8217 157.051 81.7799 156.92 81.7422C156.883 81.6125 156.842 81.4829 156.793 81.349C156.571 80.748 156.217 80.2069 155.758 79.7677C155.298 80.2069 154.944 80.748 154.723 81.349C154.673 81.4791 154.631 81.6118 154.595 81.7464C154.464 81.7841 154.332 81.8259 154.205 81.8761C153.613 82.1022 153.08 82.4644 152.648 82.9345C153.081 83.4024 153.614 83.763 154.205 83.9887C154.332 84.0389 154.46 84.0807 154.591 84.1184C154.627 84.253 154.669 84.3857 154.719 84.5158C154.941 85.1172 155.297 85.6583 155.758 86.0971C156.213 85.6525 156.561 85.1071 156.776 84.5032C156.826 84.3694 156.867 84.2397 156.904 84.11C157.031 84.0723 157.162 84.0305 157.29 83.9803C157.882 83.7542 158.414 83.392 158.846 82.9219C158.42 82.4564 157.895 82.0971 157.31 81.8719Z" fill="#BCDFEB"/>
<path d="M211.354 27.1916L211.157 27.1289C211.141 27.062 211.12 26.9963 211.096 26.9323C210.984 26.6299 210.806 26.3578 210.574 26.1375C210.343 26.3574 210.165 26.6297 210.056 26.9323C210.03 26.9963 210.008 27.0619 209.991 27.1289C209.925 27.1468 209.86 27.1692 209.798 27.1958C209.5 27.3067 209.233 27.4873 209.017 27.7229C209.234 27.959 209.501 28.1409 209.798 28.2542C209.86 28.2795 209.925 28.3005 209.991 28.317C210.007 28.385 210.028 28.4521 210.052 28.5178C210.167 28.8096 210.346 29.0713 210.574 29.2833C210.812 29.0712 210.998 28.8046 211.116 28.5052C211.14 28.4395 211.161 28.3725 211.178 28.3044L211.375 28.2417C211.671 28.1294 211.937 27.9473 212.151 27.7104C211.929 27.4767 211.656 27.2991 211.354 27.1916Z" fill="#DBF6FF"/>
<path d="M227.352 74.275C227.288 74.2503 227.222 74.2293 227.155 74.2122C227.139 74.1453 227.118 74.0797 227.093 74.0156C226.983 73.7136 226.806 73.4416 226.576 73.2208C226.344 73.4411 226.166 73.7132 226.054 74.0156C226.03 74.0783 226.009 74.1453 225.989 74.2122C225.968 74.2791 225.861 74.254 225.796 74.2791C225.499 74.3921 225.233 74.5724 225.015 74.8062C225.233 75.0412 225.499 75.2228 225.796 75.3375C225.859 75.3622 225.923 75.3832 225.989 75.4003C226.007 75.4684 226.029 75.5355 226.054 75.6011C226.165 75.9028 226.343 76.1738 226.576 76.3917C226.806 76.1721 226.983 75.9016 227.093 75.6011C227.119 75.5355 227.141 75.4684 227.159 75.4003C227.225 75.3832 227.289 75.3622 227.352 75.3375C227.65 75.2254 227.917 75.0434 228.133 74.8062C227.916 74.5702 227.649 74.3883 227.352 74.275Z" fill="#DBF6FF"/>
<path d="M226.744 73.1706L226.547 73.1078C226.547 73.0409 226.506 72.974 226.486 72.9112C226.373 72.6098 226.194 72.3381 225.964 72.1164C225.734 72.3372 225.557 72.6092 225.447 72.9112C225.421 72.9754 225.399 73.0411 225.381 73.1078L225.184 73.1748C224.889 73.2875 224.623 73.4678 224.407 73.7019C224.623 73.9374 224.888 74.1192 225.184 74.2332C225.248 74.2579 225.314 74.2788 225.381 74.2959C225.398 74.364 225.418 74.431 225.442 74.4967C225.555 74.7984 225.733 75.0702 225.964 75.2915C226.195 75.0702 226.373 74.7984 226.486 74.4967C226.51 74.4298 226.531 74.3628 226.547 74.3001L226.744 74.2332C227.041 74.1209 227.307 73.9388 227.521 73.7019C227.304 73.4676 227.039 73.286 226.744 73.1706Z" fill="#DBF6FF"/>
<path d="M39.1879 87.5654C39.1235 87.5393 39.0576 87.517 38.9907 87.4985C38.9907 87.4315 38.9497 87.3688 38.9291 87.3019C38.815 87.0009 38.6369 86.7295 38.4075 86.507C38.1779 86.7284 38.0009 87.0003 37.89 87.3019C37.8644 87.3675 37.8425 87.4345 37.8243 87.5027L37.6271 87.5654C37.3317 87.6793 37.066 87.8611 36.8508 88.0967C37.0672 88.3298 37.3326 88.51 37.6271 88.6238C37.6916 88.6485 37.7574 88.6694 37.8243 88.6865C37.841 88.7546 37.8616 88.8216 37.8859 88.8873C37.9972 89.1897 38.1757 89.4618 38.4075 89.6822C38.6393 89.4618 38.8178 89.1897 38.9291 88.8873C38.9534 88.8231 38.974 88.7574 38.9907 88.6907C39.0576 88.6722 39.1235 88.6498 39.1879 88.6238C39.4829 88.5111 39.7485 88.3307 39.9642 88.0967C39.7502 87.8597 39.4842 87.6777 39.1879 87.5654Z" fill="#BCDFEB"/>
<path d="M10.6297 171.186L10.4326 171.123C10.4164 171.056 10.3958 170.991 10.371 170.927C10.2597 170.624 10.0811 170.352 9.84934 170.132C9.61903 170.353 9.44192 170.625 9.33181 170.927C9.30717 170.989 9.28663 171.056 9.2661 171.123C9.24556 171.19 9.13877 171.165 9.07305 171.19C8.77654 171.302 8.50947 171.483 8.29266 171.717C8.50904 171.953 8.77614 172.135 9.07305 172.248C9.13616 172.273 9.20061 172.294 9.2661 172.311C9.28241 172.38 9.3044 172.447 9.33181 172.512C9.44486 172.813 9.62479 173.084 9.85755 173.303C10.0902 173.085 10.269 172.814 10.3792 172.512C10.4038 172.445 10.4244 172.378 10.4449 172.311C10.5104 172.294 10.5748 172.273 10.6379 172.248C10.9349 172.135 11.202 171.953 11.4183 171.717C11.1987 171.481 10.9289 171.299 10.6297 171.186Z" fill="#BCDFEB"/>
<path d="M121.141 45.5983C121.077 45.5736 121.011 45.5526 120.944 45.5355C120.927 45.4674 120.907 45.4004 120.882 45.3347C120.772 45.0342 120.595 44.7637 120.365 44.5441C120.134 44.7632 119.955 45.0338 119.843 45.3347C119.819 45.4004 119.798 45.4674 119.782 45.5355C119.715 45.554 119.649 45.5764 119.585 45.6024C119.288 45.7154 119.022 45.8957 118.804 46.1295C119.022 46.3634 119.288 46.5437 119.585 46.6566C119.648 46.6827 119.712 46.705 119.778 46.7236C119.796 46.7917 119.818 46.8588 119.843 46.9244C119.954 47.2261 120.132 47.4971 120.365 47.715C120.595 47.4948 120.773 47.2245 120.887 46.9244C120.907 46.8574 120.932 46.7905 120.948 46.7236C121.014 46.7065 121.078 46.6855 121.141 46.6608C121.438 46.5475 121.705 46.3656 121.922 46.1295C121.705 45.8935 121.438 45.7116 121.141 45.5983Z" fill="#BCDFEB"/>
<path d="M45.7103 18.666L45.5172 18.5991C45.5172 18.5363 45.4762 18.4694 45.4515 18.4025C45.3409 18.102 45.1638 17.8314 44.934 17.6118C44.7022 17.8322 44.5237 18.1042 44.4124 18.4066C44.3881 18.4723 44.3676 18.5394 44.3508 18.6074C44.2839 18.6245 44.2181 18.6455 44.1536 18.6702C43.8574 18.7849 43.5906 18.9665 43.3732 19.2015C43.5906 19.4354 43.8575 19.6156 44.1536 19.7286L44.3467 19.7955C44.3467 19.8624 44.3877 19.9294 44.4124 19.9921C44.5215 20.2957 44.7003 20.5682 44.934 20.787C45.165 20.5659 45.3434 20.2941 45.4556 19.9921C45.4805 19.9281 45.5011 19.8624 45.5172 19.7955C45.5827 19.7784 45.6472 19.7575 45.7103 19.7328C46.0072 19.6194 46.2743 19.4376 46.4907 19.2015C46.2756 18.9628 46.0082 18.7793 45.7103 18.666Z" fill="#BCDFEB"/>
<path d="M206.906 89.9875L206.709 89.9206C206.709 89.8578 206.668 89.7909 206.647 89.724C206.533 89.423 206.355 89.1516 206.126 88.9291C205.896 89.1505 205.719 89.4224 205.608 89.724C205.583 89.7896 205.561 89.8566 205.542 89.9248C205.476 89.9419 205.41 89.9628 205.345 89.9875C205.05 90.1014 204.784 90.2833 204.569 90.5188C204.785 90.7528 205.05 90.9332 205.345 91.0459L205.542 91.1128C205.559 91.1795 205.58 91.2452 205.604 91.3095C205.715 91.6119 205.894 91.8839 206.126 92.1043C206.357 91.8839 206.536 91.6119 206.647 91.3095C206.672 91.2454 206.693 91.1797 206.709 91.1128L206.906 91.0501C207.201 90.9347 207.466 90.7531 207.682 90.5188C207.468 90.2818 207.202 90.0998 206.906 89.9875Z" fill="#BCDFEB"/>
<path d="M129.828 62.2814C129.764 62.2567 129.698 62.2357 129.631 62.2186C129.614 62.1505 129.594 62.0835 129.569 62.0178C129.458 61.7169 129.279 61.4464 129.048 61.2272C128.818 61.4468 128.641 61.7173 128.53 62.0178C128.505 62.0834 128.483 62.1505 128.465 62.2186C128.399 62.2365 128.334 62.2589 128.271 62.2856C127.974 62.3965 127.707 62.577 127.491 62.8127C127.708 63.0479 127.975 63.2296 128.271 63.3439C128.334 63.3692 128.399 63.3902 128.465 63.4067C128.481 63.4748 128.502 63.5418 128.526 63.6075C128.638 63.9084 128.816 64.179 129.048 64.3981C129.28 64.1802 129.459 63.9092 129.569 63.6075C129.594 63.5418 129.614 63.4748 129.631 63.4067C129.698 63.3896 129.764 63.3686 129.828 63.3439C130.124 63.2317 130.39 63.0496 130.604 62.8127C130.389 62.5771 130.124 62.3953 129.828 62.2814Z" fill="#DBF6FF"/>
<path d="M100.465 30.8939C100.352 30.8487 100.237 30.8109 100.12 30.7809C100.087 30.6638 100.05 30.5508 100.009 30.4337C99.8135 29.9045 99.5016 29.428 99.0972 29.0406C98.6928 29.428 98.3809 29.9045 98.1854 30.4337C98.1443 30.5508 98.1073 30.668 98.0745 30.7809C97.9589 30.8137 97.8451 30.8528 97.7336 30.898C97.2133 31.0957 96.7451 31.4136 96.3658 31.8267C96.7522 32.2401 97.2274 32.5566 97.7541 32.7513C97.8638 32.7964 97.9763 32.8341 98.0909 32.8642C98.1238 32.9813 98.1607 33.0985 98.2059 33.2156C98.3984 33.7464 98.7107 34.2236 99.1178 34.6087C99.5245 34.2225 99.838 33.7457 100.034 33.2156C100.075 33.0985 100.112 32.9855 100.145 32.8684C100.26 32.8377 100.374 32.8 100.485 32.7554C101.004 32.556 101.47 32.2383 101.849 31.8267C101.466 31.4099 100.992 31.0904 100.465 30.8939Z" fill="#BCDFEB"/>
<path d="M30.735 64.67C30.62 64.624 30.505 64.5864 30.39 64.5529C30.3572 64.44 30.3202 64.3228 30.2791 64.2099C30.0836 63.6807 29.7717 63.2042 29.3673 62.8168C28.9629 63.2042 28.651 63.6807 28.4555 64.2099C28.4144 64.327 28.3774 64.44 28.3446 64.5571C28.2289 64.5898 28.1151 64.6289 28.0037 64.6742C27.4835 64.8701 27.0152 65.1866 26.6359 65.5987C27.0165 66.0073 27.4846 66.3209 28.0037 66.5149C28.1134 66.56 28.2259 66.5978 28.3405 66.6278C28.3733 66.745 28.4103 66.8621 28.4555 66.9792C28.6471 67.5092 28.9596 67.9853 29.3673 68.3681C29.7747 67.9842 30.0884 67.5086 30.2832 66.9792C30.3243 66.8621 30.3613 66.7492 30.3941 66.632L30.735 66.5191C31.2543 66.3196 31.721 66.0003 32.0987 65.5862C31.7207 65.1764 31.2537 64.8626 30.735 64.67Z" fill="#BCDFEB"/>
<path d="M178.11 53.4337C177.995 53.3876 177.88 53.35 177.769 53.3165C177.736 53.2036 177.699 53.0864 177.654 52.9735C177.461 52.4437 177.151 51.9668 176.746 51.5804C176.34 51.9667 176.028 52.4436 175.834 52.9735C175.79 53.0866 175.753 53.2026 175.723 53.3207C175.608 53.3542 175.493 53.3918 175.378 53.4337C174.86 53.632 174.393 53.9499 174.015 54.3624C174.393 54.7748 174.86 55.0927 175.378 55.2911C175.489 55.3362 175.603 55.374 175.719 55.404C175.749 55.5235 175.786 55.6408 175.83 55.7554C176.025 56.2847 176.339 56.7603 176.746 57.1443C177.154 56.7614 177.466 56.2854 177.658 55.7554C177.702 55.6423 177.739 55.5263 177.769 55.4082C177.884 55.3747 177.999 55.3371 178.11 55.2952C178.633 55.1037 179.105 54.7916 179.49 54.3833C179.11 53.9595 178.637 53.6339 178.11 53.4337Z" fill="#DBF6FF"/>
<path d="M246.369 37.8047C246.254 37.7629 246.139 37.7211 246.024 37.6918C245.995 37.5737 245.958 37.4577 245.913 37.3446C245.717 36.8229 245.405 36.3546 245.001 35.9766C244.596 36.3607 244.285 36.8365 244.094 37.3655C244.048 37.4826 244.012 37.5998 243.979 37.7169C243.863 37.7469 243.749 37.7847 243.638 37.8298C243.117 38.0275 242.649 38.3454 242.27 38.7585C242.649 39.1706 243.118 39.4872 243.638 39.6831C243.749 39.7283 243.863 39.7674 243.979 39.8002C244.009 39.9181 244.046 40.034 244.09 40.1474C244.284 40.6773 244.596 41.1542 245.001 41.5404C245.408 41.1543 245.722 40.6775 245.917 40.1474C245.958 40.0345 245.995 39.9173 246.028 39.8002C246.144 39.7701 246.258 39.7324 246.369 39.6872C246.89 39.4921 247.357 39.1738 247.733 38.7585C247.358 38.336 246.891 38.0092 246.369 37.8047Z" fill="#DBF6FF"/>
<path d="M174.754 16.3149C174.642 16.2697 174.526 16.232 174.409 16.202C174.38 16.0839 174.342 15.9679 174.298 15.8548C174.103 15.3256 173.791 14.8491 173.386 14.4617C172.982 14.848 172.671 15.325 172.479 15.8548C172.433 15.9719 172.396 16.089 172.364 16.202C172.249 16.2355 172.138 16.2731 172.023 16.3191C171.502 16.5168 171.034 16.8347 170.655 17.2478C171.035 17.6585 171.503 17.9748 172.023 18.1723C172.132 18.2175 172.245 18.2552 172.359 18.2853C172.392 18.4024 172.429 18.5196 172.474 18.6367C172.667 19.1675 172.979 19.6447 173.386 20.0297C173.793 19.6436 174.107 19.1668 174.302 18.6367C174.343 18.5196 174.38 18.4066 174.413 18.2895C174.529 18.2594 174.643 18.2217 174.754 18.1765C175.273 17.9782 175.739 17.6603 176.118 17.2478C175.741 16.8329 175.274 16.5134 174.754 16.3149Z" fill="#DBF6FF"/>
</svg>
