<svg width="270" height="173" viewBox="0 0 270 173" fill="none" xmlns="http://www.w3.org/2000/svg">
<path d="M200 20.3333C204.602 20.3333 208.333 16.6023 208.333 12C208.333 7.39759 204.602 3.66663 200 3.66663C195.398 3.66663 191.667 7.39759 191.667 12C191.667 16.6023 195.398 20.3333 200 20.3333Z" stroke="#FEFDFD" stroke-linecap="round" stroke-linejoin="round"/>
<path d="M200 7V12L203.333 13.6667" stroke="#FEFDFD" stroke-linecap="round" stroke-linejoin="round"/>
<path d="M56.0008 73.32V90H53.2648V73.32H56.0008ZM71.665 78.12C71.233 77.288 70.633 76.664 69.865 76.248C69.097 75.816 68.209 75.6 67.201 75.6C66.097 75.6 65.113 75.848 64.249 76.344C63.385 76.84 62.705 77.544 62.209 78.456C61.729 79.368 61.489 80.424 61.489 81.624C61.489 82.824 61.729 83.888 62.209 84.816C62.705 85.728 63.385 86.432 64.249 86.928C65.113 87.424 66.097 87.672 67.201 87.672C68.689 87.672 69.897 87.256 70.825 86.424C71.753 85.592 72.321 84.464 72.529 83.04H66.265V80.856H75.457V82.992C75.281 84.288 74.817 85.48 74.065 86.568C73.329 87.656 72.361 88.528 71.161 89.184C69.977 89.824 68.657 90.144 67.201 90.144C65.633 90.144 64.201 89.784 62.905 89.064C61.609 88.328 60.577 87.312 59.809 86.016C59.057 84.72 58.681 83.256 58.681 81.624C58.681 79.992 59.057 78.528 59.809 77.232C60.577 75.936 61.609 74.928 62.905 74.208C64.217 73.472 65.649 73.104 67.201 73.104C68.977 73.104 70.553 73.544 71.929 74.424C73.321 75.288 74.329 76.52 74.953 78.12H71.665ZM91.8595 90H89.1235L80.8915 77.544V90H78.1555V73.296H80.8915L89.1235 85.728V73.296H91.8595V90ZM105.604 80.16V82.464H95.7403V80.16H105.604ZM112.203 73.32V83.952C112.203 85.216 112.531 86.168 113.187 86.808C113.859 87.448 114.787 87.768 115.971 87.768C117.171 87.768 118.099 87.448 118.755 86.808C119.427 86.168 119.763 85.216 119.763 83.952V73.32H122.499V83.904C122.499 85.264 122.203 86.416 121.611 87.36C121.019 88.304 120.227 89.008 119.235 89.472C118.243 89.936 117.147 90.168 115.947 90.168C114.747 90.168 113.651 89.936 112.659 89.472C111.683 89.008 110.907 88.304 110.331 87.36C109.755 86.416 109.467 85.264 109.467 83.904V73.32H112.203ZM137.726 78.288C137.726 79.136 137.526 79.936 137.126 80.688C136.726 81.44 136.086 82.056 135.206 82.536C134.326 83 133.198 83.232 131.822 83.232H128.798V90H126.062V73.32H131.822C133.102 73.32 134.182 73.544 135.062 73.992C135.958 74.424 136.622 75.016 137.054 75.768C137.502 76.52 137.726 77.36 137.726 78.288ZM131.822 81C132.862 81 133.638 80.768 134.15 80.304C134.662 79.824 134.918 79.152 134.918 78.288C134.918 76.464 133.886 75.552 131.822 75.552H128.798V81H131.822Z" fill="#F1F1F1"/>
<rect y="35" width="47" height="55" rx="5" fill="#F1F1F1"/>
<path d="M24.3344 90.8C18.0678 90.8 12.9344 89.3667 8.93445 86.5C5.00111 83.5667 2.80111 79.6 2.33444 74.6H9.53445C9.86778 77.6667 11.3011 80.1667 13.8344 82.1C16.4344 83.9667 19.9011 84.9 24.2344 84.9C28.0344 84.9 31.0011 84 33.1344 82.2C35.3344 80.4 36.4344 78.1667 36.4344 75.5C36.4344 73.6333 35.8344 72.1 34.6344 70.9C33.4344 69.7 31.9011 68.7667 30.0344 68.1C28.2344 67.3667 25.7678 66.6 22.6344 65.8C18.5678 64.7333 15.2678 63.6667 12.7344 62.6C10.2011 61.5333 8.03445 59.9667 6.23445 57.9C4.50111 55.7667 3.63445 52.9333 3.63445 49.4C3.63445 46.7333 4.43445 44.2667 6.03444 42C7.63445 39.7333 9.90111 37.9333 12.8344 36.6C15.7678 35.2667 19.1011 34.6 22.8344 34.6C28.7011 34.6 33.4344 36.1 37.0344 39.1C40.6344 42.0333 42.5678 46.1 42.8344 51.3H35.8344C35.6344 48.1 34.3678 45.5333 32.0344 43.6C29.7678 41.6 26.6344 40.6 22.6344 40.6C19.1011 40.6 16.2344 41.4333 14.0344 43.1C11.8344 44.7667 10.7344 46.8333 10.7344 49.3C10.7344 51.4333 11.3678 53.2 12.6344 54.6C13.9678 55.9333 15.6011 57 17.5344 57.8C19.4678 58.5333 22.0678 59.3667 25.3344 60.3C29.2678 61.3667 32.4011 62.4 34.7344 63.4C37.0678 64.4 39.0678 65.8667 40.7344 67.8C42.4011 69.7333 43.2678 72.3 43.3344 75.5C43.3344 78.4333 42.5344 81.0667 40.9344 83.4C39.3344 85.6667 37.1011 87.4667 34.2344 88.8C31.3678 90.1333 28.0678 90.8 24.3344 90.8Z" fill="#003343"/>
<path d="M8.27037 106.418V107.462H2.72637V112.16H7.40637V113.204H2.72637V119H1.46637V106.418H8.27037ZM14.6453 119.144C13.7213 119.144 12.8873 118.94 12.1433 118.532C11.4113 118.112 10.8293 117.524 10.3973 116.768C9.97732 116 9.76732 115.106 9.76732 114.086C9.76732 113.066 9.98332 112.178 10.4153 111.422C10.8473 110.654 11.4353 110.066 12.1793 109.658C12.9233 109.238 13.7573 109.028 14.6813 109.028C15.6053 109.028 16.4393 109.238 17.1833 109.658C17.9393 110.066 18.5273 110.654 18.9473 111.422C19.3793 112.178 19.5953 113.066 19.5953 114.086C19.5953 115.094 19.3793 115.982 18.9473 116.75C18.5153 117.518 17.9213 118.112 17.1653 118.532C16.4093 118.94 15.5693 119.144 14.6453 119.144ZM14.6453 118.046C15.2933 118.046 15.8933 117.902 16.4453 117.614C16.9973 117.314 17.4413 116.87 17.7773 116.282C18.1253 115.682 18.2993 114.95 18.2993 114.086C18.2993 113.222 18.1313 112.496 17.7953 111.908C17.4593 111.308 17.0153 110.864 16.4633 110.576C15.9113 110.276 15.3113 110.126 14.6633 110.126C14.0153 110.126 13.4153 110.276 12.8633 110.576C12.3113 110.864 11.8673 111.308 11.5313 111.908C11.2073 112.496 11.0453 113.222 11.0453 114.086C11.0453 114.95 11.2073 115.682 11.5313 116.282C11.8673 116.87 12.3053 117.314 12.8453 117.614C13.3973 117.902 13.9973 118.046 14.6453 118.046ZM23.1521 110.918C23.4281 110.306 23.8481 109.832 24.4121 109.496C24.9881 109.16 25.6901 108.992 26.5181 108.992V110.306H26.1761C25.2641 110.306 24.5321 110.552 23.9801 111.044C23.4281 111.536 23.1521 112.358 23.1521 113.51V119H21.8921V109.172H23.1521V110.918Z" fill="#F1F1F1"/>
<path d="M195.643 120H194.383L187.417 109.416V120H186.157V107.418H187.417L194.383 117.984V107.418H195.643V120ZM202.799 120.144C201.875 120.144 201.041 119.94 200.297 119.532C199.565 119.112 198.983 118.524 198.551 117.768C198.131 117 197.921 116.106 197.921 115.086C197.921 114.066 198.137 113.178 198.569 112.422C199.001 111.654 199.589 111.066 200.333 110.658C201.077 110.238 201.911 110.028 202.835 110.028C203.759 110.028 204.593 110.238 205.337 110.658C206.093 111.066 206.681 111.654 207.101 112.422C207.533 113.178 207.749 114.066 207.749 115.086C207.749 116.094 207.533 116.982 207.101 117.75C206.669 118.518 206.075 119.112 205.319 119.532C204.563 119.94 203.723 120.144 202.799 120.144ZM202.799 119.046C203.447 119.046 204.047 118.902 204.599 118.614C205.151 118.314 205.595 117.87 205.931 117.282C206.279 116.682 206.453 115.95 206.453 115.086C206.453 114.222 206.285 113.496 205.949 112.908C205.613 112.308 205.169 111.864 204.617 111.576C204.065 111.276 203.465 111.126 202.817 111.126C202.169 111.126 201.569 111.276 201.017 111.576C200.465 111.864 200.021 112.308 199.685 112.908C199.361 113.496 199.199 114.222 199.199 115.086C199.199 115.95 199.361 116.682 199.685 117.282C200.021 117.87 200.459 118.314 200.999 118.614C201.551 118.902 202.151 119.046 202.799 119.046ZM223.005 110.172L219.927 120H218.667L215.949 111.756L213.231 120H211.953L208.875 110.172H210.153L212.601 118.722L215.355 110.172H216.615L219.333 118.74L221.763 110.172H223.005Z" fill="#F1F1F1"/>
<path d="M142.989 105.172H141.956V106.377C141.956 106.686 142.074 107.065 142.605 107.065H143.638V105.86C143.638 105.585 143.549 105.172 142.989 105.172Z" fill="#FEFEFF"/>
<path d="M142.9 109.061H142.074V119.008C142.074 119.421 142.31 119.696 142.635 119.73V119.765H143.579V109.784C143.549 109.336 143.343 109.061 142.9 109.061Z" fill="#FEFEFF"/>
<path d="M92.9268 116.839C92.5728 116.426 92.1303 116.53 91.8648 116.805C90.7733 117.872 89.7703 118.285 88.4723 118.285C85.8763 118.285 83.8113 115.738 83.8113 112.468C83.8113 109.199 85.8173 106.686 88.4723 106.686C89.7408 106.686 90.8028 107.134 91.8058 108.132C92.0418 108.373 92.4548 108.476 92.7498 108.098C93.0153 107.788 93.2808 107.444 93.2808 107.444L93.3398 107.375L93.2808 107.306C92.2188 106.101 90.8913 105 88.4723 105C84.9618 105 82.2478 108.304 82.2478 112.503C82.2478 116.736 84.9028 119.937 88.4428 119.937C90.4193 119.937 91.8648 119.18 93.3398 117.39L93.3693 117.321L93.3398 117.252C93.3398 117.321 93.2513 117.184 92.9268 116.839Z" fill="#FEFEFF"/>
<path d="M115.347 108.82C114.049 108.82 113.016 109.474 112.22 110.782C111.866 109.956 111.04 108.751 109.329 108.751C107.854 108.751 107.057 109.646 106.467 110.541V109.784C106.467 109.268 106.202 108.958 105.789 108.958H104.963V119.662H105.789C106.202 119.662 106.438 119.524 106.438 118.939V113.604C106.438 111.746 107.47 110.369 108.857 110.369C110.273 110.369 111.099 111.505 111.099 113.432V118.939C111.099 119.455 111.335 119.696 111.748 119.696H112.574V113.57C112.574 111.367 113.783 110.403 114.993 110.403C116.438 110.403 117.264 111.539 117.264 113.467V118.836C117.264 119.283 117.353 119.696 117.943 119.696H118.739V113.122C118.769 110.472 117.471 108.82 115.347 108.82Z" fill="#FEFEFF"/>
<path d="M125.996 108.855C124.639 108.855 123.518 109.543 122.604 111.023V109.922C122.604 109.371 122.338 109.096 121.866 109.096H121.129V122.243C121.129 122.759 121.335 123 121.778 123H122.604V117.906C123.518 119.283 124.61 119.971 125.996 119.971C128.12 119.971 130.362 118.01 130.362 114.396C130.362 110.782 128.12 108.855 125.996 108.855ZM128.828 114.396C128.828 116.736 127.56 118.354 125.731 118.354C124.167 118.354 122.545 116.839 122.545 114.361C122.545 111.883 124.167 110.369 125.731 110.369C127.265 110.403 128.828 111.78 128.828 114.396Z" fill="#FEFEFF"/>
<path d="M153.284 109.818V110.713C152.665 109.784 151.573 108.751 149.833 108.751C148.741 108.751 147.649 109.233 146.853 110.094C145.997 111.023 145.525 112.365 145.525 113.811C145.525 117.08 147.738 118.836 149.833 118.836C151.19 118.836 152.34 118.182 153.314 116.805V117.838C153.314 120.178 152.134 121.52 150.128 121.52C149.154 121.52 148.21 121.245 147.325 120.66C147.089 120.488 146.912 120.419 146.764 120.419C146.587 120.419 146.41 120.522 146.292 120.763C146.056 121.21 145.968 121.417 145.968 121.417L145.938 121.486L145.997 121.52C147.207 122.518 148.594 123 150.128 123C153.078 123 154.789 121.107 154.789 117.803V109.027H153.963C153.697 109.027 153.284 109.302 153.284 109.818ZM153.373 113.914C153.373 116.117 151.721 117.425 150.128 117.425C148.387 117.425 147.089 115.91 147.089 113.914C147.089 111.883 148.387 110.438 150.128 110.438C151.691 110.403 153.373 111.608 153.373 113.914Z" fill="#FEFEFF"/>
<path d="M161.751 108.855C160.453 108.855 159.45 109.474 158.742 110.713V109.818C158.742 109.302 158.388 109.096 158.034 109.096H157.208V119.799H158.712L158.683 113.673C158.683 111.78 159.774 110.472 161.338 110.472C162.872 110.472 163.757 111.608 163.757 113.57V119.077C163.757 119.593 163.963 119.799 164.347 119.799H165.232V113.122C165.261 110.507 163.904 108.855 161.751 108.855Z" fill="#FEFEFF"/>
<path d="M135.909 108.889C134.758 108.889 133.725 109.164 132.604 109.749L132.545 109.784L132.575 109.853C132.575 109.853 132.722 110.335 132.84 110.679C132.958 111.023 133.312 111.057 133.578 110.92C134.345 110.575 135.024 110.403 135.791 110.403C137.472 110.403 138.387 111.401 138.387 113.191V115.772C138.387 117.39 137.148 118.526 135.437 118.526C134.375 118.526 133.224 117.906 133.224 116.53C133.224 115.222 134.138 114.499 135.791 114.499H136.528C136.971 114.499 137.177 114.258 137.177 113.776V113.191H135.643C133.135 113.191 131.719 114.43 131.719 116.564C131.719 118.182 132.781 119.971 135.171 119.971C136.469 119.971 137.561 119.386 138.357 118.285V119.008C138.357 119.489 138.564 119.696 139.006 119.696H139.832V113.157C139.803 110.438 138.416 108.889 135.909 108.889Z" fill="#FEFEFF"/>
<path d="M98.7678 108.889C97.3517 108.889 96.3487 109.302 95.4637 109.749L95.4047 109.818L95.4342 109.887C95.4342 109.887 95.5817 110.369 95.6997 110.713C95.8177 111.057 96.1717 111.092 96.4372 110.954C97.2042 110.61 97.8828 110.438 98.6498 110.438C100.331 110.438 101.275 111.436 101.275 113.226V115.772C101.275 117.39 100.036 118.526 98.3253 118.526C97.2632 118.526 96.1422 117.906 96.1422 116.53C96.1422 115.222 97.0567 114.499 98.6793 114.499H99.4168C99.8593 114.499 100.066 114.258 100.066 113.776V113.191H98.5613C96.0537 113.191 94.6082 114.43 94.6082 116.564C94.6082 118.182 95.6702 119.971 98.0303 119.971C99.3283 119.971 100.42 119.386 101.246 118.285V119.008C101.246 119.489 101.452 119.696 101.865 119.696H102.691V113.157C102.662 110.438 101.275 108.889 98.7678 108.889Z" fill="#FEFEFF"/>
<path d="M180.424 112.881C180.218 112.675 171.81 105.826 171.427 105.551L171.309 105.447V107.134C171.309 107.684 171.545 107.857 171.84 108.132L171.899 108.166C172.312 108.51 178.3 113.363 179.097 114.017C178.3 114.671 172.223 119.593 171.84 119.868C171.368 120.212 171.338 120.453 171.338 120.935V122.553C171.338 122.553 180.277 115.291 180.454 115.119C180.867 114.774 180.955 114.327 180.955 114.052V113.845C180.955 113.501 180.778 113.157 180.424 112.881Z" fill="#FEFEFF"/>
<path d="M175.173 114.774C175.409 114.774 175.645 114.671 175.881 114.465C176.176 114.224 176.442 114.017 176.442 114.017L176.53 113.948L176.442 113.879C176.412 113.845 172.489 110.679 172.076 110.369C171.899 110.197 171.663 110.162 171.515 110.266C171.368 110.369 171.25 110.541 171.25 110.816V111.883L171.279 111.918C171.309 111.952 173.993 114.12 174.524 114.533C174.76 114.705 174.967 114.774 175.173 114.774Z" fill="#FEFEFF"/>
<path d="M50.0631 117.287C49.7386 116.908 49.3256 117.149 49.1486 117.321C48.4701 118.044 47.7031 118.388 46.8771 118.388C45.0776 118.388 43.6616 116.633 43.6616 114.361C43.6616 112.124 45.0481 110.369 46.7886 110.369C47.7916 110.369 48.4406 110.885 48.9716 111.367C49.3551 111.746 49.6796 111.78 49.9451 111.436C50.1811 111.161 50.4466 110.816 50.4466 110.816L50.5056 110.748L50.4466 110.679C49.4141 109.371 48.2636 108.786 46.7886 108.786C44.1631 108.786 42.0686 111.229 42.0686 114.361C42.0686 117.425 44.1926 119.937 46.7886 119.937C48.7061 119.937 49.7976 118.801 50.5056 117.838H50.5646L50.5056 117.769C50.5056 117.769 50.3581 117.631 50.0631 117.287Z" fill="#FEFEFF"/>
<path d="M59.8572 105.172H58.8246V106.377C58.8246 106.686 58.9426 107.065 59.4736 107.065H60.5062V105.998C60.5357 105.516 60.2702 105.172 59.8572 105.172Z" fill="#FEFEFF"/>
<path d="M59.7391 109.061H58.8836V119.008C58.8836 119.421 59.1196 119.696 59.4441 119.73V119.765H60.3881V109.784C60.4176 109.336 60.1816 109.061 59.7391 109.061Z" fill="#FEFEFF"/>
<path d="M69.4447 109.646C69.3267 110.025 67.0847 116.358 66.6422 117.528C66.2292 116.323 63.9872 109.99 63.8692 109.646C63.7217 109.233 63.4267 108.992 63.0432 108.992H61.9812L62.0402 109.096C62.0697 109.233 65.6392 118.836 65.7867 119.214C65.9342 119.662 66.1702 119.765 66.5537 119.765H66.7307C67.0847 119.765 67.3207 119.593 67.4682 119.214C67.6157 118.836 71.1852 109.302 71.2147 109.199L71.2737 109.061H70.2412C69.8577 109.061 69.5922 109.233 69.4447 109.646Z" fill="#FEFEFF"/>
<path d="M78.6782 113.776H75.1677C74.7842 113.776 74.5482 114.052 74.5482 114.499V115.187H74.6367C76.3182 115.153 78.2652 115.153 79.0617 115.153C79.5337 115.153 79.8877 115.015 80.1532 114.706C80.3892 114.396 80.5072 113.914 80.4777 113.363C80.2122 110.61 78.5307 108.82 76.2297 108.82C73.7222 108.82 71.8047 111.229 71.8047 114.396C71.8047 117.597 73.7812 119.971 76.4067 119.971C77.9407 119.971 79.0912 119.352 80.1827 117.975L80.2417 117.906L80.1827 117.838C80.1827 117.838 79.9762 117.631 79.7402 117.39C79.3862 117.046 79.0617 117.184 78.8847 117.39C78.2357 118.078 77.4392 118.423 76.4657 118.423C74.7842 118.423 73.5452 117.012 73.3387 114.912C73.3387 114.912 73.3092 114.671 73.3092 114.361C73.3092 114.017 73.3387 113.776 73.3387 113.776C73.5157 111.711 74.6957 110.266 76.2002 110.266C77.7047 110.266 78.7962 111.436 78.9437 113.226C78.9732 113.398 78.9437 113.535 78.9142 113.604C78.8257 113.742 78.7667 113.776 78.6782 113.776Z" fill="#FEFEFF"/>
<path d="M36.257 105.723C36.08 105.31 35.8735 105.172 35.49 105.172H35.136C34.841 105.172 34.5755 105.378 34.428 105.688C34.31 105.998 29.118 119.489 29.059 119.627L29 119.765H29.9735C30.3865 119.765 30.652 119.558 30.8585 119.076C31.0355 118.663 31.891 116.392 32.0385 116.013H35.844C36.316 116.013 36.611 115.669 36.611 115.153V114.396H32.6285L35.313 107.375C35.8735 108.82 39.62 118.801 39.797 119.214C40.033 119.765 40.5935 119.765 40.7705 119.765H41.6556L41.5966 119.627C41.5966 119.489 36.434 106.17 36.257 105.723Z" fill="#FEFEFF"/>
<path d="M56.7007 118.216C56.5532 118.113 56.3467 118.078 56.1402 118.147C55.8157 118.251 55.5797 118.319 55.2847 118.319C54.3406 118.319 53.8391 117.769 53.8391 116.633V110.61H56.7007V109.887C56.7007 109.337 56.2877 109.061 55.9337 109.061H53.8096V106.033C53.8096 105.551 53.5146 105.207 53.0721 105.207H52.3346V116.874C52.3346 118.836 53.2491 119.937 54.9602 119.937C55.6092 119.937 56.3467 119.765 56.8187 119.49L56.8482 119.455V119.421C56.8482 119.421 56.8777 119.111 56.8777 118.732C56.9072 118.457 56.7892 118.319 56.7007 118.216Z" fill="#FEFEFF"/>
<path d="M4.28742 15.78H8.88742V18H1.48742V4.04H4.28742V15.78ZM12.0871 5.6C11.5938 5.6 11.1804 5.44667 10.8471 5.14C10.5271 4.82 10.3671 4.42667 10.3671 3.96C10.3671 3.49333 10.5271 3.10667 10.8471 2.8C11.1804 2.48 11.5938 2.32 12.0871 2.32C12.5804 2.32 12.9871 2.48 13.3071 2.8C13.6404 3.10667 13.8071 3.49333 13.8071 3.96C13.8071 4.42667 13.6404 4.82 13.3071 5.14C12.9871 5.44667 12.5804 5.6 12.0871 5.6ZM13.4671 6.92V18H10.6671V6.92H13.4671ZM29.9935 6.76C31.3535 6.76 32.4468 7.18 33.2735 8.02C34.1135 8.84667 34.5335 10.0067 34.5335 11.5V18H31.7335V11.88C31.7335 11.0133 31.5135 10.3533 31.0735 9.9C30.6335 9.43333 30.0335 9.2 29.2735 9.2C28.5135 9.2 27.9068 9.43333 27.4535 9.9C27.0135 10.3533 26.7935 11.0133 26.7935 11.88V18H23.9935V11.88C23.9935 11.0133 23.7735 10.3533 23.3335 9.9C22.8935 9.43333 22.2935 9.2 21.5335 9.2C20.7602 9.2 20.1468 9.43333 19.6935 9.9C19.2535 10.3533 19.0335 11.0133 19.0335 11.88V18H16.2335V6.92H19.0335V8.26C19.3935 7.79333 19.8535 7.42667 20.4135 7.16C20.9868 6.89333 21.6135 6.76 22.2935 6.76C23.1602 6.76 23.9335 6.94667 24.6135 7.32C25.2935 7.68 25.8202 8.2 26.1935 8.88C26.5535 8.24 27.0735 7.72667 27.7535 7.34C28.4468 6.95333 29.1935 6.76 29.9935 6.76ZM38.6105 5.6C38.1172 5.6 37.7039 5.44667 37.3705 5.14C37.0505 4.82 36.8905 4.42667 36.8905 3.96C36.8905 3.49333 37.0505 3.10667 37.3705 2.8C37.7039 2.48 38.1172 2.32 38.6105 2.32C39.1039 2.32 39.5105 2.48 39.8305 2.8C40.1639 3.10667 40.3305 3.49333 40.3305 3.96C40.3305 4.42667 40.1639 4.82 39.8305 5.14C39.5105 5.44667 39.1039 5.6 38.6105 5.6ZM39.9905 6.92V18H37.1905V6.92H39.9905ZM46.017 9.22V14.58C46.017 14.9533 46.1036 15.2267 46.277 15.4C46.4636 15.56 46.7703 15.64 47.197 15.64H48.497V18H46.737C44.377 18 43.197 16.8533 43.197 14.56V9.22H41.877V6.92H43.197V4.18H46.017V6.92H48.497V9.22H46.017ZM60.8109 12.22C60.8109 12.62 60.7842 12.98 60.7309 13.3H52.6309C52.6975 14.1 52.9775 14.7267 53.4709 15.18C53.9642 15.6333 54.5709 15.86 55.2909 15.86C56.3309 15.86 57.0709 15.4133 57.5109 14.52H60.5309C60.2109 15.5867 59.5975 16.4667 58.6909 17.16C57.7842 17.84 56.6709 18.18 55.3509 18.18C54.2842 18.18 53.3242 17.9467 52.4709 17.48C51.6309 17 50.9709 16.3267 50.4909 15.46C50.0242 14.5933 49.7909 13.5933 49.7909 12.46C49.7909 11.3133 50.0242 10.3067 50.4909 9.44C50.9575 8.57333 51.6109 7.90667 52.4509 7.44C53.2909 6.97333 54.2575 6.74 55.3509 6.74C56.4042 6.74 57.3442 6.96667 58.1709 7.42C59.0109 7.87333 59.6575 8.52 60.1109 9.36C60.5775 10.1867 60.8109 11.14 60.8109 12.22ZM57.9109 11.42C57.8975 10.7 57.6375 10.1267 57.1309 9.7C56.6242 9.26 56.0042 9.04 55.2709 9.04C54.5775 9.04 53.9909 9.25333 53.5109 9.68C53.0442 10.0933 52.7575 10.6733 52.6509 11.42H57.9109ZM62.1346 12.42C62.1346 11.3 62.3546 10.3067 62.7946 9.44C63.2479 8.57333 63.8613 7.90667 64.6346 7.44C65.4079 6.97333 66.2679 6.74 67.2146 6.74C67.9346 6.74 68.6213 6.9 69.2746 7.22C69.9279 7.52667 70.4479 7.94 70.8346 8.46V3.2H73.6746V18H70.8346V16.36C70.4879 16.9067 70.0013 17.3467 69.3746 17.68C68.7479 18.0133 68.0213 18.18 67.1946 18.18C66.2613 18.18 65.4079 17.94 64.6346 17.46C63.8613 16.98 63.2479 16.3067 62.7946 15.44C62.3546 14.56 62.1346 13.5533 62.1346 12.42ZM70.8546 12.46C70.8546 11.78 70.7213 11.2 70.4546 10.72C70.1879 10.2267 69.8279 9.85333 69.3746 9.6C68.9213 9.33333 68.4346 9.2 67.9146 9.2C67.3946 9.2 66.9146 9.32667 66.4746 9.58C66.0346 9.83333 65.6746 10.2067 65.3946 10.7C65.1279 11.18 64.9946 11.7533 64.9946 12.42C64.9946 13.0867 65.1279 13.6733 65.3946 14.18C65.6746 14.6733 66.0346 15.0533 66.4746 15.32C66.9279 15.5867 67.4079 15.72 67.9146 15.72C68.4346 15.72 68.9213 15.5933 69.3746 15.34C69.8279 15.0733 70.1879 14.7 70.4546 14.22C70.7213 13.7267 70.8546 13.14 70.8546 12.46ZM90.6749 4.04V6.3H86.9549V18H84.1549V6.3H80.4349V4.04H90.6749ZM94.1379 5.6C93.6446 5.6 93.2312 5.44667 92.8979 5.14C92.5779 4.82 92.4179 4.42667 92.4179 3.96C92.4179 3.49333 92.5779 3.10667 92.8979 2.8C93.2312 2.48 93.6446 2.32 94.1379 2.32C94.6312 2.32 95.0379 2.48 95.3579 2.8C95.6912 3.10667 95.8579 3.49333 95.8579 3.96C95.8579 4.42667 95.6912 4.82 95.3579 5.14C95.0379 5.44667 94.6312 5.6 94.1379 5.6ZM95.5179 6.92V18H92.7179V6.92H95.5179ZM112.044 6.76C113.404 6.76 114.498 7.18 115.324 8.02C116.164 8.84667 116.584 10.0067 116.584 11.5V18H113.784V11.88C113.784 11.0133 113.564 10.3533 113.124 9.9C112.684 9.43333 112.084 9.2 111.324 9.2C110.564 9.2 109.958 9.43333 109.504 9.9C109.064 10.3533 108.844 11.0133 108.844 11.88V18H106.044V11.88C106.044 11.0133 105.824 10.3533 105.384 9.9C104.944 9.43333 104.344 9.2 103.584 9.2C102.811 9.2 102.198 9.43333 101.744 9.9C101.304 10.3533 101.084 11.0133 101.084 11.88V18H98.2843V6.92H101.084V8.26C101.444 7.79333 101.904 7.42667 102.464 7.16C103.038 6.89333 103.664 6.76 104.344 6.76C105.211 6.76 105.984 6.94667 106.664 7.32C107.344 7.68 107.871 8.2 108.244 8.88C108.604 8.24 109.124 7.72667 109.804 7.34C110.498 6.95333 111.244 6.76 112.044 6.76ZM129.541 12.22C129.541 12.62 129.515 12.98 129.461 13.3H121.361C121.428 14.1 121.708 14.7267 122.201 15.18C122.695 15.6333 123.301 15.86 124.021 15.86C125.061 15.86 125.801 15.4133 126.241 14.52H129.261C128.941 15.5867 128.328 16.4667 127.421 17.16C126.515 17.84 125.401 18.18 124.081 18.18C123.015 18.18 122.055 17.9467 121.201 17.48C120.361 17 119.701 16.3267 119.221 15.46C118.755 14.5933 118.521 13.5933 118.521 12.46C118.521 11.3133 118.755 10.3067 119.221 9.44C119.688 8.57333 120.341 7.90667 121.181 7.44C122.021 6.97333 122.988 6.74 124.081 6.74C125.135 6.74 126.075 6.96667 126.901 7.42C127.741 7.87333 128.388 8.52 128.841 9.36C129.308 10.1867 129.541 11.14 129.541 12.22ZM126.641 11.42C126.628 10.7 126.368 10.1267 125.861 9.7C125.355 9.26 124.735 9.04 124.001 9.04C123.308 9.04 122.721 9.25333 122.241 9.68C121.775 10.0933 121.488 10.6733 121.381 11.42H126.641ZM142.831 18.14C141.524 18.14 140.324 17.8333 139.231 17.22C138.137 16.6067 137.271 15.76 136.631 14.68C135.991 13.5867 135.671 12.3533 135.671 10.98C135.671 9.62 135.991 8.4 136.631 7.32C137.271 6.22667 138.137 5.37333 139.231 4.76C140.324 4.14667 141.524 3.84 142.831 3.84C144.151 3.84 145.351 4.14667 146.431 4.76C147.524 5.37333 148.384 6.22667 149.011 7.32C149.651 8.4 149.971 9.62 149.971 10.98C149.971 12.3533 149.651 13.5867 149.011 14.68C148.384 15.76 147.524 16.6067 146.431 17.22C145.337 17.8333 144.137 18.14 142.831 18.14ZM142.831 15.64C143.671 15.64 144.411 15.4533 145.051 15.08C145.691 14.6933 146.191 14.1467 146.551 13.44C146.911 12.7333 147.091 11.9133 147.091 10.98C147.091 10.0467 146.911 9.23333 146.551 8.54C146.191 7.83333 145.691 7.29333 145.051 6.92C144.411 6.54667 143.671 6.36 142.831 6.36C141.991 6.36 141.244 6.54667 140.591 6.92C139.951 7.29333 139.451 7.83333 139.091 8.54C138.731 9.23333 138.551 10.0467 138.551 10.98C138.551 11.9133 138.731 12.7333 139.091 13.44C139.451 14.1467 139.951 14.6933 140.591 15.08C141.244 15.4533 141.991 15.64 142.831 15.64ZM157.134 9.22H155.194V18H152.354V9.22H151.094V6.92H152.354V6.36C152.354 5 152.74 4 153.514 3.36C154.287 2.72 155.454 2.42 157.014 2.46V4.82C156.334 4.80667 155.86 4.92 155.594 5.16C155.327 5.4 155.194 5.83333 155.194 6.46V6.92H157.134V9.22ZM164.028 9.22H162.088V18H159.248V9.22H157.988V6.92H159.248V6.36C159.248 5 159.635 4 160.408 3.36C161.182 2.72 162.348 2.42 163.908 2.46V4.82C163.228 4.80667 162.755 4.92 162.488 5.16C162.222 5.4 162.088 5.83333 162.088 6.46V6.92H164.028V9.22ZM176.143 12.22C176.143 12.62 176.116 12.98 176.063 13.3H167.963C168.03 14.1 168.31 14.7267 168.803 15.18C169.296 15.6333 169.903 15.86 170.623 15.86C171.663 15.86 172.403 15.4133 172.843 14.52H175.863C175.543 15.5867 174.93 16.4667 174.023 17.16C173.116 17.84 172.003 18.18 170.683 18.18C169.616 18.18 168.656 17.9467 167.803 17.48C166.963 17 166.303 16.3267 165.823 15.46C165.356 14.5933 165.123 13.5933 165.123 12.46C165.123 11.3133 165.356 10.3067 165.823 9.44C166.29 8.57333 166.943 7.90667 167.783 7.44C168.623 6.97333 169.59 6.74 170.683 6.74C171.736 6.74 172.676 6.96667 173.503 7.42C174.343 7.87333 174.99 8.52 175.443 9.36C175.91 10.1867 176.143 11.14 176.143 12.22ZM173.243 11.42C173.23 10.7 172.97 10.1267 172.463 9.7C171.956 9.26 171.336 9.04 170.603 9.04C169.91 9.04 169.323 9.25333 168.843 9.68C168.376 10.0933 168.09 10.6733 167.983 11.42H173.243ZM180.987 8.64C181.347 8.05333 181.813 7.59333 182.387 7.26C182.973 6.92667 183.64 6.76 184.387 6.76V9.7H183.647C182.767 9.7 182.1 9.90667 181.647 10.32C181.207 10.7333 180.987 11.4533 180.987 12.48V18H178.187V6.92H180.987V8.64Z" fill="#F1F1F1"/>
<path d="M0.107422 20H184.887V21H0.107422V20Z" fill="#F1F1F1"/>
<rect y="135" width="270" height="38" rx="5" fill="#F1F1F1"/>
<path d="M250 163.112L247.602 161.383L244.645 161.369L243.722 158.56L241.333 156.816L242.237 154L241.333 151.184L243.722 149.44L244.645 146.631L247.602 146.617L250 144.887L252.398 146.617L255.355 146.631L256.278 149.44L258.667 151.184L257.762 154L258.667 156.816L256.278 158.56L255.355 161.369L252.398 161.383L250 163.112Z" fill="#FAA307"/>
<path d="M250 163.112L247.602 161.383L244.645 161.369L243.722 158.56L241.333 156.816L242.237 154L241.333 151.184L243.722 149.44L244.645 146.631L247.602 146.617L250 144.887L252.398 146.617L255.355 146.631L256.278 149.44L258.667 151.184L257.762 154L258.667 156.816L256.278 158.56L255.355 161.369L252.398 161.383L250 163.112Z" fill="#FAA307"/>
<path d="M250 159.938C253.279 159.938 255.938 157.279 255.938 154C255.938 150.721 253.279 148.062 250 148.062C246.721 148.062 244.062 150.721 244.062 154C244.062 157.279 246.721 159.938 250 159.938Z" fill="#FFD100"/>
<path d="M248.125 153.062C248.643 153.062 249.062 152.643 249.062 152.125C249.062 151.607 248.643 151.188 248.125 151.188C247.607 151.188 247.188 151.607 247.188 152.125C247.188 152.643 247.607 153.062 248.125 153.062Z" fill="#F1F1F1"/>
<path d="M251.875 156.812C252.393 156.812 252.812 156.393 252.812 155.875C252.812 155.357 252.393 154.938 251.875 154.938C251.357 154.938 250.938 155.357 250.938 155.875C250.938 156.393 251.357 156.812 251.875 156.812Z" fill="#F1F1F1"/>
<path d="M247.656 156.344C247.595 156.282 247.546 156.209 247.513 156.129C247.48 156.049 247.463 155.963 247.463 155.876C247.464 155.789 247.481 155.703 247.515 155.623C247.548 155.543 247.597 155.47 247.659 155.409L251.433 151.683C251.551 151.569 251.709 151.506 251.873 151.508C252.037 151.509 252.193 151.575 252.309 151.691C252.425 151.807 252.491 151.963 252.492 152.127C252.494 152.291 252.431 152.449 252.317 152.567L248.591 156.341C248.53 156.403 248.457 156.452 248.377 156.485C248.297 156.519 248.211 156.536 248.124 156.537C248.037 156.537 247.951 156.52 247.871 156.487C247.791 156.454 247.718 156.405 247.656 156.344Z" fill="#F1F1F1"/>
<path d="M17.7849 152.09C17.4609 151.466 17.0109 150.998 16.4349 150.686C15.8589 150.362 15.1929 150.2 14.4369 150.2C13.6089 150.2 12.8709 150.386 12.2229 150.758C11.5749 151.13 11.0649 151.658 10.6929 152.342C10.3329 153.026 10.1529 153.818 10.1529 154.718C10.1529 155.618 10.3329 156.416 10.6929 157.112C11.0649 157.796 11.5749 158.324 12.2229 158.696C12.8709 159.068 13.6089 159.254 14.4369 159.254C15.5529 159.254 16.4589 158.942 17.1549 158.318C17.8509 157.694 18.2769 156.848 18.4329 155.78H13.7349V154.142H20.6289V155.744C20.4969 156.716 20.1489 157.61 19.5849 158.426C19.0329 159.242 18.3069 159.896 17.4069 160.388C16.5189 160.868 15.5289 161.108 14.4369 161.108C13.2609 161.108 12.1869 160.838 11.2149 160.298C10.2429 159.746 9.46886 158.984 8.89286 158.012C8.32886 157.04 8.04686 155.942 8.04686 154.718C8.04686 153.494 8.32886 152.396 8.89286 151.424C9.46886 150.452 10.2429 149.696 11.2149 149.156C12.1989 148.604 13.2729 148.328 14.4369 148.328C15.7689 148.328 16.9509 148.658 17.9829 149.318C19.0269 149.966 19.7829 150.89 20.2509 152.09H17.7849ZM31.7427 155.798C31.7427 156.17 31.7187 156.506 31.6707 156.806H24.0927C24.1527 157.598 24.4467 158.234 24.9747 158.714C25.5027 159.194 26.1507 159.434 26.9187 159.434C28.0227 159.434 28.8027 158.972 29.2587 158.048H31.4727C31.1727 158.96 30.6267 159.71 29.8347 160.298C29.0547 160.874 28.0827 161.162 26.9187 161.162C25.9707 161.162 25.1187 160.952 24.3627 160.532C23.6187 160.1 23.0307 159.5 22.5987 158.732C22.1787 157.952 21.9687 157.052 21.9687 156.032C21.9687 155.012 22.1727 154.118 22.5807 153.35C23.0007 152.57 23.5827 151.97 24.3267 151.55C25.0827 151.13 25.9467 150.92 26.9187 150.92C27.8547 150.92 28.6887 151.124 29.4207 151.532C30.1527 151.94 30.7227 152.516 31.1307 153.26C31.5387 153.992 31.7427 154.838 31.7427 155.798ZM29.6007 155.15C29.5887 154.394 29.3187 153.788 28.7907 153.332C28.2627 152.876 27.6087 152.648 26.8287 152.648C26.1207 152.648 25.5147 152.876 25.0107 153.332C24.5067 153.776 24.2067 154.382 24.1107 155.15H29.6007ZM36.1561 152.756V158.246C36.1561 158.618 36.2401 158.888 36.4081 159.056C36.5881 159.212 36.8881 159.29 37.3081 159.29H38.5681V161H36.9481C36.0241 161 35.3161 160.784 34.8241 160.352C34.3321 159.92 34.0861 159.218 34.0861 158.246V152.756H32.9161V151.082H34.0861V148.616H36.1561V151.082H38.5681V152.756H36.1561ZM54.4052 148.49L50.2652 156.464V161H48.2132V156.464L44.0552 148.49H46.3412L49.2392 154.628L52.1372 148.49H54.4052ZM60.3356 161.162C59.3996 161.162 58.5536 160.952 57.7976 160.532C57.0416 160.1 56.4476 159.5 56.0156 158.732C55.5836 157.952 55.3676 157.052 55.3676 156.032C55.3676 155.024 55.5896 154.13 56.0336 153.35C56.4776 152.57 57.0836 151.97 57.8516 151.55C58.6196 151.13 59.4776 150.92 60.4256 150.92C61.3736 150.92 62.2316 151.13 62.9996 151.55C63.7676 151.97 64.3736 152.57 64.8176 153.35C65.2616 154.13 65.4836 155.024 65.4836 156.032C65.4836 157.04 65.2556 157.934 64.7996 158.714C64.3436 159.494 63.7196 160.1 62.9276 160.532C62.1476 160.952 61.2836 161.162 60.3356 161.162ZM60.3356 159.38C60.8636 159.38 61.3556 159.254 61.8116 159.002C62.2796 158.75 62.6576 158.372 62.9456 157.868C63.2336 157.364 63.3776 156.752 63.3776 156.032C63.3776 155.312 63.2396 154.706 62.9636 154.214C62.6876 153.71 62.3216 153.332 61.8656 153.08C61.4096 152.828 60.9176 152.702 60.3896 152.702C59.8616 152.702 59.3696 152.828 58.9136 153.08C58.4696 153.332 58.1156 153.71 57.8516 154.214C57.5876 154.706 57.4556 155.312 57.4556 156.032C57.4556 157.1 57.7256 157.928 58.2656 158.516C58.8176 159.092 59.5076 159.38 60.3356 159.38ZM76.4941 151.082V161H74.4421V159.83C74.1181 160.238 73.6921 160.562 73.1641 160.802C72.6481 161.03 72.0961 161.144 71.5081 161.144C70.7281 161.144 70.0261 160.982 69.4021 160.658C68.7901 160.334 68.3041 159.854 67.9441 159.218C67.5961 158.582 67.4221 157.814 67.4221 156.914V151.082H69.4561V156.608C69.4561 157.496 69.6781 158.18 70.1221 158.66C70.5661 159.128 71.1721 159.362 71.9401 159.362C72.7081 159.362 73.3141 159.128 73.7581 158.66C74.2141 158.18 74.4421 157.496 74.4421 156.608V151.082H76.4941ZM81.2536 152.522C81.5536 152.018 81.9496 151.628 82.4416 151.352C82.9456 151.064 83.5396 150.92 84.2236 150.92V153.044H83.7016C82.8976 153.044 82.2856 153.248 81.8656 153.656C81.4576 154.064 81.2536 154.772 81.2536 155.78V161H79.2016V151.082H81.2536V152.522ZM98.1475 148.49V150.164H92.8375V153.854H96.9775V155.528H92.8375V161H90.7855V148.49H98.1475ZM101.093 149.768C100.721 149.768 100.409 149.642 100.157 149.39C99.9052 149.138 99.7792 148.826 99.7792 148.454C99.7792 148.082 99.9052 147.77 100.157 147.518C100.409 147.266 100.721 147.14 101.093 147.14C101.453 147.14 101.759 147.266 102.011 147.518C102.263 147.77 102.389 148.082 102.389 148.454C102.389 148.826 102.263 149.138 102.011 149.39C101.759 149.642 101.453 149.768 101.093 149.768ZM102.101 151.082V161H100.049V151.082H102.101ZM106.847 152.522C107.147 152.018 107.543 151.628 108.035 151.352C108.539 151.064 109.133 150.92 109.817 150.92V153.044H109.295C108.491 153.044 107.879 153.248 107.459 153.656C107.051 154.064 106.847 154.772 106.847 155.78V161H104.795V151.082H106.847V152.522ZM115.304 161.162C114.524 161.162 113.822 161.024 113.198 160.748C112.586 160.46 112.1 160.076 111.74 159.596C111.38 159.104 111.188 158.558 111.164 157.958H113.288C113.324 158.378 113.522 158.732 113.882 159.02C114.254 159.296 114.716 159.434 115.268 159.434C115.844 159.434 116.288 159.326 116.6 159.11C116.924 158.882 117.086 158.594 117.086 158.246C117.086 157.874 116.906 157.598 116.546 157.418C116.198 157.238 115.64 157.04 114.872 156.824C114.128 156.62 113.522 156.422 113.054 156.23C112.586 156.038 112.178 155.744 111.83 155.348C111.494 154.952 111.326 154.43 111.326 153.782C111.326 153.254 111.482 152.774 111.794 152.342C112.106 151.898 112.55 151.55 113.126 151.298C113.714 151.046 114.386 150.92 115.142 150.92C116.27 150.92 117.176 151.208 117.86 151.784C118.556 152.348 118.928 153.122 118.976 154.106H116.924C116.888 153.662 116.708 153.308 116.384 153.044C116.06 152.78 115.622 152.648 115.07 152.648C114.53 152.648 114.116 152.75 113.828 152.954C113.54 153.158 113.396 153.428 113.396 153.764C113.396 154.028 113.492 154.25 113.684 154.43C113.876 154.61 114.11 154.754 114.386 154.862C114.662 154.958 115.07 155.084 115.61 155.24C116.33 155.432 116.918 155.63 117.374 155.834C117.842 156.026 118.244 156.314 118.58 156.698C118.916 157.082 119.09 157.592 119.102 158.228C119.102 158.792 118.946 159.296 118.634 159.74C118.322 160.184 117.878 160.532 117.302 160.784C116.738 161.036 116.072 161.162 115.304 161.162ZM123.713 152.756V158.246C123.713 158.618 123.797 158.888 123.965 159.056C124.145 159.212 124.445 159.29 124.865 159.29H126.125V161H124.505C123.581 161 122.873 160.784 122.381 160.352C121.889 159.92 121.643 159.218 121.643 158.246V152.756H120.473V151.082H121.643V148.616H123.713V151.082H126.125V152.756H123.713ZM145.868 148.49V161H143.816V152.432L140 161H138.578L134.744 152.432V161H132.692V148.49H134.906L139.298 158.3L143.672 148.49H145.868ZM152.867 161.162C151.931 161.162 151.085 160.952 150.329 160.532C149.573 160.1 148.979 159.5 148.547 158.732C148.115 157.952 147.899 157.052 147.899 156.032C147.899 155.024 148.121 154.13 148.565 153.35C149.009 152.57 149.615 151.97 150.383 151.55C151.151 151.13 152.009 150.92 152.957 150.92C153.905 150.92 154.763 151.13 155.531 151.55C156.299 151.97 156.905 152.57 157.349 153.35C157.793 154.13 158.015 155.024 158.015 156.032C158.015 157.04 157.787 157.934 157.331 158.714C156.875 159.494 156.251 160.1 155.459 160.532C154.679 160.952 153.815 161.162 152.867 161.162ZM152.867 159.38C153.395 159.38 153.887 159.254 154.343 159.002C154.811 158.75 155.189 158.372 155.477 157.868C155.765 157.364 155.909 156.752 155.909 156.032C155.909 155.312 155.771 154.706 155.495 154.214C155.219 153.71 154.853 153.332 154.397 153.08C153.941 152.828 153.449 152.702 152.921 152.702C152.393 152.702 151.901 152.828 151.445 153.08C151.001 153.332 150.647 153.71 150.383 154.214C150.119 154.706 149.987 155.312 149.987 156.032C149.987 157.1 150.257 157.928 150.797 158.516C151.349 159.092 152.039 159.38 152.867 159.38ZM165.047 150.92C165.827 150.92 166.523 151.082 167.135 151.406C167.759 151.73 168.245 152.21 168.593 152.846C168.941 153.482 169.115 154.25 169.115 155.15V161H167.081V155.456C167.081 154.568 166.859 153.89 166.415 153.422C165.971 152.942 165.365 152.702 164.597 152.702C163.829 152.702 163.217 152.942 162.761 153.422C162.317 153.89 162.095 154.568 162.095 155.456V161H160.043V151.082H162.095V152.216C162.431 151.808 162.857 151.49 163.373 151.262C163.901 151.034 164.459 150.92 165.047 150.92ZM174.127 152.756V158.246C174.127 158.618 174.211 158.888 174.379 159.056C174.559 159.212 174.859 159.29 175.279 159.29H176.539V161H174.919C173.995 161 173.287 160.784 172.795 160.352C172.303 159.92 172.057 159.218 172.057 158.246V152.756H170.887V151.082H172.057V148.616H174.127V151.082H176.539V152.756H174.127ZM183.56 150.92C184.316 150.92 184.988 151.082 185.576 151.406C186.176 151.73 186.644 152.21 186.98 152.846C187.328 153.482 187.502 154.25 187.502 155.15V161H185.468V155.456C185.468 154.568 185.246 153.89 184.802 153.422C184.358 152.942 183.752 152.702 182.984 152.702C182.216 152.702 181.604 152.942 181.148 153.422C180.704 153.89 180.482 154.568 180.482 155.456V161H178.43V147.68H180.482V152.234C180.83 151.814 181.268 151.49 181.796 151.262C182.336 151.034 182.924 150.92 183.56 150.92ZM202.157 148.49V150.164H196.847V153.854H200.987V155.528H196.847V161H194.795V148.49H202.157ZM206.111 152.522C206.411 152.018 206.807 151.628 207.299 151.352C207.803 151.064 208.397 150.92 209.081 150.92V153.044H208.559C207.755 153.044 207.143 153.248 206.723 153.656C206.315 154.064 206.111 154.772 206.111 155.78V161H204.059V151.082H206.111V152.522ZM220.057 155.798C220.057 156.17 220.033 156.506 219.985 156.806H212.407C212.467 157.598 212.761 158.234 213.289 158.714C213.817 159.194 214.465 159.434 215.233 159.434C216.337 159.434 217.117 158.972 217.573 158.048H219.787C219.487 158.96 218.941 159.71 218.149 160.298C217.369 160.874 216.397 161.162 215.233 161.162C214.285 161.162 213.433 160.952 212.677 160.532C211.933 160.1 211.345 159.5 210.913 158.732C210.493 157.952 210.283 157.052 210.283 156.032C210.283 155.012 210.487 154.118 210.895 153.35C211.315 152.57 211.897 151.97 212.641 151.55C213.397 151.13 214.261 150.92 215.233 150.92C216.169 150.92 217.003 151.124 217.735 151.532C218.467 151.94 219.037 152.516 219.445 153.26C219.853 153.992 220.057 154.838 220.057 155.798ZM217.915 155.15C217.903 154.394 217.633 153.788 217.105 153.332C216.577 152.876 215.923 152.648 215.143 152.648C214.435 152.648 213.829 152.876 213.325 153.332C212.821 153.776 212.521 154.382 212.425 155.15H217.915ZM231.167 155.798C231.167 156.17 231.143 156.506 231.095 156.806H223.517C223.577 157.598 223.871 158.234 224.399 158.714C224.927 159.194 225.575 159.434 226.343 159.434C227.447 159.434 228.227 158.972 228.683 158.048H230.897C230.597 158.96 230.051 159.71 229.259 160.298C228.479 160.874 227.507 161.162 226.343 161.162C225.395 161.162 224.543 160.952 223.787 160.532C223.043 160.1 222.455 159.5 222.023 158.732C221.603 157.952 221.393 157.052 221.393 156.032C221.393 155.012 221.597 154.118 222.005 153.35C222.425 152.57 223.007 151.97 223.751 151.55C224.507 151.13 225.371 150.92 226.343 150.92C227.279 150.92 228.113 151.124 228.845 151.532C229.577 151.94 230.147 152.516 230.555 153.26C230.963 153.992 231.167 154.838 231.167 155.798ZM229.025 155.15C229.013 154.394 228.743 153.788 228.215 153.332C227.687 152.876 227.033 152.648 226.253 152.648C225.545 152.648 224.939 152.876 224.435 153.332C223.931 153.776 223.631 154.382 223.535 155.15H229.025ZM235.76 148.49L235.526 157.22H233.816L233.582 148.49H235.76ZM234.734 161.126C234.362 161.126 234.05 161 233.798 160.748C233.546 160.496 233.42 160.184 233.42 159.812C233.42 159.44 233.546 159.128 233.798 158.876C234.05 158.624 234.362 158.498 234.734 158.498C235.094 158.498 235.4 158.624 235.652 158.876C235.904 159.128 236.03 159.44 236.03 159.812C236.03 160.184 235.904 160.496 235.652 160.748C235.4 161 235.094 161.126 234.734 161.126Z" fill="#003343"/>
</svg>
