<svg width="223" height="141" viewBox="0 0 223 141" fill="none" xmlns="http://www.w3.org/2000/svg">
<g clip-path="url(#clip0_17_5620)">
<path d="M39.487 139.773C41.6041 137.993 42.8901 135.18 42.5528 132.442C42.2156 129.704 40.1268 127.187 37.4173 126.605C34.7078 126.024 31.6192 127.633 30.7962 130.267C30.3433 125.189 29.8214 119.897 27.1084 115.572C24.6519 111.656 20.3971 108.854 15.7859 108.352C11.1746 107.851 6.3196 109.744 3.44375 113.367C0.567895 116.989 -0.136252 122.256 1.87792 126.414C3.36169 129.478 6.09533 131.758 8.95949 133.613C18.2146 139.556 29.315 141.973 40.2181 140.419L39.487 139.773Z" fill="#F2F2F2"/>
<path d="M8.0037 109.849C11.8085 112.934 15.2991 116.384 18.4248 120.149C21.5511 123.91 24.3034 127.964 26.6431 132.254C27.9509 134.661 29.1258 137.137 30.1624 139.671C30.3737 140.186 29.5327 140.411 29.3237 139.901C27.4876 135.433 25.216 131.156 22.5415 127.129C19.8799 123.117 16.8336 119.372 13.4454 115.945C11.529 114.008 9.50707 112.178 7.3887 110.461C6.9545 110.11 7.57308 109.5 8.0037 109.849Z" fill="white"/>
<path d="M165.826 0H51.1718C50.7349 0.000482523 50.316 0.173446 50.007 0.480946C49.6981 0.788446 49.5243 1.20537 49.5238 1.64024V78.9658C49.5243 79.4007 49.6981 79.8176 50.007 80.1251C50.316 80.4326 50.7349 80.6055 51.1718 80.606H165.826C166.263 80.6055 166.682 80.4326 166.991 80.1251C167.3 79.8176 167.474 79.4007 167.474 78.9658V1.64024C167.474 1.20537 167.3 0.788446 166.991 0.480946C166.682 0.173446 166.263 0.000482523 165.826 0ZM167.004 78.9658C167.004 79.2765 166.879 79.5744 166.659 79.7941C166.438 80.0138 166.139 80.1373 165.826 80.1374H51.1718C50.8597 80.1373 50.5603 80.0138 50.3396 79.7941C50.1189 79.5744 49.9948 79.2765 49.9947 78.9658V1.64024C49.9948 1.32955 50.1189 1.03162 50.3396 0.811932C50.5603 0.592241 50.8597 0.468764 51.1718 0.46864H165.826C166.139 0.468764 166.438 0.592241 166.659 0.811932C166.879 1.03162 167.004 1.32955 167.004 1.64024V78.9658Z" fill="#3F3D56"/>
<path d="M167.239 6.57033H49.7593V7.03897H167.239V6.57033Z" fill="#3F3D56"/>
<path d="M53.7616 4.92072C54.5417 4.92072 55.1742 4.29127 55.1742 3.5148C55.1742 2.73833 54.5417 2.10888 53.7616 2.10888C52.9814 2.10888 52.349 2.73833 52.349 3.5148C52.349 4.29127 52.9814 4.92072 53.7616 4.92072Z" fill="#3F3D56"/>
<path d="M57.8227 4.92072C58.6029 4.92072 59.2353 4.29127 59.2353 3.5148C59.2353 2.73833 58.6029 2.10888 57.8227 2.10888C57.0426 2.10888 56.4102 2.73833 56.4102 3.5148C56.4102 4.29127 57.0426 4.92072 57.8227 4.92072Z" fill="#3F3D56"/>
<path d="M61.8839 4.92072C62.664 4.92072 63.2965 4.29127 63.2965 3.5148C63.2965 2.73833 62.664 2.10888 61.8839 2.10888C61.1037 2.10888 60.4713 2.73833 60.4713 3.5148C60.4713 4.29127 61.1037 4.92072 61.8839 4.92072Z" fill="#3F3D56"/>
<path d="M118.387 17.4568H98.6111C98.174 17.4568 97.7548 17.284 97.4458 16.9764C97.1367 16.6688 96.9631 16.2516 96.9631 15.8166C96.9631 15.3816 97.1367 14.9644 97.4458 14.6568C97.7548 14.3492 98.174 14.1764 98.6111 14.1764H118.387C118.824 14.1764 119.244 14.3492 119.553 14.6568C119.862 14.9644 120.035 15.3816 120.035 15.8166C120.035 16.2516 119.862 16.6688 119.553 16.9764C119.244 17.284 118.824 17.4568 118.387 17.4568Z" fill="#CCCCCC"/>
<path d="M131.924 25.4237H85.0738C84.6367 25.4237 84.2175 25.2509 83.9085 24.9433C83.5994 24.6357 83.4258 24.2185 83.4258 23.7835C83.4258 23.3484 83.5994 22.9312 83.9085 22.6236C84.2175 22.316 84.6367 22.1432 85.0738 22.1432H131.924C132.362 22.1432 132.781 22.316 133.09 22.6236C133.399 22.9312 133.572 23.3484 133.572 23.7835C133.572 24.2185 133.399 24.6357 133.09 24.9433C132.781 25.2509 132.362 25.4237 131.924 25.4237Z" fill="#CCCCCC"/>
<path d="M145.975 74.3851C144.199 74.3851 142.463 73.8609 140.987 72.879C139.51 71.897 138.36 70.5014 137.68 68.8684C137 67.2355 136.823 65.4387 137.169 63.7052C137.515 61.9717 138.371 60.3793 139.626 59.1296C140.882 57.8798 142.482 57.0286 144.224 56.6838C145.965 56.339 147.771 56.516 149.411 57.1924C151.052 57.8687 152.454 59.0142 153.441 60.4837C154.428 61.9533 154.954 63.6811 154.954 65.4486C154.951 67.8179 154.005 70.0893 152.321 71.7647C150.638 73.44 148.356 74.3824 145.975 74.3851ZM145.975 57.1284C144.322 57.1284 142.706 57.6164 141.331 58.5306C139.956 59.4449 138.885 60.7443 138.252 62.2646C137.619 63.7849 137.454 65.4578 137.776 67.0718C138.099 68.6857 138.895 70.1682 140.064 71.3318C141.233 72.4954 142.723 73.2878 144.344 73.6089C145.966 73.9299 147.647 73.7652 149.174 73.1354C150.702 72.5057 152.007 71.4393 152.926 70.071C153.845 68.7028 154.335 67.0942 154.335 65.4486C154.332 63.2427 153.451 61.1279 151.884 59.5681C150.316 58.0083 148.192 57.1309 145.975 57.1284Z" fill="#3F3D56"/>
<path d="M70.6996 50.451C68.9238 50.451 67.1878 49.9268 65.7112 48.9449C64.2347 47.9629 63.0838 46.5673 62.4042 44.9343C61.7247 43.3014 61.5468 41.5046 61.8933 39.7711C62.2397 38.0376 63.0949 36.4452 64.3506 35.1955C65.6063 33.9457 67.2062 33.0946 68.9479 32.7497C70.6896 32.4049 72.495 32.5819 74.1356 33.2583C75.7763 33.9346 77.1786 35.0801 78.1652 36.5497C79.1518 38.0193 79.6784 39.747 79.6784 41.5145C79.6757 43.8838 78.7289 46.1552 77.0456 47.8306C75.3624 49.5059 73.0801 50.4483 70.6996 50.451ZM70.6996 33.1943C69.0462 33.1943 67.43 33.6823 66.0553 34.5965C64.6805 35.5108 63.6091 36.8102 62.9763 38.3305C62.3436 39.8508 62.1781 41.5237 62.5006 43.1377C62.8232 44.7516 63.6194 46.2341 64.7885 47.3977C65.9576 48.5613 67.4471 49.3538 69.0687 49.6748C70.6903 49.9958 72.3712 49.8311 73.8987 49.2013C75.4262 48.5716 76.7318 47.5052 77.6504 46.1369C78.5689 44.7687 79.0592 43.1601 79.0592 41.5145C79.0567 39.3086 78.1751 37.1938 76.608 35.634C75.0408 34.0742 72.9159 33.1968 70.6996 33.1943Z" fill="#3F3D56"/>
<path d="M74.1873 46.2518C73.9522 46.2518 73.7267 46.159 73.5603 45.9937C73.3939 45.8284 73.3003 45.6041 73.2999 45.3701V40.356C73.3002 40.1223 73.3936 39.8982 73.5597 39.7329C73.7257 39.5676 73.9509 39.4746 74.1857 39.4744H74.1873C74.4222 39.4746 74.6473 39.5676 74.8134 39.7329C74.9795 39.8982 75.0729 40.1223 75.0731 40.356V45.3701C75.0729 45.6038 74.9795 45.8279 74.8134 45.9932C74.6473 46.1585 74.4222 46.2515 74.1873 46.2518ZM71.8744 46.2518C71.7571 46.2529 71.6408 46.231 71.5321 46.1873C71.4234 46.1436 71.3244 46.0789 71.2409 45.9969C71.1574 45.915 71.091 45.8174 71.0455 45.7098C71 45.6023 70.9763 45.4868 70.9759 45.3701V42.6691C70.9761 42.4354 71.0695 42.2113 71.2356 42.046C71.4017 41.8808 71.6268 41.7878 71.8616 41.7876H71.8744C72.1092 41.7878 72.3344 41.8808 72.5005 42.046C72.6665 42.2113 72.7599 42.4354 72.7602 42.6691V45.3701C72.7599 45.6038 72.6665 45.8279 72.5005 45.9932C72.3344 46.1585 72.1092 46.2515 71.8744 46.2518ZM69.5391 46.2518C69.304 46.2518 69.0785 46.159 68.9121 45.9937C68.7458 45.8284 68.6521 45.6041 68.6518 45.3701V37.6589C68.652 37.4251 68.7454 37.201 68.9115 37.0357C69.0776 36.8704 69.3027 36.7775 69.5376 36.7772H69.5391C69.774 36.7775 69.9992 36.8704 70.1652 37.0357C70.3313 37.201 70.4247 37.4251 70.4249 37.6589V45.3701C70.4247 45.6038 70.3313 45.8279 70.1652 45.9932C69.9992 46.1585 69.774 46.2515 69.5391 46.2518ZM67.2128 46.2518C67.0963 46.2519 66.981 46.2292 66.8733 46.1849C66.7657 46.1406 66.6679 46.0756 66.5856 45.9936C66.5032 45.9117 66.4379 45.8144 66.3934 45.7073C66.3488 45.6002 66.326 45.4854 66.3261 45.3694L66.327 44.2113C66.3271 43.9774 66.4205 43.7533 66.5867 43.588C66.7529 43.4227 66.9783 43.3299 67.2132 43.33C67.4481 43.3301 67.6734 43.4231 67.8394 43.5885C68.0054 43.7539 68.0987 43.9782 68.0986 44.212V45.3701C68.0983 45.6038 68.0049 45.8279 67.8388 45.9932C67.6728 46.1585 67.4476 46.2515 67.2128 46.2518Z" fill="#19CCA3"/>
<path d="M206.906 140.43C205.13 140.43 203.395 139.906 201.918 138.924C200.441 137.942 199.291 136.546 198.611 134.913C197.931 133.28 197.754 131.483 198.1 129.75C198.446 128.016 199.302 126.424 200.557 125.174C201.813 123.924 203.413 123.073 205.155 122.729C206.896 122.384 208.702 122.561 210.342 123.237C211.983 123.913 213.385 125.059 214.372 126.528C215.359 127.998 215.885 129.726 215.885 131.493C215.882 133.863 214.936 136.134 213.252 137.809C211.569 139.485 209.287 140.427 206.906 140.43ZM206.906 123.173C205.253 123.173 203.637 123.661 202.262 124.575C200.887 125.49 199.816 126.789 199.183 128.309C198.55 129.83 198.385 131.503 198.707 133.116C199.03 134.73 199.826 136.213 200.995 137.377C202.164 138.54 203.654 139.333 205.275 139.654C206.897 139.975 208.578 139.81 210.105 139.18C211.633 138.55 212.939 137.484 213.857 136.116C214.776 134.748 215.266 133.139 215.266 131.493C215.263 129.287 214.382 127.173 212.815 125.613C211.247 124.053 209.123 123.176 206.906 123.173Z" fill="#3F3D56"/>
<path d="M209.381 129.942L207.631 132.606C207.772 132.776 207.848 132.99 207.847 133.21C207.847 133.464 207.745 133.707 207.565 133.887C207.384 134.066 207.139 134.167 206.884 134.167C206.629 134.167 206.384 134.066 206.204 133.887C206.023 133.707 205.921 133.464 205.921 133.21C205.922 133.148 205.927 133.087 205.938 133.026L204.782 132.356C204.633 132.5 204.441 132.592 204.235 132.617C204.029 132.643 203.82 132.602 203.64 132.5L202.411 133.646V134.788C202.411 135.014 202.502 135.231 202.662 135.391C202.822 135.551 203.04 135.641 203.267 135.642H210.544C210.771 135.641 210.989 135.551 211.15 135.391C211.31 135.231 211.401 135.014 211.402 134.788V130.551L210.226 129.773C210.108 129.864 209.97 129.927 209.824 129.957C209.677 129.986 209.526 129.981 209.381 129.942Z" fill="#19CCA3"/>
<path d="M204.115 130.715C204.371 130.715 204.615 130.816 204.796 130.996C204.977 131.176 205.078 131.419 205.078 131.674V131.797L206.283 132.468C206.455 132.328 206.671 132.251 206.893 132.251C206.964 132.252 207.034 132.259 207.102 132.273L208.856 129.571C208.769 129.448 208.712 129.307 208.689 129.158C208.667 129.009 208.68 128.857 208.728 128.715C208.776 128.572 208.857 128.443 208.964 128.337C209.072 128.232 209.203 128.153 209.347 128.107C209.491 128.061 209.644 128.05 209.793 128.075C209.942 128.099 210.083 128.158 210.205 128.247C210.327 128.335 210.426 128.452 210.494 128.586C210.563 128.72 210.598 128.868 210.598 129.019C210.598 129.095 210.589 129.171 210.572 129.245L211.402 129.797V128.198C211.401 127.972 211.31 127.756 211.15 127.596C210.989 127.436 210.771 127.346 210.544 127.345H203.267C203.04 127.346 202.822 127.436 202.662 127.596C202.502 127.756 202.411 127.972 202.411 128.198V132.777L203.213 132.012C203.159 131.867 203.142 131.712 203.161 131.559C203.181 131.406 203.238 131.26 203.326 131.134C203.415 131.007 203.533 130.904 203.67 130.833C203.808 130.761 203.96 130.724 204.115 130.724V130.715Z" fill="#19CCA3"/>
<path d="M108.855 50.451C107.079 50.451 105.343 49.9268 103.867 48.9449C102.39 47.9629 101.239 46.5673 100.56 44.9343C99.8803 43.3014 99.7025 41.5046 100.049 39.7711C100.395 38.0376 101.251 36.4452 102.506 35.1955C103.762 33.9457 105.362 33.0946 107.104 32.7497C108.845 32.4049 110.651 32.5819 112.291 33.2583C113.932 33.9346 115.334 35.0801 116.321 36.5497C117.307 38.0193 117.834 39.747 117.834 41.5145C117.831 43.8838 116.885 46.1552 115.201 47.8306C113.518 49.5059 111.236 50.4483 108.855 50.451ZM108.855 33.1943C107.202 33.1943 105.586 33.6823 104.211 34.5965C102.836 35.5108 101.765 36.8102 101.132 38.3305C100.499 39.8508 100.334 41.5237 100.656 43.1377C100.979 44.7516 101.775 46.2341 102.944 47.3977C104.113 48.5613 105.603 49.3538 107.224 49.6748C108.846 49.9958 110.527 49.8311 112.054 49.2013C113.582 48.5716 114.887 47.5052 115.806 46.1369C116.725 44.7687 117.215 43.1601 117.215 41.5145C117.212 39.3086 116.331 37.1938 114.764 35.634C113.196 34.0742 111.072 33.1968 108.855 33.1943Z" fill="#3F3D56"/>
<path d="M104.085 44.7539C103.956 44.7539 103.83 44.7158 103.722 44.6444C103.615 44.5731 103.532 44.4717 103.482 44.3531C103.433 44.2345 103.42 44.104 103.445 43.978C103.47 43.852 103.532 43.7362 103.623 43.6452L106.94 40.334C106.992 40.2822 107.053 40.2411 107.121 40.2131C107.189 40.1851 107.261 40.1708 107.335 40.171H107.335C107.408 40.1708 107.481 40.185 107.549 40.2129C107.616 40.2408 107.678 40.2818 107.729 40.3335L109.268 41.8649C109.299 41.8959 109.336 41.9205 109.377 41.9373C109.417 41.954 109.461 41.9626 109.505 41.9624C109.549 41.9626 109.592 41.954 109.633 41.9372C109.674 41.9205 109.71 41.8958 109.741 41.8648L111.914 39.6991C111.924 39.6887 111.932 39.6765 111.938 39.663C111.943 39.6496 111.946 39.6351 111.946 39.6205C111.946 39.606 111.943 39.5915 111.938 39.5781C111.932 39.5646 111.924 39.5524 111.914 39.5421L111.211 38.8437C111.164 38.7972 111.132 38.7379 111.119 38.6732C111.106 38.6086 111.113 38.5416 111.138 38.4808C111.163 38.4199 111.206 38.3678 111.261 38.3312C111.316 38.2946 111.381 38.2751 111.447 38.2751H113.943C114.032 38.2752 114.117 38.3103 114.18 38.3727C114.243 38.4351 114.278 38.5198 114.278 38.6081V41.0912C114.278 41.157 114.258 41.2214 114.222 41.2762C114.185 41.331 114.133 41.3737 114.072 41.3989C114.01 41.4241 113.943 41.4307 113.878 41.4178C113.813 41.405 113.754 41.3733 113.707 41.3267L113.003 40.626C112.993 40.6157 112.98 40.6076 112.967 40.602C112.953 40.5964 112.939 40.5935 112.924 40.5935C112.909 40.5935 112.895 40.5964 112.881 40.602C112.868 40.6076 112.856 40.6157 112.845 40.626L109.904 43.5518C109.852 43.6035 109.791 43.6445 109.723 43.6724C109.655 43.7002 109.583 43.7145 109.509 43.7143C109.436 43.7145 109.364 43.7002 109.296 43.6723C109.228 43.6444 109.167 43.6034 109.115 43.5517L107.576 42.0196C107.512 41.959 107.427 41.9253 107.339 41.9253C107.251 41.9253 107.166 41.959 107.103 42.0196L104.547 44.5634C104.486 44.624 104.414 44.672 104.335 44.7047C104.256 44.7374 104.171 44.7541 104.085 44.7539Z" fill="#19CCA3"/>
<path d="M108.855 73.8829C107.079 73.8829 105.343 73.3588 103.867 72.3769C102.39 71.3949 101.239 69.9992 100.56 68.3663C99.8803 66.7334 99.7025 64.9366 100.049 63.2031C100.395 61.4695 101.251 59.8772 102.506 58.6274C103.762 57.3776 105.362 56.5265 107.104 56.1817C108.845 55.8369 110.651 56.0139 112.291 56.6902C113.932 57.3666 115.334 58.512 116.321 59.9816C117.307 61.4512 117.834 63.179 117.834 64.9465C117.831 67.3158 116.885 69.5872 115.201 71.2626C113.518 72.9379 111.236 73.8803 108.855 73.8829Z" fill="#E6E6E6"/>
<path d="M146.053 49.748C144.277 49.748 142.541 49.2239 141.065 48.2419C139.588 47.26 138.438 45.8643 137.758 44.2314C137.078 42.5984 136.901 40.8016 137.247 39.0681C137.593 37.3346 138.449 35.7423 139.704 34.4925C140.96 33.2427 142.56 32.3916 144.302 32.0468C146.043 31.702 147.849 31.8789 149.489 32.5553C151.13 33.2317 152.532 34.3771 153.519 35.8467C154.506 37.3163 155.032 39.0441 155.032 40.8115C155.029 43.1808 154.083 45.4523 152.399 47.1276C150.716 48.803 148.434 49.7453 146.053 49.748Z" fill="#E6E6E6"/>
<path d="M70.6998 56.0098C69.1586 56.0118 67.6436 56.4071 66.2996 57.158C68.2419 57.3288 70.0631 58.1698 71.4483 59.5356C72.8335 60.9013 73.6956 62.7059 73.8855 64.6373C74.0754 66.5687 73.5812 68.5054 72.4884 70.1125C71.3955 71.7197 69.7727 72.8962 67.9006 73.4386C68.2513 73.5542 68.6091 73.6474 68.9718 73.7174C69.541 73.8288 70.1197 73.8846 70.6998 73.8838C73.0813 73.8838 75.3652 72.9422 77.0491 71.2662C78.7331 69.5902 79.6791 67.317 79.6791 64.9468C79.6791 62.5766 78.7331 60.3034 77.0491 58.6274C75.3652 56.9514 73.0813 56.0098 70.6998 56.0098Z" fill="#E6E6E6"/>
<path d="M67.2932 56.68C66.7243 56.5666 66.1453 56.5101 65.5651 56.5113C63.2564 56.5089 61.0353 57.3908 59.3621 58.9741C57.689 60.5574 56.6921 62.7208 56.5781 65.0158C56.464 67.3108 57.2416 69.5615 58.7497 71.3013C60.2578 73.0412 62.3806 74.1368 64.6783 74.3612C66.976 74.5855 69.2723 73.9212 71.0913 72.5062C72.9103 71.0911 74.1124 69.0337 74.4487 66.7604C74.7849 64.4871 74.2293 62.1722 72.8972 60.2955C71.565 58.4187 69.5584 57.1242 67.2932 56.68ZM67.9007 73.4386C66.7508 73.7715 65.5424 73.8546 64.3574 73.6824C63.1724 73.5102 62.0385 73.0866 61.0322 72.4403C60.026 71.794 59.171 70.9401 58.5252 69.9364C57.8793 68.9327 57.4576 67.8026 57.2886 66.6226C57.1197 65.4427 57.2074 64.2403 57.5458 63.097C57.8843 61.9537 58.4655 60.8961 59.2503 59.9958C60.0351 59.0954 61.005 58.3734 62.0945 57.8786C63.184 57.3837 64.3675 57.1276 65.5651 57.1276C65.8124 57.1276 66.0572 57.1393 66.2997 57.158C68.2419 57.3289 70.0631 58.1699 71.4483 59.5356C72.8335 60.9013 73.6956 62.7059 73.8855 64.6373C74.0755 66.5687 73.5813 68.5054 72.4884 70.1125C71.3955 71.7197 69.7728 72.8962 67.9007 73.4386Z" fill="#3F3D56"/>
<path d="M70.7931 63.8752C70.4963 62.5805 69.6955 61.456 68.5664 60.7484C67.4373 60.0409 66.0723 59.8081 64.7709 60.1014C64.6438 60.1302 64.5122 60.1657 64.3962 60.2013L65.5962 65.4491L70.8689 64.257C70.8466 64.1349 70.8221 64.0017 70.7931 63.8752Z" fill="#19CCA3"/>
<path d="M70.2823 65.1783L65.0074 66.3704L63.8096 61.1225C62.8899 61.4057 62.0711 61.9455 61.4503 62.6778C60.8294 63.4101 60.4325 64.3042 60.3067 65.2542C60.1809 66.2041 60.3314 67.1701 60.7404 68.0375C61.1494 68.9049 61.7997 69.6374 62.6143 70.1482C63.4288 70.6589 64.3734 70.9265 65.3361 70.9191C66.2988 70.9118 67.2392 70.6299 68.0458 70.1068C68.8524 69.5837 69.4914 68.8414 69.887 67.9679C70.2826 67.0943 70.4183 66.1262 70.2779 65.1783H70.2823Z" fill="#19CCA3"/>
<path d="M162.974 107.19C161.198 107.19 159.462 106.666 157.985 105.684C156.509 104.702 155.358 103.306 154.678 101.673C153.999 100.04 153.821 98.2435 154.167 96.51C154.514 94.7765 155.369 93.1841 156.625 91.9343C157.88 90.6845 159.48 89.8334 161.222 89.4886C162.964 89.1438 164.769 89.3208 166.41 89.9971C168.05 90.6735 169.453 91.8189 170.439 93.2885C171.426 94.7581 171.952 96.4859 171.952 98.2534C171.95 100.623 171.003 102.894 169.32 104.569C167.636 106.245 165.354 107.187 162.974 107.19ZM162.974 89.9332C161.32 89.9332 159.704 90.4212 158.329 91.3354C156.955 92.2496 155.883 93.5491 155.25 95.0694C154.618 96.5897 154.452 98.2626 154.775 99.8766C155.097 101.491 155.893 102.973 157.062 104.137C158.232 105.3 159.721 106.093 161.343 106.414C162.964 106.735 164.645 106.57 166.173 105.94C167.7 105.31 169.006 104.244 169.924 102.876C170.843 101.508 171.333 99.8989 171.333 98.2534C171.331 96.0475 170.449 93.9327 168.882 92.3729C167.315 90.8131 165.19 89.9357 162.974 89.9332Z" fill="#3F3D56"/>
<path d="M166.848 101.834C166.519 101.834 166.198 101.737 165.924 101.556C165.651 101.374 165.438 101.116 165.312 100.814C165.186 100.512 165.153 100.18 165.217 99.8587C165.281 99.5378 165.439 99.243 165.671 99.0116C165.903 98.7801 166.199 98.6224 166.521 98.5584C166.844 98.4943 167.178 98.5269 167.482 98.6519C167.785 98.7768 168.045 98.9886 168.228 99.2605C168.41 99.5323 168.508 99.852 168.508 100.179C168.508 100.618 168.334 101.038 168.022 101.349C167.711 101.659 167.288 101.834 166.848 101.834ZM162.974 101.834C162.533 101.834 162.111 101.659 161.8 101.349C161.489 101.04 161.314 100.62 161.313 100.181V96.3254C161.314 95.8874 161.489 95.4675 161.8 95.158C162.111 94.8485 162.533 94.6746 162.974 94.6746C163.414 94.6746 163.836 94.8485 164.147 95.158C164.458 95.4675 164.634 95.8874 164.634 96.3254V100.181C164.634 100.62 164.458 101.04 164.147 101.349C163.836 101.659 163.414 101.834 162.974 101.834ZM159.1 101.834C158.66 101.834 158.237 101.659 157.926 101.349C157.614 101.039 157.439 100.619 157.439 100.18V98.6396C157.439 98.2009 157.614 97.7803 157.925 97.4701C158.237 97.16 158.66 96.9857 159.1 96.9857C159.541 96.9857 159.964 97.16 160.275 97.4701C160.587 97.7803 160.762 98.2009 160.762 98.6396V100.18C160.762 100.619 160.586 101.039 160.275 101.349C159.963 101.659 159.541 101.834 159.1 101.834Z" fill="#19CCA3"/>
<path d="M49.1179 138.346L51.8547 138.037L51.9593 127.384L47.92 127.84L49.1179 138.346Z" fill="#A0616A"/>
<path d="M57.4211 139.97L48.8199 140.942L48.4428 137.634L53.7208 137.038C54.6021 136.939 55.4871 137.192 56.1811 137.742C56.875 138.292 57.3211 139.093 57.4211 139.97Z" fill="#2F2E41"/>
<path d="M20.9724 138.176L23.7267 138.176L25.0369 127.602L20.9719 127.603L20.9724 138.176Z" fill="#A0616A"/>
<path d="M29.0386 140.721L20.3822 140.722L20.382 137.393L25.6939 137.393C26.5809 137.393 27.4316 137.743 28.0589 138.368C28.6861 138.992 29.0385 139.839 29.0386 140.721Z" fill="#2F2E41"/>
<path d="M40.7339 90.8915L42.3065 95.9827L50.8437 114.37L53.0903 131.811L47.9231 132.034L44.7778 115.935L33.994 104.308L24.5582 134.718L20.2896 134.27C20.2896 134.27 23.8842 94.9163 28.8268 90.8915C28.8268 90.8915 36.9146 87.0902 40.7339 90.8915Z" fill="#2F2E41"/>
<path d="M33.7579 68.9234C36.8054 68.9234 39.2758 66.4646 39.2758 63.4315C39.2758 60.3984 36.8054 57.9395 33.7579 57.9395C30.7104 57.9395 28.2399 60.3984 28.2399 63.4315C28.2399 66.4646 30.7104 68.9234 33.7579 68.9234Z" fill="#A0616A"/>
<path d="M41.2955 91.8977C41.2955 91.8977 41.9695 69.0902 32.5337 70.6554C23.0979 72.2206 27.0295 94.2455 27.0295 94.2455C27.0295 94.2455 29.0514 98.2704 33.994 93.7983C38.9366 89.3263 41.2955 91.8977 41.2955 91.8977Z" fill="#19CCA3"/>
<path d="M60.8301 72.9137C60.6529 73.1912 60.4168 73.4266 60.1384 73.6034C59.86 73.7802 59.546 73.8941 59.2185 73.937C58.8911 73.98 58.5582 73.951 58.2432 73.852C57.9282 73.753 57.6389 73.5865 57.3956 73.3643L50.3278 77.1541L50.6979 73.0183L57.3528 70.0534C57.7551 69.6713 58.2843 69.4494 58.84 69.4297C59.3957 69.41 59.9393 69.5938 60.3679 69.9464C60.7966 70.299 61.0803 70.7958 61.1655 71.3427C61.2507 71.8896 61.1313 72.4486 60.8301 72.9137Z" fill="#A0616A"/>
<path d="M33.7051 73.44L45.1779 75.3702L55.4592 70.5396L57.0202 73.8616L45.7651 80.9966C45.7651 80.9966 33.8494 81.8019 31.0945 78.6744C30.0614 77.5016 29.9433 76.4341 30.1993 75.5579C30.4234 74.84 30.9036 74.2284 31.5493 73.8383C32.195 73.4483 32.9618 73.3066 33.7051 73.44Z" fill="#19CCA3"/>
<path d="M33.1016 69.202C33.1279 69.1785 33.1484 69.1492 33.1614 69.1165C33.1744 69.0837 33.1795 69.0484 33.1764 69.0133C33.1733 68.9782 33.162 68.9443 33.1434 68.9143C33.1249 68.8843 33.0995 68.8591 33.0694 68.8406C32.5794 68.5385 32.1802 68.1107 31.9137 67.6021C31.6472 67.0935 31.5232 66.5228 31.5549 65.95C31.5865 65.3773 31.7725 64.8235 32.0934 64.347C32.4144 63.8705 32.8583 63.4889 33.3786 63.2421C35.0009 62.4723 37.1992 63.0712 38.3985 61.5918C38.6424 61.2753 38.8148 60.9102 38.9041 60.5214C38.9934 60.1325 38.9974 59.7291 38.9158 59.3385C38.657 57.9413 37.6016 56.9037 36.4197 56.1925C34.9678 55.319 33.2991 54.8676 31.6027 54.8896C29.9063 54.9115 28.2499 55.4059 26.8213 56.3168C25.3928 57.2276 24.2491 58.5185 23.5198 60.0431C22.7906 61.5678 22.5049 63.2652 22.6953 64.9431C22.8479 66.2879 23.2648 67.7958 22.4614 68.8876C21.7543 69.8485 20.4196 70.0287 19.2472 70.2675C16.7325 70.7796 14.3065 71.961 12.6 73.8693C10.8934 75.7776 9.98307 78.455 10.4976 80.9578C11.0121 83.4607 13.0763 85.6602 15.6133 86.0482C17.6783 86.3639 19.8106 85.4911 21.327 84.0607C22.8435 82.6304 23.802 80.6988 24.4066 78.7084C25.1242 76.3459 25.4073 73.8002 26.7028 71.6958C27.9706 69.6365 30.7027 68.1602 32.844 69.2327C32.885 69.2541 32.9316 69.2625 32.9776 69.2571C33.0235 69.2516 33.0668 69.2324 33.1016 69.202Z" fill="#2F2E41"/>
<path d="M193.008 109.853C193.307 109.705 193.569 109.494 193.777 109.234C193.984 108.974 194.132 108.672 194.21 108.35C194.288 108.027 194.294 107.691 194.227 107.366C194.16 107.04 194.022 106.734 193.824 106.467L199.14 77.1828L194.179 77.1177L190.487 106.076C190.059 106.438 189.78 106.944 189.701 107.497C189.623 108.05 189.751 108.613 190.062 109.079C190.373 109.544 190.844 109.88 191.387 110.023C191.93 110.166 192.507 110.105 193.008 109.853Z" fill="#FFB8B8"/>
<path d="M177.61 108.465L175.727 117.369L175.962 137.286H179.494L181.142 117.837L183.731 109.636L177.61 108.465Z" fill="#FFB8B8"/>
<path d="M189.281 109.133L187.398 118.037L187.633 137.954H191.165L192.813 118.505L195.403 110.304L189.281 109.133Z" fill="#FFB8B8"/>
<path d="M174.729 137.059L180.295 137.046L180.304 140.534L171.233 140.556C171.232 140.098 171.321 139.645 171.496 139.221C171.671 138.797 171.928 138.412 172.253 138.087C172.578 137.763 172.963 137.505 173.388 137.328C173.813 137.152 174.269 137.061 174.729 137.059Z" fill="#2F2E41"/>
<path d="M186.487 137.436L192.053 137.422L192.062 140.91L182.991 140.933C182.99 140.475 183.079 140.021 183.254 139.598C183.429 139.174 183.687 138.789 184.011 138.464C184.336 138.139 184.722 137.881 185.146 137.705C185.571 137.529 186.027 137.437 186.487 137.436Z" fill="#2F2E41"/>
<path d="M186.203 64.7975C189.397 64.7975 191.986 62.2208 191.986 59.0424C191.986 55.8639 189.397 53.2872 186.203 53.2872C183.01 53.2872 180.421 55.8639 180.421 59.0424C180.421 62.2208 183.01 64.7975 186.203 64.7975Z" fill="#FFB8B8"/>
<path d="M198.982 73.2771C197.223 70.5295 191.699 64.0135 183.48 67.7537C182.832 68.0518 182.292 68.5401 181.931 69.1529C181.571 69.7657 181.407 70.4737 181.463 71.1817C181.86 76.4068 182.362 89.7195 178.081 97.6858C178.081 97.6858 190.559 101.435 197.386 97.9201C197.386 97.9201 195.032 82.2206 197.386 79.1745C198.171 78.201 198.807 77.1172 199.273 75.9582C199.436 75.5194 199.495 75.0488 199.445 74.5835C199.394 74.1182 199.236 73.671 198.982 73.2771Z" fill="#3F3D56"/>
<path d="M196.68 73.0822L198.99 74.0403C199.144 74.1041 199.277 74.2102 199.372 74.3463C199.467 74.4823 199.521 74.6426 199.528 74.8083L199.741 79.8775L194.561 79.4088L196.68 73.0822Z" fill="#3F3D56"/>
<path d="M179.023 97.2171C179.023 97.2171 173.843 106.824 174.785 115.728L182.083 116.9L187.263 104.481L186.086 117.134L193.619 117.369C193.619 117.369 198.563 99.0917 196.915 97.4514L179.023 97.2171Z" fill="#2F2E41"/>
<path d="M171.667 98.0746C171.996 98.0244 172.311 97.9029 172.588 97.7186C172.866 97.5343 173.099 97.2917 173.272 97.0079C173.445 96.724 173.554 96.4059 173.59 96.0759C173.626 95.7459 173.589 95.412 173.481 95.0978L183.988 75.3844L179.283 73.8162L170.423 93.7124C169.905 93.9272 169.484 94.3238 169.239 94.8271C168.995 95.3304 168.945 95.9053 169.098 96.443C169.251 96.9807 169.598 97.4438 170.071 97.7445C170.544 98.0452 171.112 98.1627 171.667 98.0746Z" fill="#FFB8B8"/>
<path d="M185.423 70.0478L183.477 69.1814C183.477 69.1814 181.827 68.1633 180.364 70.4035C178.901 72.6437 177.321 77.5531 177.321 77.5531L183.671 79.3313L185.423 70.0478Z" fill="#3F3D56"/>
<path d="M187.13 61.8131C187.337 61.0956 187.277 60.1248 186.579 59.8534C186.214 59.712 185.808 59.8235 185.419 59.8632C184.658 59.9375 183.897 59.7289 183.281 59.2775C182.559 58.7426 182.112 57.9251 181.688 57.1341L181.047 55.9378C180.904 55.6884 180.782 55.4276 180.683 55.1582C180.326 54.102 180.713 52.8793 181.507 52.0929C182.336 51.3254 183.426 50.8998 184.558 50.902C185.682 50.9101 186.791 51.1467 187.819 51.5973C189.647 52.3386 191.302 53.4452 192.682 54.8485C193.584 55.7671 194.405 56.9637 194.217 58.2345C194.07 59.2236 193.346 60.0157 192.655 60.7416L190.149 63.3746C189.705 63.8409 189.231 64.3262 188.611 64.5055C187.991 64.6848 187.193 64.4214 187.024 63.8015C187.024 63.8015 186.922 62.5305 187.13 61.8131Z" fill="#2F2E41"/>
<path d="M221.776 141H0.235431C0.17299 141 0.113108 140.975 0.0689558 140.931C0.024804 140.887 0 140.828 0 140.766C0 140.704 0.024804 140.644 0.0689558 140.6C0.113108 140.556 0.17299 140.531 0.235431 140.531H221.776C221.838 140.531 221.898 140.556 221.942 140.6C221.986 140.644 222.011 140.704 222.011 140.766C222.011 140.828 221.986 140.887 221.942 140.931C221.898 140.975 221.838 141 221.776 141Z" fill="#3F3D56"/>
<path d="M149.271 69.1977H142.679C142.492 69.1977 142.312 69.1236 142.18 68.9918C142.047 68.86 141.973 68.6812 141.973 68.4947C141.973 68.3083 142.047 68.1295 142.18 67.9977C142.312 67.8658 142.492 67.7918 142.679 67.7918H149.271C149.459 67.7918 149.638 67.8658 149.771 67.9977C149.903 68.1295 149.978 68.3083 149.978 68.4947C149.978 68.6812 149.903 68.86 149.771 68.9918C149.638 69.1236 149.459 69.1977 149.271 69.1977Z" fill="#19CCA3"/>
<path d="M149.271 66.1515H142.679C142.492 66.1515 142.312 66.0775 142.18 65.9457C142.047 65.8138 141.973 65.635 141.973 65.4486C141.973 65.2621 142.047 65.0833 142.18 64.9515C142.312 64.8197 142.492 64.7456 142.679 64.7456H149.271C149.459 64.7456 149.638 64.8197 149.771 64.9515C149.903 65.0833 149.978 65.2621 149.978 65.4486C149.978 65.635 149.903 65.8138 149.771 65.9457C149.638 66.0775 149.459 66.1515 149.271 66.1515Z" fill="#19CCA3"/>
<path d="M149.271 63.1054H142.679C142.492 63.1054 142.312 63.0313 142.18 62.8995C142.047 62.7677 141.973 62.5889 141.973 62.4024C141.973 62.216 142.047 62.0372 142.18 61.9054C142.312 61.7735 142.492 61.6995 142.679 61.6995H149.271C149.459 61.6995 149.638 61.7735 149.771 61.9054C149.903 62.0372 149.978 62.216 149.978 62.4024C149.978 62.5889 149.903 62.7677 149.771 62.8995C149.638 63.0313 149.459 63.1054 149.271 63.1054Z" fill="#19CCA3"/>
</g>
<defs>
<clipPath id="clip0_17_5620">
<rect width="222.011" height="141" fill="white"/>
</clipPath>
</defs>
</svg>
